<?xml version="1.0" encoding="UTF-8" standalone="no"?>
<!-- Created with Inkscape (http://www.inkscape.org/) -->

<svg
   xmlns:dc="http://purl.org/dc/elements/1.1/"
   xmlns:cc="http://creativecommons.org/ns#"
   xmlns:rdf="http://www.w3.org/1999/02/22-rdf-syntax-ns#"
   xmlns:svg="http://www.w3.org/2000/svg"
   xmlns="http://www.w3.org/2000/svg"
   xmlns:sodipodi="http://sodipodi.sourceforge.net/DTD/sodipodi-0.dtd"
   xmlns:inkscape="http://www.inkscape.org/namespaces/inkscape"
   width="512"
   height="512"
   viewBox="0 0 135.46666 135.46666"
   version="1.1"
   id="svg8"
   sodipodi:docname="U+5584.svg"
   inkscape:version="0.92.4 (5da689c313, 2019-01-14)">
  <defs
     id="defs2" />
  <sodipodi:namedview
     id="base"
     pagecolor="#ffffff"
     bordercolor="#666666"
     borderopacity="1.0"
     inkscape:pageopacity="0.0"
     inkscape:pageshadow="2"
     inkscape:zoom="1.3759916"
     inkscape:cx="205.9908"
     inkscape:cy="224.39042"
     inkscape:document-units="px"
     inkscape:current-layer="g839"
     showgrid="false"
     units="px"
     inkscape:window-width="1920"
     inkscape:window-height="1017"
     inkscape:window-x="-8"
     inkscape:window-y="-8"
     inkscape:window-maximized="1" />
  <metadata
     id="metadata5">
    <rdf:RDF>
      <cc:Work
         rdf:about="">
        <dc:format>image/svg+xml</dc:format>
        <dc:type
           rdf:resource="http://purl.org/dc/dcmitype/StillImage" />
        <dc:title></dc:title>
      </cc:Work>
    </rdf:RDF>
  </metadata>
  <g
     inkscape:label="圖層 1"
     inkscape:groupmode="layer"
     id="layer1"
     transform="translate(-0.26726951,-162.06787)">
    <g
       id="g839"
       transform="translate(0.38914996,161.68338)">
      <g
         transform="translate(0,-161.53333)"
         id="layer1-1"
         inkscape:label="圖層 1" />
      <path
         style="fill:#000000;stroke:none;stroke-width:0.26458332px;stroke-linecap:butt;stroke-linejoin:miter;stroke-opacity:1;fill-opacity:1"
         d="M 43.142371,12.019245 41.219517,17.018669 41.796372,19.518382 43.526943,22.594951 49.29551,25.286949 51.987508,25.863806 54.102651,21.825809 51.795222,17.595526 Z"
         id="path970"
         inkscape:connector-curvature="0" />
      <path
         style="fill:#000000;stroke:none;stroke-width:0.26458332px;stroke-linecap:butt;stroke-linejoin:miter;stroke-opacity:1;fill-opacity:1"
         d="M 68.716352,4.9046788 V 7.01982 L 69.485496,8.9426756 67.178067,12.596101 59.486646,22.787236 56.794648,27.017518 56.025505,28.363517 32.37438,34.132085 29.297811,32.978372 27.56724,31.055515 24.875243,33.747513 V 36.247227 L 30.066955,42.784935 32.182095,42.977221 35.643236,40.862079 56.217791,33.362943 80.445772,27.017518 H 84.868341 L 91.790621,29.132661 H 94.290333 L 95.25176,26.825233 93.328906,23.364093 88.906337,21.825809 85.060627,19.902953 79.868915,20.47981 59.871215,27.594376 59.486646,26.248377 73.331206,15.864956 79.099774,14.518957 81.984057,11.634674 80.830344,7.4043911 76.792345,7.2121054 71.985208,3.1741086 Z"
         id="path972"
         inkscape:connector-curvature="0" />
      <path
         style="fill:#000000;fill-opacity:1;stroke:none;stroke-width:0.26458332px;stroke-linecap:butt;stroke-linejoin:miter;stroke-opacity:1"
         d="M 51.026081,37.977795 54.679506,34.516656 H 58.332933 L 64.101498,37.593226 63.716929,41.631222 64.678356,42.208078 73.13892,38.746939 77.369203,41.438937 77.946061,44.32322 74.677205,46.43836 64.101498,47.207504 63.140071,49.51493 62.37093,58.167781 H 65.062927 L 71.792922,53.552926 80.253487,54.898925 81.984057,57.783209 81.407199,60.667492 63.140071,62.398063 59.678932,62.974921 56.025505,66.43606 58.909788,65.859204 H 59.871215 L 60.063501,68.358916 58.140647,71.050914 62.178644,71.627772 65.255213,73.742912 66.793498,74.896624 96.597759,70.089487 H 101.02033 L 109.28861,68.551202 118.13374,72.396913 122.17174,76.434909 122.7486,80.665192 118.90289,82.203477 114.86489,80.665192 104.67375,76.050337 96.213189,75.281196 81.214914,75.665768 65.639783,77.973194 64.101498,80.472906 59.871215,90.471756 59.486646,92.586898 76.792345,87.395186 79.29206,84.126333 85.060627,84.703188 87.175767,87.779758 89.675479,89.125757 91.598335,92.394612 90.636908,95.855751 87.368053,99.316892 84.676055,107.58517 V 108.93117 L 89.867764,108.16203 94.867191,110.27717 98.520615,113.54602 97.559188,116.81488 93.713475,117.96859 86.791195,115.85345 78.715202,115.08431 66.793498,117.77631 63.332357,118.73773 61.217214,119.89145 57.756075,119.31459 55.448649,116.62259 56.410076,115.08431 63.524643,113.35374 75.254063,110.08488 77.369203,107.2006 79.484345,97.970893 V 95.471182 L 76.023204,96.624895 69.29321,99.124606 64.101498,102.58575 60.832645,98.740035 58.717502,94.125183 56.986932,93.932897 51.987508,100.08603 50.064651,101.62432 50.449223,108.16203 52.756649,121.62202 54.102651,128.15973 V 132.58229 L 50.449223,131.04401 47.180368,124.12173 46.603513,114.89202 42.757802,104.31632 38.335234,97.20175 V 94.894324 L 46.988085,97.586322 49.103224,95.855751 56.025505,81.818905 55.833219,79.703765 52.179794,80.28062 34.104951,86.241473 14.684108,94.509752 10.453826,93.163753 9.3001123,88.548902 6.8004,83.357189 8.9155412,80.472906 11.030682,79.126907 11.799825,82.011191 16.030107,84.318619 21.798674,83.549475 33.528093,80.472906 46.603513,77.780908 54.102651,77.204053 56.602362,76.627195 53.718079,74.127483 50.449223,72.396913 C 50.449223,72.396913 49.101791,70.657721 49.680082,70.089487 50.504273,69.279629 51.809658,71.436096 52.948935,71.2432 53.758236,71.106173 54.871792,69.704915 54.871792,69.704915 L 55.448649,67.589772 51.795222,67.397489 40.450374,72.589199 36.027805,70.666342 32.37438,67.397489 35.835519,66.243774 44.872942,63.936348 54.294934,60.475206 55.640933,58.360066 54.871792,51.2455 53.718079,50.091787 45.065228,55.668069 42.180944,57.590925 39.488947,56.052641 37.758376,50.284073 39.296661,47.784359 42.950085,48.938075 48.141797,46.822932 54.294934,45.092361 53.718079,40.669795 Z"
         id="path974"
         inkscape:connector-curvature="0"
         sodipodi:nodetypes="ccccccccccccccccccccccccccccccccccccccccccccccccccccccccccccccccccccccccccccccccccccccccccccccccccccccccccccccaacccccccccccccccccccccc" />
    </g>
  </g>
</svg>
