<?xml version="1.0" encoding="UTF-8" standalone="no"?>
<!-- Created with Inkscape (http://www.inkscape.org/) -->

<svg
   xmlns:dc="http://purl.org/dc/elements/1.1/"
   xmlns:cc="http://creativecommons.org/ns#"
   xmlns:rdf="http://www.w3.org/1999/02/22-rdf-syntax-ns#"
   xmlns:svg="http://www.w3.org/2000/svg"
   xmlns="http://www.w3.org/2000/svg"
   xmlns:sodipodi="http://sodipodi.sourceforge.net/DTD/sodipodi-0.dtd"
   xmlns:inkscape="http://www.inkscape.org/namespaces/inkscape"
   width="512"
   height="512"
   viewBox="0 0 135.46666 135.46667"
   version="1.1"
   id="svg8"
   inkscape:version="0.92.4 (5da689c313, 2019-01-14)"
   sodipodi:docname="U+5584.svg">
  <defs
     id="defs2" />
  <sodipodi:namedview
     id="base"
     pagecolor="#ffffff"
     bordercolor="#666666"
     borderopacity="1.0"
     inkscape:pageopacity="0.0"
     inkscape:pageshadow="2"
     inkscape:zoom="1.007193"
     inkscape:cx="126.52022"
     inkscape:cy="294.86793"
     inkscape:document-units="px"
     inkscape:current-layer="layer2"
     showgrid="false"
     units="px"
     inkscape:window-width="1920"
     inkscape:window-height="1017"
     inkscape:window-x="-8"
     inkscape:window-y="-8"
     inkscape:window-maximized="1" />
  <metadata
     id="metadata5">
    <rdf:RDF>
      <cc:Work
         rdf:about="">
        <dc:format>image/svg+xml</dc:format>
        <dc:type
           rdf:resource="http://purl.org/dc/dcmitype/StillImage" />
        <dc:title></dc:title>
      </cc:Work>
    </rdf:RDF>
  </metadata>
  <g
     inkscape:groupmode="layer"
     id="layer2"
     inkscape:label="圖層 2">
    <path
       style="fill:#000000;stroke:none;stroke-width:0.26458332px;stroke-linecap:butt;stroke-linejoin:miter;stroke-opacity:1;fill-opacity:1"
       d="m 43.869861,12.788669 c 0,0 4.728488,3.415019 5.779264,3.415019 1.050775,0 4.465794,1.838857 4.2031,3.677713 -0.262694,1.838857 0.525388,3.940407 -0.525389,4.991182 -1.050774,1.050775 -3.677711,0.788082 -5.253873,-0.262694 -1.576163,-1.050775 -4.991182,-1.838856 -5.516571,-4.465794 -0.525388,-2.626938 0.262695,-7.61812 1.313469,-7.355426 z"
       id="path827"
       inkscape:connector-curvature="0" />
    <path
       style="fill:#000000;stroke:none;stroke-width:0.26458332px;stroke-linecap:butt;stroke-linejoin:miter;stroke-opacity:1;fill-opacity:1"
       d="m 68.825771,5.695937 c 0,0 -0.525389,-2.1015502 1.313468,-2.1015502 1.838857,0 4.203102,0.7880813 5.253876,1.5761628 1.050774,0.7880813 1.576163,2.1015502 3.41502,2.3642439 1.838856,0.2626939 2.88963,1.8388565 2.626936,3.4150195 -0.262694,1.576162 -0.262694,3.677713 -1.313468,3.940406 -1.050774,0.262694 -7.355425,2.101551 -8.668896,3.152326 -1.313468,1.050775 -8.668893,4.465794 -10.507749,6.830038 -1.838857,2.364244 -4.203102,6.041958 -4.203102,6.041958 0,0 -1.576163,-1.050777 2.101551,-6.041958 3.677713,-4.991182 8.931589,-13.397383 9.719669,-14.710852 0.788083,-1.3134686 1.050777,-1.5761623 0.262695,-4.465794 z"
       id="path829"
       inkscape:connector-curvature="0" />
    <path
       style="fill:#000000;stroke:none;stroke-width:0.26458332px;stroke-linecap:butt;stroke-linejoin:miter;stroke-opacity:1;fill-opacity:1"
       d="m 25.218603,34.592254 c 0,0 0,-3.152328 1.838855,-3.415019 1.838857,-0.262694 2.364245,2.364242 4.465796,2.364242 2.101549,0 8.668893,-1.313468 13.660075,-2.364242 4.991182,-1.050777 23.905136,-6.304652 23.905136,-6.304652 0,0 9.71967,-2.626938 11.033138,-3.940406 1.313468,-1.313469 5.51657,-1.050776 5.51657,-1.050776 0,0 1.313469,0.525388 3.152325,1.576163 1.838857,1.050775 4.991182,2.10155 5.516568,3.415019 0.525389,1.313469 2.364245,4.203101 -0.525386,3.940407 -2.889631,-0.262695 -12.871994,-2.101551 -14.710851,-1.313469 -1.838857,0.78808 -11.558527,2.889631 -11.558527,2.889631 0,0 -17.600482,4.728488 -19.439339,5.516571 -1.838857,0.78808 -9.456978,3.152325 -9.456978,3.152325 0,0 -2.101549,0 -2.889631,1.050774 -0.78808,1.050777 -2.889631,4.728488 -5.516568,2.364245 -2.626939,-2.364245 -4.991183,-7.880813 -4.991183,-7.880813 z"
       id="path831"
       inkscape:connector-curvature="0" />
    <path
       style="fill:#000000;stroke:none;stroke-width:0.26458332px;stroke-linecap:butt;stroke-linejoin:miter;stroke-opacity:1;fill-opacity:1"
       d="m 37.56521,52.455431 c 0.262695,-1.313471 1.050775,-4.991182 2.364246,-4.465796 1.313468,0.525388 2.101548,1.576163 4.203099,0.788083 2.101551,-0.788083 13.397383,-5.253877 14.448157,-5.516571 1.050777,-0.262694 10.245059,-2.889631 10.245059,-2.889631 0,0 1.050774,-1.313468 3.415019,-1.050774 2.364243,0.262692 4.465794,0.78808 5.51657,2.364243 1.050775,1.576162 1.313469,3.152325 -0.262694,3.415019 -1.576162,0.262694 -8.93159,1.050774 -10.507752,1.576163 -1.576163,0.525388 -12.346607,3.940407 -12.346607,3.940407 l -8.668895,4.465794 c 0,0 -1.576163,1.576162 -2.889631,1.838857 -1.313469,0.262694 -4.203102,0.262694 -5.516571,-4.465794 z"
       id="path833"
       inkscape:connector-curvature="0" />
    <path
       style="fill:#000000;stroke:none;stroke-width:0.26458332px;stroke-linecap:butt;stroke-linejoin:miter;stroke-opacity:1;fill-opacity:1"
       d="m 50.962594,37.481885 3.415019,-1.838857 c 0,0 2.889631,0.262695 6.30465,0.78808 3.41502,0.525389 3.940408,-0.525385 3.677714,7.355428 -0.262694,7.880812 -0.525388,13.134689 -1.313468,16.812402 -0.788083,3.677711 -2.889634,9.71967 -4.203102,11.558527 -1.313469,1.838854 -3.152325,4.728487 -3.41502,3.152325 C 55.165693,73.733627 56.21647,62.700487 55.953776,59.548161 55.691082,56.395836 54.903002,43.786536 54.377613,42.210373 53.852225,40.63421 49.91182,39.058048 50.962594,37.481885 Z"
       id="path835"
       inkscape:connector-curvature="0" />
    <path
       style="fill:#000000;stroke:none;stroke-width:0.26458332px;stroke-linecap:butt;stroke-linejoin:miter;stroke-opacity:1;fill-opacity:1"
       d="m 32.574029,67.428974 c 1.050774,-0.262691 26.794766,-8.406198 26.794766,-8.406198 0,0 4.991182,-0.788083 6.830039,-2.101551 1.838857,-1.313469 4.203099,-3.677714 7.09273,-3.41502 2.889634,0.262694 7.355427,1.050774 8.143507,2.364245 0.788083,1.313469 2.62694,3.152326 -0.262694,4.2031 -2.889631,1.050774 -11.295832,1.313468 -12.871995,2.101551 -1.576162,0.78808 -14.710851,4.728488 -14.710851,4.728488 l -10.770444,4.991182 c 0,0 0.262694,1.576162 -3.152326,0 -3.415019,-1.576163 -8.668895,-3.152326 -7.092732,-4.465797 z"
       id="path837"
       inkscape:connector-curvature="0" />
    <path
       style="fill:#000000;stroke:none;stroke-width:0.26458332px;stroke-linecap:butt;stroke-linejoin:miter;stroke-opacity:1;fill-opacity:1"
       d="m 49.649125,71.369382 c 0,0 9.71967,0.788083 11.558527,0.262694 1.838857,-0.525388 5.253873,2.626937 5.253873,2.626937 0,0 0.525389,0.525388 -0.525385,2.889634 -1.050777,2.364242 -4.203102,10.245055 -6.041959,12.871995 -1.838854,2.626936 -9.194281,12.871998 -11.295832,14.448158 -2.101549,1.57616 -3.41502,2.36424 -3.41502,2.36424 0,0 2.889634,-8.931586 4.728491,-12.346605 1.838854,-3.415019 6.30465,-13.134689 6.830036,-14.448157 0.525388,-1.313469 -6.304651,-8.406202 -7.092731,-8.668896 z"
       id="path839"
       inkscape:connector-curvature="0" />
    <path
       style="fill:#000000;stroke:none;stroke-width:0.26458332px;stroke-linecap:butt;stroke-linejoin:miter;stroke-opacity:1;fill-opacity:1"
       d="m 7.8808135,82.40252 c 0,0 3.4150195,-3.940405 3.6777135,-2.101548 0.262693,1.838857 1.050774,2.626937 2.889631,3.415019 1.838857,0.78808 9.456976,-0.525388 12.871994,-1.576162 3.41502,-1.050777 29.421704,-6.041959 32.311337,-6.567345 2.889631,-0.525388 26.53207,-4.203102 26.53207,-4.203102 l 12.871998,-1.050774 c 0,0 3.940403,0.78808 5.253873,0.262694 1.31347,-0.525388 2.62694,-2.364245 6.56734,-0.788082 3.94041,1.576162 8.93159,1.838856 10.24506,4.465793 1.31347,2.626939 4.72849,4.728488 2.10155,5.779265 -2.62694,1.050774 -7.09273,0.78808 -9.45697,-0.262695 -2.36425,-1.050774 -10.50775,-3.677713 -15.498936,-4.465793 -4.991182,-0.788083 -10.245058,0 -14.448158,0.262694 -4.203102,0.262692 -19.176645,2.626937 -22.32897,3.415017 -3.152328,0.788082 -8.93159,1.050777 -14.44816,2.626939 -5.516568,1.576163 -20.752808,7.092733 -20.752808,7.092733 l -7.61812,3.677711 c 0,0 -0.788081,2.101551 -4.2031,1.313469 -3.415019,-0.78808 -3.677713,0 -5.2538756,-4.2031 C 7.6181198,85.292154 5.7792633,83.190603 7.8808135,82.40252 Z"
       id="path841"
       inkscape:connector-curvature="0" />
    <path
       style="fill:#000000;stroke:none;stroke-width:0.26458332px;stroke-linecap:butt;stroke-linejoin:miter;stroke-opacity:1;fill-opacity:1"
       d="m 38.090599,94.486435 c 1.313468,0.525389 10.50775,2.889631 11.295832,4.203099 0.78808,1.313476 0.78808,2.626936 1.576163,7.092736 0.78808,4.46579 0.262694,6.83004 1.576162,10.77044 1.313469,3.94041 2.101551,8.14351 2.101551,10.77045 0,2.62693 1.576163,5.51657 -0.525388,5.25387 -2.101551,-0.26269 -5.51657,1.57617 -6.567345,-8.66889 -1.050774,-10.24506 -2.889631,-17.86318 -6.30465,-22.32897 -3.415019,-4.465798 -4.991182,-8.143509 -3.152325,-7.092735 z"
       id="path843"
       inkscape:connector-curvature="0" />
    <path
       style="fill:#000000;stroke:none;stroke-width:0.26458332px;stroke-linecap:butt;stroke-linejoin:miter;stroke-opacity:1;fill-opacity:1"
       d="m 57.267244,91.33411 c 0,0 2.626937,2.101551 4.465794,1.313468 1.838856,-0.78808 13.660077,-3.940405 13.660077,-3.940405 0,0 1.838857,-1.050777 3.152325,-2.364245 1.313469,-1.313468 0.262695,-2.364245 2.626937,-2.364245 2.364245,0 3.152328,1.050777 4.465796,2.626939 1.313469,1.576163 1.838857,1.838857 3.41502,2.101551 1.576162,0.262692 1.050774,1.050774 2.101548,3.152325 1.050777,2.101549 2.101551,0.78808 0.262694,3.152326 -1.838857,2.364242 -3.152325,3.940405 -4.991182,8.668896 -1.838857,4.72849 -2.364242,7.88081 -4.465793,9.19428 -2.101551,1.31347 -4.2031,3.41502 -4.728488,-1.05078 -0.525388,-4.46579 2.364242,-13.660071 2.364242,-13.660071 0,0 2.364246,-3.152325 0.788083,-2.889631 -1.576162,0.262691 -9.194281,2.889631 -10.245058,3.940405 -1.050774,1.050777 -3.415019,3.940407 -5.516568,3.152327 -2.101551,-0.78808 -7.355427,-7.880815 -7.355427,-11.03314 z"
       id="path845"
       inkscape:connector-curvature="0" />
    <path
       style="fill:#000000;stroke:none;stroke-width:0.26458332px;stroke-linecap:butt;stroke-linejoin:miter;stroke-opacity:1;fill-opacity:1"
       d="m 55.691082,117.34079 c 0,0 -1.838857,-1.31346 1.576162,-2.10155 3.415019,-0.78808 17.600483,-5.51656 17.600483,-5.51656 0,0 7.880815,-3.15233 12.346609,-2.36425 4.465793,0.78808 9.456975,1.83886 10.50775,3.67771 1.050776,1.83886 1.576162,2.10155 1.050776,3.41502 -0.525388,1.31347 -1.050776,2.36425 -3.152325,2.88963 -2.101551,0.52539 -2.626939,0.2627 -6.041959,-0.52538 -3.415019,-0.78808 -6.30465,-1.57617 -11.558526,-0.78808 -5.253874,0.78808 -13.922769,3.15232 -13.922769,3.15232 0,0 -0.788083,2.10155 -3.41502,0.78808 -2.626936,-1.31347 -4.991181,-0.52539 -4.991181,-2.62694 z"
       id="path847"
       inkscape:connector-curvature="0" />
  </g>
</svg>
