<?xml version="1.0" encoding="UTF-8" standalone="no"?>
<!-- Created with Inkscape (http://www.inkscape.org/) -->

<svg
   xmlns:dc="http://purl.org/dc/elements/1.1/"
   xmlns:cc="http://creativecommons.org/ns#"
   xmlns:rdf="http://www.w3.org/1999/02/22-rdf-syntax-ns#"
   xmlns:svg="http://www.w3.org/2000/svg"
   xmlns="http://www.w3.org/2000/svg"
   xmlns:sodipodi="http://sodipodi.sourceforge.net/DTD/sodipodi-0.dtd"
   xmlns:inkscape="http://www.inkscape.org/namespaces/inkscape"
   width="512"
   height="512"
   viewBox="0 0 614.4 614.4"
   version="1.1"
   id="svg8"
   inkscape:version="0.92.4 (5da689c313, 2019-01-14)"
   sodipodi:docname="因U+56E0.svg">
  <defs
     id="defs2" />
  <sodipodi:namedview
     id="base"
     pagecolor="#ffffff"
     bordercolor="#666666"
     borderopacity="1.0"
     inkscape:pageopacity="0.0"
     inkscape:pageshadow="2"
     inkscape:zoom="1.979899"
     inkscape:cx="211.56313"
     inkscape:cy="314.21004"
     inkscape:document-units="px"
     inkscape:current-layer="g4581"
     showgrid="false"
     units="px"
     scale-x="1.2"
     inkscape:window-width="1920"
     inkscape:window-height="1017"
     inkscape:window-x="-8"
     inkscape:window-y="-8"
     inkscape:window-maximized="1">
    <inkscape:grid
       type="xygrid"
       id="grid3735" />
  </sodipodi:namedview>
  <metadata
     id="metadata5">
    <rdf:RDF>
      <cc:Work
         rdf:about="">
        <dc:format>image/svg+xml</dc:format>
        <dc:type
           rdf:resource="http://purl.org/dc/dcmitype/StillImage" />
        <dc:title></dc:title>
      </cc:Work>
    </rdf:RDF>
  </metadata>
  <g
     inkscape:label="圖層 1"
     inkscape:groupmode="layer"
     id="layer1"
     transform="translate(0,-161.53331)" />
  <g
     id="g4581"
     transform="translate(-2.1428566,-0.51429847)">
    <g
       transform="translate(0,-161.53331)"
       id="layer1-6"
       inkscape:label="圖層 1" />
    <path
       style="fill:#000000;stroke:none;stroke-width:1.20000005px;stroke-linecap:butt;stroke-linejoin:miter;stroke-opacity:1;fill-opacity:1"
       d="M 194.87996,120.94971 C 194.87996,120.94971 175.07661,127.28117 168.81802,134.88981 162.24117,142.88536 159.39197,154.24075 159.72665,164.5883 159.98502,172.57646 168.21194,187.01368 168.21194,187.01368 L 180.93986,205.19643 185.18249,243.38019 V 399.7518 L 173.66676,436.1173 C 173.66676,436.1173 185.24157,446.40117 188.81904,453.08787 191.47738,458.0566 193.06169,469.45233 193.06169,469.45233 193.06169,469.45233 203.66812,479.20184 209.42616,477.33153 215.10023,475.4885 217.57325,467.52944 217.91144,461.57314 218.15813,457.22827 212.51529,453.76862 213.0627,449.45131 213.53541,445.72317 219.72971,440.35993 219.72971,440.35993 L 275.49014,426.41983 334.28102,415.51019 H 397.92063 C 397.92063,415.51019 422.85526,412.86643 434.89221,415.51019 440.54279,416.75127 445.12197,424.48733 450.65058,422.78328 452.90212,422.0893 454.28714,416.72237 454.28714,416.72237 L 449.4384,396.72135 440.95312,387.62998 C 440.95312,387.62998 406.29808,368.85829 387.61707,370.05333 382.47679,370.38216 373.67697,376.72032 373.67697,376.72032 L 369.43432,384.59952 217.30535,413.69191 C 217.30535,413.69191 210.45517,411.66075 208.82007,408.84318 205.98074,403.95051 208.82006,391.87262 208.82006,391.87262 L 206.3957,290.04924 C 206.3957,290.04924 202.68062,242.64469 205.18352,219.13653 205.84243,212.94779 209.16727,207.17212 209.42616,200.95379 209.71497,194.01688 206.3957,180.34667 206.3957,180.34667 L 187.00077,149.436 186.39468,134.88981 Z"
       id="path4619"
       inkscape:connector-curvature="0"
       sodipodi:nodetypes="caacccccacaaaccccascccacccaccaacccc" />
    <path
       style="fill:#000000;stroke:none;stroke-width:1.20000005px;stroke-linecap:butt;stroke-linejoin:miter;stroke-opacity:1;fill-opacity:1"
       d="M 211.24443,100.34259 223.36626,92.463402 239.12464,100.94868 265.79267,94.887768 354.88812,73.674564 413.679,66.401466 425.19474,55.491818 471.86379,72.462382 498.53182,96.706043 510.04756,122.76798 497.92572,142.16291 494.28917,188.22586 497.92572,287.62487 494.28917,384.59952 491.86481,428.23811 470.65161,490.66553 460.34805,503.99955 C 460.34805,503.99955 449.73937,494.24318 448.83231,487.63507 447.43329,477.44294 459.13587,458.54268 459.13587,458.54268 459.13587,458.54268 460.63401,448.36586 459.74196,443.3904 458.81496,438.22004 453.68104,428.84419 453.68104,428.84419 L 440.34704,410.05536 C 440.34704,410.05536 458.09741,419.46735 465.19679,414.9041 473.93561,409.28705 472.46988,384.59952 472.46988,384.59952 V 337.32438 L 474.89424,280.95786 472.46988,210.65125 467.01506,143.37509 463.3785,125.19234 447.62013,106.40351 H 399.13281 L 347.00894,116.10097 277.30841,137.92026 247.60992,153.07255 231.85155,145.19337 208.21397,116.10097 Z"
       id="path4621"
       inkscape:connector-curvature="0"
       sodipodi:nodetypes="cccccccccccccccccacaccacccccccccccccc" />
    <path
       style="fill:#000000;stroke:none;stroke-width:1.20000005px;stroke-linecap:butt;stroke-linejoin:miter;stroke-opacity:1;fill-opacity:1"
       d="M 234.27591,234.89491 C 234.27591,234.89491 229.41504,242.0114 231.85155,243.98628 241.40988,251.73366 256.169,255.10759 256.70129,256.10812 259.1205,260.65543 270.6414,249.44111 270.6414,249.44111 L 288.21806,241.56192 334.8871,227.62181 362.16123,220.34872 390.64753,219.74263 C 390.64753,219.74263 409.83651,220.75709 412.46682,213.68171 414.75126,207.53672 401.55717,197.31724 401.55717,197.31724 L 391.25362,194.28678 359.73686,200.95379 325.18964,211.86343 270.03531,230.04618 254.27693,236.71319 Z"
       id="path4623"
       inkscape:connector-curvature="0"
       sodipodi:nodetypes="csscccccaccccccc" />
    <path
       style="fill:#000000;stroke:none;stroke-width:1.20000005px;stroke-linecap:butt;stroke-linejoin:miter;stroke-opacity:1;fill-opacity:1"
       d="M 233.66982,303.98934 C 227.98433,305.52854 223.97576,313.28239 224.57844,319.14163 225.30989,326.25268 235.19617,328.92765 239.12464,334.90002 240.21811,336.5624 239.70567,339.60566 241.54901,340.35484 246.58853,342.40303 251.73886,336.52239 256.70129,334.29393 260.41027,332.62835 263.78072,330.20292 267.61094,328.8391 278.9237,324.81098 302.76425,320.95991 302.76425,320.95991 L 343.97848,308.83807 383.37443,309.44417 403.98154,311.86853 C 403.98154,311.86853 401.00566,300.62712 396.70844,297.32233 387.22313,290.02764 373.50655,290.6385 361.55513,290.04924 344.3075,289.19886 310.03736,295.50406 310.03736,295.50406 L 259.12566,311.26245 C 259.12566,311.26245 254.89809,314.38439 252.45866,314.2929 245.32082,314.02519 240.56449,302.12279 233.66982,303.98934 Z"
       id="path4625"
       inkscape:connector-curvature="0"
       sodipodi:nodetypes="aaaaaaccccaaccaa" />
    <path
       style="fill:#000000;stroke:none;stroke-width:1.20000005px;stroke-linecap:butt;stroke-linejoin:miter;stroke-opacity:1;fill-opacity:1"
       d="M 328.82619,183.98322 C 323.06707,186.81451 318.22982,194.7153 319.73481,200.95378 320.48395,204.05908 327.61401,206.40861 327.61401,206.40861 327.61401,206.40861 335.3086,220.46435 336.0993,228.2279 337.32428,240.25549 330.03837,263.98731 330.03837,263.98731 L 320.3409,287.62487 C 320.3409,287.62487 304.42822,320.82538 294.27897,336.11219 286.09398,348.44043 266.39877,370.65941 266.39877,370.65941 266.39877,370.65941 294.48233,355.58363 306.40081,345.20357 314.39887,338.23788 321.49463,330.02046 327.00791,320.95991 336.42753,305.47966 347.61503,270.65431 347.61503,270.65431 L 356.1003,237.31927 359.73686,200.95379 347.00894,187.01368 C 347.00894,187.01368 334.34038,181.27235 328.82619,183.98322 Z"
       id="path4627"
       inkscape:connector-curvature="0"
       sodipodi:nodetypes="aacaccacaacccca" />
  </g>
</svg>
