<?xml version="1.0" encoding="UTF-8" standalone="no"?>
<!-- Created with Inkscape (http://www.inkscape.org/) -->

<svg
   xmlns:dc="http://purl.org/dc/elements/1.1/"
   xmlns:cc="http://creativecommons.org/ns#"
   xmlns:rdf="http://www.w3.org/1999/02/22-rdf-syntax-ns#"
   xmlns:svg="http://www.w3.org/2000/svg"
   xmlns="http://www.w3.org/2000/svg"
   xmlns:sodipodi="http://sodipodi.sourceforge.net/DTD/sodipodi-0.dtd"
   xmlns:inkscape="http://www.inkscape.org/namespaces/inkscape"
   width="512"
   height="512"
   viewBox="0 0 135.46666 135.46667"
   version="1.1"
   id="svg8"
   inkscape:version="0.92.4 (5da689c313, 2019-01-14)"
   sodipodi:docname="U+56E0.svg">
  <defs
     id="defs2" />
  <sodipodi:namedview
     id="base"
     pagecolor="#ffffff"
     bordercolor="#666666"
     borderopacity="1.0"
     inkscape:pageopacity="0.0"
     inkscape:pageshadow="2"
     inkscape:zoom="1.0717735"
     inkscape:cx="88.360974"
     inkscape:cy="373.39341"
     inkscape:document-units="px"
     inkscape:current-layer="layer2"
     showgrid="false"
     inkscape:window-width="1920"
     inkscape:window-height="1017"
     inkscape:window-x="-8"
     inkscape:window-y="-8"
     inkscape:window-maximized="1"
     units="px" />
  <metadata
     id="metadata5">
    <rdf:RDF>
      <cc:Work
         rdf:about="">
        <dc:format>image/svg+xml</dc:format>
        <dc:type
           rdf:resource="http://purl.org/dc/dcmitype/StillImage" />
        <dc:title></dc:title>
      </cc:Work>
    </rdf:RDF>
  </metadata>
  <g
     inkscape:groupmode="layer"
     id="layer2"
     inkscape:label="圖層 2"
     transform="translate(0,-161.53331)">
    <path
       style="fill:#000000;fill-opacity:1;stroke:none;stroke-width:0.26458332px;stroke-linecap:butt;stroke-linejoin:miter;stroke-opacity:1"
       d="M 42.707643,188.62628 C 42.707643,188.62628 36.782884,189.61373 36.289153,193.06984 35.795422,196.52595 36.536017,199.7352 37.523477,201.71012 38.510939,203.68504 40.732722,205.16623 40.732722,208.62234 40.732722,212.07845 41.720184,235.77749 41.720184,237.25867 41.720184,238.73986 41.720184,246.88641 41.226453,249.84879 40.732722,252.81117 40.238993,252.81117 39.992126,254.29236 39.745262,255.77355 38.017208,257.25474 39.498398,258.73593 40.979588,260.21712 42.213912,261.45144 42.460776,262.4389 42.707643,263.42636 43.941967,265.64815 45.176293,266.38874 46.410616,267.12934 47.891807,265.64815 47.891807,264.16696 47.891807,262.68577 46.410616,258.98279 46.410616,256.26728 46.410616,253.55176 47.151212,248.3676 47.151212,248.3676 L 45.670021,216.27515 C 45.670021,216.27515 46.163752,206.89428 46.410616,205.41309 46.657483,203.9319 46.657483,203.19131 45.176293,200.72266 43.695102,198.25401 39.745262,191.83552 42.707643,188.62628 Z"
       id="path827"
       inkscape:connector-curvature="0" />
    <path
       style="fill:#000000;fill-opacity:1;stroke:none;stroke-width:0.26458332px;stroke-linecap:butt;stroke-linejoin:miter;stroke-opacity:1"
       d="M 46.657483,184.67644 C 46.657483,184.67644 48.879266,181.46719 50.607321,181.96092 52.335375,182.45465 53.07597,183.19524 57.766406,181.96092 62.456841,180.7266 87.14334,175.7893 87.14334,175.7893 L 92.57437,173.81437 C 92.57437,173.81437 94.05556,172.33318 96.27734,173.07378 98.49913,173.81437 105.41135,177.27049 108.37373,180.7266 111.33611,184.1827 113.31102,186.65135 113.06416,187.88568 112.8173,189.12 110.34865,189.12 110.34865,191.34179 110.34865,193.56357 109.60805,206.64742 110.10178,210.10353 110.59551,213.55964 111.33611,232.56824 110.59551,237.50554 109.85492,242.44284 108.62059,257.74847 107.63313,260.46398 106.64567,263.1795 103.43643,272.80723 102.44897,272.3135 101.46151,271.81977 98.74599,269.35112 99.48659,266.63561 100.22718,263.92009 101.70837,254.29236 102.44897,251.08311 103.18956,247.87387 105.41135,225.65602 105.16448,221.95305 104.91762,218.25007 103.43643,191.34179 102.9427,189.61373 102.44897,187.88568 100.22718,184.67644 98.0054,184.42957 95.78361,184.1827 83.68723,184.67644 81.95917,185.17016 80.23112,185.66389 65.17236,190.35433 65.17236,190.35433 L 58.01327,193.56357 C 58.01327,193.56357 55.050892,196.27909 52.335375,193.31671 49.619861,190.35433 43.695102,185.91076 46.657483,184.67644 Z"
       id="path829"
       inkscape:connector-curvature="0" />
    <path
       style="fill:#000000;fill-opacity:1;stroke:none;stroke-width:0.26458332px;stroke-linecap:butt;stroke-linejoin:miter;stroke-opacity:1"
       d="M 51.59478,213.8065 C 51.59478,213.8065 49.619861,212.81904 55.050892,212.07845 60.48192,211.33785 66.90041,207.88174 70.10965,207.63488 73.3189,207.38801 82.20604,204.42563 82.20604,204.42563 82.20604,204.42563 82.94663,202.94444 85.90901,203.9319 88.87139,204.91936 89.85885,206.40055 90.84631,206.64742 91.83377,206.89428 90.35258,209.11607 87.63707,209.36293 84.92155,209.6098 74.80009,210.84412 71.83771,211.83158 68.87533,212.81904 59.49446,216.27515 59.49446,216.27515 59.49446,216.27515 57.025811,218.00321 54.557161,216.52202 52.088511,215.04083 51.59478,215.53456 51.59478,213.8065 Z"
       id="path831"
       inkscape:connector-curvature="0" />
    <path
       style="fill:#000000;fill-opacity:1;stroke:none;stroke-width:0.26458332px;stroke-linecap:butt;stroke-linejoin:miter;stroke-opacity:1"
       d="M 70.60339,205.16623 C 70.60339,205.16623 69.86279,203.19131 72.33144,202.20385 74.80009,201.21639 73.56576,200.96952 75.29382,201.71012 77.02187,202.45071 81.21858,202.20385 78.99679,212.81904 76.77501,223.43424 74.30636,229.60586 70.10965,234.54316 65.91295,239.48046 62.456841,242.44284 60.235056,243.67716 58.01327,244.91149 55.791487,244.91149 59.988191,240.96165 64.1849,237.01181 69.36906,229.11213 70.10965,227.13721 70.85025,225.16229 74.30636,214.5471 74.30636,213.55964 74.30636,212.57218 75.54069,208.12861 70.60339,205.16623 Z"
       id="path833"
       inkscape:connector-curvature="0" />
    <path
       style="fill:#000000;fill-opacity:1;stroke:none;stroke-width:0.26458332px;stroke-linecap:butt;stroke-linejoin:miter;stroke-opacity:1"
       d="M 51.841647,232.56824 C 51.841647,232.56824 49.126133,228.6184 52.088511,229.11213 55.050892,229.60586 56.285215,229.60586 59.000729,228.86526 61.716246,228.12467 72.33144,224.66856 77.02187,224.66856 81.71231,224.66856 87.63707,225.90289 88.87139,227.87781 90.10572,229.85272 91.83377,229.11213 85.66215,229.359 79.49052,229.60586 76.77501,229.11213 69.61592,230.84019 62.456841,232.56824 61.222515,231.58078 59.000729,233.30884 56.778946,235.03689 56.53208,236.76494 54.804025,236.27121 53.07597,235.77749 52.335375,234.04943 51.841647,232.56824 Z"
       id="path835"
       inkscape:connector-curvature="0" />
    <path
       style="fill:#000000;fill-opacity:1;stroke:none;stroke-width:0.26458332px;stroke-linecap:butt;stroke-linejoin:miter;stroke-opacity:1"
       d="M 43.201371,254.78609 C 43.201371,254.78609 40.485857,253.05803 52.088511,251.08311 63.691165,249.10819 80.72485,245.65208 80.72485,245.65208 80.72485,245.65208 80.97171,243.4303 82.69977,242.93657 84.42782,242.44284 87.3902,243.18343 89.36512,243.67716 91.34004,244.17089 98.25226,245.40522 99.23972,247.13327 100.22718,248.86133 101.95524,253.55176 100.96778,253.55176 99.98032,253.55176 95.78361,253.05803 93.56183,252.81117 91.34004,252.5643 77.5156,252.07057 71.83771,253.05803 66.15981,254.04549 54.557161,256.51414 52.335375,257.5016 50.113592,258.48906 46.410616,261.45144 44.682562,259.97025 42.954507,258.48906 40.732722,255.77355 43.201371,254.78609 Z"
       id="path837"
       inkscape:connector-curvature="0" />
  </g>
</svg>
