<?xml version="1.0" encoding="UTF-8" standalone="no"?>
<!-- Created with Inkscape (http://www.inkscape.org/) -->

<svg
   xmlns:dc="http://purl.org/dc/elements/1.1/"
   xmlns:cc="http://creativecommons.org/ns#"
   xmlns:rdf="http://www.w3.org/1999/02/22-rdf-syntax-ns#"
   xmlns:svg="http://www.w3.org/2000/svg"
   xmlns="http://www.w3.org/2000/svg"
   xmlns:sodipodi="http://sodipodi.sourceforge.net/DTD/sodipodi-0.dtd"
   xmlns:inkscape="http://www.inkscape.org/namespaces/inkscape"
   width="512"
   height="512"
   viewBox="0 0 135.46666 135.46666"
   version="1.1"
   id="svg8"
   sodipodi:docname="U+5802.svg"
   inkscape:version="0.92.4 (5da689c313, 2019-01-14)">
  <defs
     id="defs2" />
  <sodipodi:namedview
     id="base"
     pagecolor="#ffffff"
     bordercolor="#666666"
     borderopacity="1.0"
     inkscape:pageopacity="0.0"
     inkscape:pageshadow="2"
     inkscape:zoom="1.979899"
     inkscape:cx="177.71259"
     inkscape:cy="252.80816"
     inkscape:document-units="px"
     inkscape:current-layer="g839"
     showgrid="false"
     units="px"
     inkscape:window-width="1920"
     inkscape:window-height="1017"
     inkscape:window-x="-8"
     inkscape:window-y="-8"
     inkscape:window-maximized="1" />
  <metadata
     id="metadata5">
    <rdf:RDF>
      <cc:Work
         rdf:about="">
        <dc:format>image/svg+xml</dc:format>
        <dc:type
           rdf:resource="http://purl.org/dc/dcmitype/StillImage" />
        <dc:title></dc:title>
      </cc:Work>
    </rdf:RDF>
  </metadata>
  <g
     inkscape:label="圖層 1"
     inkscape:groupmode="layer"
     id="layer1"
     transform="translate(-0.26726951,-162.06787)">
    <g
       id="g839"
       transform="translate(0.38914996,161.68338)">
      <g
         transform="translate(0,-161.53333)"
         id="layer1-1"
         inkscape:label="圖層 1" />
      <path
         style="fill:#000000;stroke:none;stroke-width:0.26458332px;stroke-linecap:butt;stroke-linejoin:miter;stroke-opacity:1;fill-opacity:1"
         d="M 27.807784,39.500491 28.475957,44.845881 31.148653,50.592175 C 31.148653,50.592175 33.166544,56.05003 33.01954,58.877531 32.846203,62.21152 29.812306,68.365597 29.812306,68.365597 L 27.406879,69.568311 27.005974,73.443718 29.277766,76.918221 32.084096,77.586394 34.088618,75.314605 39.300373,55.135756 38.231295,51.126713 Z"
         id="path878"
         inkscape:connector-curvature="0"
         sodipodi:nodetypes="cccaccccccccc" />
      <path
         style="fill:#000000;stroke:none;stroke-width:0.26458332px;stroke-linecap:butt;stroke-linejoin:miter;stroke-opacity:1;fill-opacity:1"
         d="M 40.903991,41.505011 39.166737,45.64769 42.908511,51.126713 C 42.908511,51.126713 46.123172,53.822553 47.585728,52.9976 50.706175,51.237515 54.269459,50.052651 54.267465,50.057635 L 69.100924,47.65221 91.551562,44.845881 113.6013,44.177707 115.87309,46.315863 113.20039,53.264869 112.53222,54.601219 120.5503,53.799409 129.3702,48.988557 130.03837,46.182228 121.61938,38.297777 115.47219,36.694161 111.46314,40.435933 94.625163,41.237742 72.040889,43.108629 58.543777,43.776803 47.986633,44.31134 Z"
         id="path880"
         inkscape:connector-curvature="0"
         sodipodi:nodetypes="cccscccccccccccccccccc" />
      <path
         style="fill:#000000;fill-opacity:1;stroke:none;stroke-width:0.26458332px;stroke-linecap:butt;stroke-linejoin:miter;stroke-opacity:1"
         d="M 64.557343,13.708982 62.285551,18.118929 64.690976,20.12345 C 64.690976,20.12345 67.679818,19.754039 68.833655,20.524354 69.463462,20.94482 69.902733,22.528876 69.902733,22.528876 L 69.368193,31.883309 66.428228,45.380418 68.165482,46.315863 72.174522,42.974994 73.2436,34.689638 74.713583,23.865223 78.188088,21.459798 76.851739,17.183486 68.833655,13.708982 Z"
         id="path882"
         inkscape:connector-curvature="0"
         sodipodi:nodetypes="cccaccccccccccc" />
      <path
         style="fill:#000000;stroke:none;stroke-width:0.26458332px;stroke-linecap:butt;stroke-linejoin:miter;stroke-opacity:1;fill-opacity:1"
         d="M 89.547042,15.713503 87.943423,19.455276 89.012501,22.127972 C 89.012501,22.127972 85.284394,30.978907 82.330765,34.689638 80.934577,36.44371 77.252643,39.099586 77.252643,39.099586 77.252643,39.099586 85.691586,37.391351 89.413406,35.357812 93.047143,33.3724 98.901475,27.339728 98.901475,27.339728 L 100.37146,24.266128 97.832397,19.188007 93.021545,16.782581 Z"
         id="path884"
         inkscape:connector-curvature="0"
         sodipodi:nodetypes="cccacaccccc" />
      <path
         style="fill:#000000;stroke:none;stroke-width:0.26458332px;stroke-linecap:butt;stroke-linejoin:miter;stroke-opacity:1;fill-opacity:1"
         d="M 45.447572,20.925259 43.042147,23.330684 C 43.042147,23.330684 41.270357,26.940656 41.839433,28.676075 42.685537,31.256304 47.986633,34.021465 47.986633,34.021465 L 58.811048,37.362335 C 58.811048,37.362335 51.278575,32.123302 49.055711,28.27517 48.461178,27.245939 48.253901,24.800667 48.253901,24.800667 Z"
         id="path886"
         inkscape:connector-curvature="0"
         sodipodi:nodetypes="ccaccacc" />
      <path
         style="fill:#000000;stroke:none;stroke-width:0.26458332px;stroke-linecap:butt;stroke-linejoin:miter;stroke-opacity:1;fill-opacity:1"
         d="M 50.124789,57.942086 55.069274,63.287476 59.211953,78.655475 60.949204,81.729073 64.156438,82.397247 65.492785,78.789108 76.450834,75.18097 89.279773,73.710987 90.348851,71.305562 C 90.467108,71.140002 87.495248,69.134437 85.27073,69.434675 84.857142,69.490496 87.557315,64.781227 87.007981,64.891094 L 92.754276,61.015687 94.224258,56.605739 89.413406,52.195791 85.805267,50.45854 81.528955,53.398505 69.501828,56.204834 64.290072,54.200314 64.557343,57.808453 68.165482,63.421111 71.105444,64.356554 C 71.105444,64.356554 76.932482,61.464167 80.058973,61.550224 80.819869,61.571168 82.197129,62.352033 82.197129,62.352033 L 79.791704,69.568311 64.423707,73.443718 62.953725,71.572831 62.419187,64.089285 60.281031,61.282955 53.064754,58.209357 Z"
         id="path888"
         inkscape:connector-curvature="0"
         sodipodi:nodetypes="cccccccccscccccccccccacccccccc" />
      <path
         style="fill:#000000;fill-opacity:1;stroke:none;stroke-width:0.26458332px;stroke-linecap:butt;stroke-linejoin:miter;stroke-opacity:1"
         d="M 54.401101,91.21714 52.663849,94.825278 53.465658,98.032512 54.668369,100.43794 57.073794,102.17519 69.902733,96.161628 71.105444,98.567053 70.303638,107.25331 70.570907,108.32239 52.530213,110.72782 48.922075,112.86597 46.115745,111.93053 45.180303,115.53867 49.189344,121.55223 53.198387,121.8195 C 55.222011,121.09406 56.392197,119.9419 57.74197,118.87953 57.74197,118.87953 58.014315,116.50489 58.944682,116.20684 63.855606,114.63358 73.2436,114.06869 73.2436,114.06869 L 88.077059,112.73234 C 88.077059,112.73234 90.391863,113.01364 91.551564,113.13324 93.019821,113.28466 95.96151,113.53414 95.96151,113.53414 L 101.57417,114.73686 102.91052,111.66326 100.10419,106.18423 93.823354,105.24879 80.192609,107.78785 78.722626,94.290741 92.353371,90.548966 93.689718,87.341732 88.210695,84.669039 80.326244,86.673559 79.791704,85.069943 C 79.791704,85.069943 71.689572,81.264774 67.363672,81.328169 66.236886,81.344682 64.156438,82.397247 64.156438,82.397247 L 68.031846,85.604481 69.23456,90.281697 58.009239,94.023472 Z"
         id="path890"
         inkscape:connector-curvature="0"
         sodipodi:nodetypes="ccccccccccccccccsccaccccccccccccaccccc" />
    </g>
  </g>
</svg>
