<?xml version="1.0" encoding="UTF-8" standalone="no"?>
<!-- Created with Inkscape (http://www.inkscape.org/) -->

<svg
   xmlns:dc="http://purl.org/dc/elements/1.1/"
   xmlns:cc="http://creativecommons.org/ns#"
   xmlns:rdf="http://www.w3.org/1999/02/22-rdf-syntax-ns#"
   xmlns:svg="http://www.w3.org/2000/svg"
   xmlns="http://www.w3.org/2000/svg"
   xmlns:sodipodi="http://sodipodi.sourceforge.net/DTD/sodipodi-0.dtd"
   xmlns:inkscape="http://www.inkscape.org/namespaces/inkscape"
   width="512"
   height="512"
   viewBox="0 0 135.46666 135.46667"
   version="1.1"
   id="svg8"
   inkscape:version="0.92.4 (5da689c313, 2019-01-14)"
   sodipodi:docname="U+5802.svg">
  <defs
     id="defs2" />
  <sodipodi:namedview
     id="base"
     pagecolor="#ffffff"
     bordercolor="#666666"
     borderopacity="1.0"
     inkscape:pageopacity="0.0"
     inkscape:pageshadow="2"
     inkscape:zoom="1.0761588"
     inkscape:cx="369.7781"
     inkscape:cy="413.74097"
     inkscape:document-units="px"
     inkscape:current-layer="layer2"
     showgrid="false"
     inkscape:window-width="1920"
     inkscape:window-height="1017"
     inkscape:window-x="-8"
     inkscape:window-y="-8"
     inkscape:window-maximized="1"
     units="px" />
  <metadata
     id="metadata5">
    <rdf:RDF>
      <cc:Work
         rdf:about="">
        <dc:format>image/svg+xml</dc:format>
        <dc:type
           rdf:resource="http://purl.org/dc/dcmitype/StillImage" />
        <dc:title></dc:title>
      </cc:Work>
    </rdf:RDF>
  </metadata>
  <g
     inkscape:groupmode="layer"
     id="layer2"
     inkscape:label="圖層 2"
     style="display:inline"
     transform="translate(0,-161.53332)">
    <path
       style="fill:#000000;fill-opacity:1;stroke:none;stroke-width:0.26458332px;stroke-linecap:butt;stroke-linejoin:miter;stroke-opacity:1"
       d="M 43.846542,186.15822 C 43.846542,186.15822 40.543418,184.94128 45.23733,184.07203 49.931242,183.20279 50.278939,184.24588 51.495879,182.8551 52.71282,181.46431 52.71282,180.59506 53.408213,183.37664 54.103607,186.15822 56.537488,193.63371 56.537488,197.45838 56.537488,201.28304 57.232882,208.75853 55.842094,205.45541 54.451304,202.15229 44.889633,185.81052 43.846542,186.15822 Z"
       id="path3725"
       inkscape:connector-curvature="0" />
    <path
       style="fill:#000000;fill-opacity:1;stroke:none;stroke-width:0.26458332px;stroke-linecap:butt;stroke-linejoin:miter;stroke-opacity:1"
       d="M 68.359192,181.812 C 68.359192,181.812 62.796042,180.59506 63.317582,178.16118 63.839132,175.7273 66.446852,173.81497 68.011492,174.51036 69.576132,175.20576 74.791592,177.98733 76.008532,177.98733 77.225472,177.98733 77.399322,179.55197 78.268562,180.94276 79.137802,182.33355 76.877772,184.07203 76.008532,184.76743 75.139282,185.46282 74.791592,185.28897 74.791592,187.20131 74.791592,189.11364 73.053102,203.19538 72.357712,204.41232 71.662312,205.62926 70.445372,209.28008 69.576132,207.88929 68.706892,206.4985 66.446852,205.62926 67.663792,201.97844 68.880742,198.32762 69.923832,185.81052 69.749982,184.41973 69.576132,183.02894 68.706892,181.46431 68.359192,181.812 Z"
       id="path3727"
       inkscape:connector-curvature="0" />
    <path
       style="fill:#000000;fill-opacity:1;stroke:none;stroke-width:0.26458332px;stroke-linecap:butt;stroke-linejoin:miter;stroke-opacity:1"
       d="M 89.916412,177.29194 C 89.394872,177.98733 88.351772,179.37812 88.699472,180.94276 89.047172,182.5074 88.351772,184.41973 87.830232,186.15822 87.308682,187.8967 79.659352,198.67531 77.920862,200.4138 76.182382,202.15229 77.225472,200.93535 77.225472,200.93535 77.225472,200.93535 87.656382,198.15377 89.394872,196.76298 91.133352,195.37219 100.52118,188.2444 100.69502,186.50591 100.86887,184.76743 98.956542,181.11661 97.391902,180.07352 95.827262,179.03042 90.959502,176.77039 89.916412,177.29194 Z"
       id="path3729"
       inkscape:connector-curvature="0" />
    <path
       style="fill:#000000;fill-opacity:1;stroke:none;stroke-width:0.26458332px;stroke-linecap:butt;stroke-linejoin:miter;stroke-opacity:1"
       d="M 29.938656,201.28304 C 29.938656,201.28304 26.809381,197.45838 27.678625,201.80459 28.547869,206.1508 31.677141,211.19241 32.02484,212.40935 32.372537,213.62629 33.763325,219.0156 33.241778,220.75408 32.720234,222.49257 30.981747,228.92497 30.460203,229.44651 29.938656,229.96806 28.200172,229.44651 28.200172,231.185 28.200172,232.92349 27.157078,233.79273 28.895565,235.87891 30.63405,237.96509 31.329444,239.52973 32.372537,238.13894 33.415628,236.74815 36.197205,231.53269 36.023356,230.66345 35.849509,229.79421 34.111021,229.96806 35.327962,227.18648 36.544902,224.4049 40.369571,217.45096 39.500327,215.19093 38.631084,212.9309 33.589477,204.23847 29.938656,201.28304 Z"
       id="path3731"
       inkscape:connector-curvature="0" />
    <path
       style="fill:#000000;fill-opacity:1;stroke:none;stroke-width:0.26458332px;stroke-linecap:butt;stroke-linejoin:miter;stroke-opacity:1"
       d="M 42.281905,211.19241 C 42.281905,211.19241 38.978781,206.67235 39.32648,205.28156 39.674177,203.89077 40.369571,202.67383 41.760358,203.19538 43.151149,203.71693 46.801967,205.80311 49.061998,205.62926 51.32203,205.45541 81.571682,203.36923 81.571682,203.36923 L 108.69206,201.80459 C 108.69206,201.80459 112.51673,202.32614 113.03828,201.28304 113.55982,200.23995 114.25522,196.93683 115.9937,197.45838 117.73219,197.97992 125.20768,200.4138 126.42461,201.63074 127.64156,202.84768 131.46622,207.54159 130.94468,209.10623 130.42313,210.67087 121.38301,215.36478 120.51376,215.71248 119.64452,216.06017 116.3414,214.66938 115.12446,215.36478 113.90752,216.06017 111.64749,215.01708 111.64749,215.01708 111.64749,215.01708 113.55982,215.36478 114.25522,214.14784 114.95061,212.9309 117.03679,209.10623 116.51525,207.71544 115.9937,206.32465 113.21212,204.76002 111.82133,204.93387 110.43055,205.10771 76.182382,207.71544 72.879252,208.41084 69.576132,209.10623 53.060517,211.71396 50.800486,212.75705 48.540454,213.80014 43.672693,215.53863 42.281905,211.19241 Z"
       id="path3733"
       inkscape:connector-curvature="0" />
    <path
       style="fill:#000000;fill-opacity:1;stroke:none;stroke-width:0.26458332px;stroke-linecap:butt;stroke-linejoin:miter;stroke-opacity:1"
       d="M 51.669729,220.40639 C 51.669729,220.40639 50.278939,218.84175 51.495879,218.6679 52.71282,218.49405 60.01446,221.27563 60.709853,222.14487 61.405247,223.01411 63.317582,225.62184 63.665282,228.05572 64.012982,230.4896 64.360672,235.35736 64.708372,236.22661 65.056072,237.09585 66.446852,238.48664 65.577612,240.92052 64.708372,243.3544 64.360672,243.52825 64.360672,243.52825 64.360672,243.52825 63.143732,243.3544 62.100644,242.659 61.05755,241.96361 58.797519,235.70506 58.797519,234.66197 58.797519,233.61888 54.451304,221.62333 51.669729,220.40639 Z"
       id="path3735"
       inkscape:connector-curvature="0" />
    <path
       style="fill:#000000;fill-opacity:1;stroke:none;stroke-width:0.26458332px;stroke-linecap:butt;stroke-linejoin:miter;stroke-opacity:1"
       d="M 65.056072,215.88632 C 65.056072,215.88632 64.186822,219.71099 65.229912,220.92793 66.273012,222.14487 68.359192,225.79569 69.228432,225.1003 70.097682,224.4049 71.488462,225.62184 72.357712,225.1003 73.226952,224.57875 78.442412,222.49257 79.659352,222.66642 80.876292,222.84027 83.310172,221.97102 82.614772,223.70951 81.919382,225.448 80.007042,229.44651 80.007042,230.8373 80.007042,232.22809 80.354742,233.27118 80.876292,234.14042 81.397832,235.00967 81.919382,235.70506 83.136322,234.66197 84.353262,233.61888 85.396352,231.01115 85.917902,229.79421 86.439442,228.57727 91.307202,222.31872 92.350292,221.62333 93.393382,220.92793 94.262632,218.6679 94.262632,218.6679 94.262632,218.6679 94.784172,217.10326 93.567232,216.06017 92.350292,215.01708 87.830232,212.75705 87.482532,211.88781 87.134842,211.01856 83.657862,211.54011 82.788622,212.5832 81.919382,213.62629 78.268562,215.88632 76.356222,216.23402 74.443892,216.58172 65.403762,217.27711 65.056072,215.88632 Z"
       id="path3737"
       inkscape:connector-curvature="0" />
    <path
       style="fill:#000000;fill-opacity:1;stroke:none;stroke-width:0.26458332px;stroke-linecap:butt;stroke-linejoin:miter;stroke-opacity:1"
       d="M 61.2314,237.09585 C 61.2314,237.09585 59.319066,235.35736 65.751462,233.79273 72.183862,232.22809 79.137802,230.4896 80.180892,230.31575 81.223982,230.14191 84.353262,229.79421 85.917902,230.31575 87.482532,230.8373 88.873322,230.66345 89.742562,232.05424 90.611812,233.44503 92.002602,233.79273 90.090262,234.31427 88.177932,234.83582 73.574652,237.09585 72.183862,237.61739 70.793072,238.13894 65.403762,239.52973 64.882222,239.70358 64.360672,239.87743 60.883703,239.52973 61.2314,237.09585 Z"
       id="path3739"
       inkscape:connector-curvature="0" />
    <path
       style="fill:#000000;fill-opacity:1;stroke:none;stroke-width:0.26458332px;stroke-linecap:butt;stroke-linejoin:miter;stroke-opacity:1"
       d="M 54.277457,252.74222 C 54.277457,252.74222 55.494397,252.04683 56.537488,253.08992 57.580579,254.13301 56.885185,254.30686 58.623672,253.78531 60.362157,253.26377 78.442412,248.56986 78.442412,248.56986 L 87.656382,245.78828 C 87.656382,245.78828 88.177932,245.78828 89.742562,246.48367 91.307202,247.17907 94.262632,248.04831 93.567232,249.61295 92.871842,251.17758 85.222502,252.74222 85.222502,252.74222 L 73.922342,255.69765 66.620702,258.30538 59.145216,261.78235 C 59.145216,261.78235 57.059035,265.25932 54.972851,260.73925 52.886667,256.21919 51.843576,255.1761 54.277457,252.74222 Z"
       id="path3741"
       inkscape:connector-curvature="0" />
    <path
       style="fill:#000000;fill-opacity:1;stroke:none;stroke-width:0.26458332px;stroke-linecap:butt;stroke-linejoin:miter;stroke-opacity:1"
       d="M 68.359192,242.48516 C 68.359192,242.48516 78.094712,244.04979 79.137802,245.61443 80.180892,247.17907 79.659352,246.13597 79.833192,249.96064 80.007042,253.78531 80.007042,270.47478 80.007042,270.47478 80.007042,270.47478 80.354742,272.90866 77.920862,273.60405 75.486982,274.29944 70.793072,271.69172 70.966922,269.43169 71.140772,267.17165 71.314622,254.30686 70.793072,253.26377 70.271522,252.22067 70.271522,249.4391 69.054582,247.70061 67.837642,245.96213 68.359182,244.74519 64.360672,243.52825 60.362157,242.31131 68.359192,242.48516 68.359192,242.48516 Z"
       id="path3743"
       inkscape:connector-curvature="0" />
    <path
       style="fill:#000000;fill-opacity:1;stroke:none;stroke-width:0.26458332px;stroke-linecap:butt;stroke-linejoin:miter;stroke-opacity:1"
       d="M 45.585027,276.90717 C 45.585027,276.90717 45.41118,272.90866 46.62812,272.90866 47.845061,272.90866 47.497361,274.1256 49.583545,273.4302 51.669729,272.73481 86.265592,266.9978 88.177932,266.82396 90.090262,266.65011 92.350292,267.3455 93.219542,266.65011 94.088782,265.95471 96.174962,265.78086 98.956542,267.17165 101.73812,268.56244 103.30275,270.99632 103.4766,273.60405 103.65045,276.21178 103.8243,277.25487 101.21657,276.55948 98.608842,275.86408 91.481052,273.95175 87.656382,274.1256 83.831712,274.29944 62.274492,277.08102 62.274492,277.08102 62.274492,277.08102 60.01446,277.08102 59.145216,277.95027 58.275973,278.81951 55.494397,281.77493 53.582063,282.47033 51.669729,283.16572 49.409695,282.99187 48.192757,280.90569 46.975817,278.81951 45.585027,276.90717 45.585027,276.90717 Z"
       id="path3745"
       inkscape:connector-curvature="0" />
  </g>
</svg>
