<?xml version="1.0" encoding="UTF-8" standalone="no"?>
<!-- Created with Inkscape (http://www.inkscape.org/) -->

<svg
   xmlns:dc="http://purl.org/dc/elements/1.1/"
   xmlns:cc="http://creativecommons.org/ns#"
   xmlns:rdf="http://www.w3.org/1999/02/22-rdf-syntax-ns#"
   xmlns:svg="http://www.w3.org/2000/svg"
   xmlns="http://www.w3.org/2000/svg"
   xmlns:sodipodi="http://sodipodi.sourceforge.net/DTD/sodipodi-0.dtd"
   xmlns:inkscape="http://www.inkscape.org/namespaces/inkscape"
   width="512"
   height="512"
   viewBox="0 0 135.46666 135.46667"
   version="1.1"
   id="svg8"
   inkscape:version="0.92.4 (5da689c313, 2019-01-14)"
   sodipodi:docname="U+5BF6.svg">
  <defs
     id="defs2" />
  <sodipodi:namedview
     id="base"
     pagecolor="#ffffff"
     bordercolor="#666666"
     borderopacity="1.0"
     inkscape:pageopacity="0.0"
     inkscape:pageshadow="2"
     inkscape:zoom="1.4142136"
     inkscape:cx="380.6044"
     inkscape:cy="227.7405"
     inkscape:document-units="px"
     inkscape:current-layer="layer9"
     showgrid="false"
     units="px"
     inkscape:window-width="1920"
     inkscape:window-height="1017"
     inkscape:window-x="-8"
     inkscape:window-y="-8"
     inkscape:window-maximized="1" />
  <metadata
     id="metadata5">
    <rdf:RDF>
      <cc:Work
         rdf:about="">
        <dc:format>image/svg+xml</dc:format>
        <dc:type
           rdf:resource="http://purl.org/dc/dcmitype/StillImage" />
        <dc:title></dc:title>
      </cc:Work>
    </rdf:RDF>
  </metadata>
  <g
     inkscape:groupmode="layer"
     id="layer9"
     inkscape:label="Layer 2">
    <path
       style="fill:#000000;stroke:none;stroke-width:0.26458332px;stroke-linecap:butt;stroke-linejoin:miter;stroke-opacity:1;fill-opacity:1"
       d="M 27.127856,10.117261 C 27.127856,10.117261 27.314945,14.420301 27.876211,15.355744 28.437477,16.291187 32.366339,23.400556 32.179249,24.336 31.992162,25.271443 28.250388,37.993473 25.818235,38.928915 23.386083,39.864358 20.392664,41.548158 20.392664,41.548158 20.392664,41.548158 24.508615,49.031704 26.192413,49.405881 27.876211,49.780057 28.998743,50.528413 29.560009,49.780057 30.121275,49.031704 41.720772,23.961823 41.720772,23.961823 41.720772,23.961823 41.533683,19.471695 39.288619,17.413719 37.043555,15.355744 27.127856,10.117261 27.127856,10.117261 Z"
       id="path828"
       inkscape:connector-curvature="0" />
    <path
       style="fill:#000000;stroke:none;stroke-width:0.26458332px;stroke-linecap:butt;stroke-linejoin:miter;stroke-opacity:1;fill-opacity:1"
       d="M 40.224061,13.859035 C 40.224061,13.859035 42.843304,22.278025 45.649633,21.903847 48.455963,21.52967 79.419137,13.017136 87.370406,11.707515 95.321674,10.397894 115.15307,7.8721976 115.80788,8.0592863 116.46269,8.2463747 118.89485,8.9011851 118.89485,8.9011851 118.89485,8.9011851 111.97256,15.449288 110.10168,15.729921 108.23079,16.010554 117.67877,18.72334 119.54965,18.536251 121.42054,18.349163 132.36523,17.226631 131.89751,12.268781 131.42978,7.3109316 118.05295,1.9789047 118.05295,1.9789047 118.05295,1.9789047 111.13067,5.2529562 110.10168,5.4400449 109.07269,5.6271337 48.268874,15.168655 46.959255,15.168655 45.649633,15.168655 39.475708,13.952579 40.224061,13.859035 Z"
       id="path830"
       inkscape:connector-curvature="0" />
    <path
       style="fill:#000000;stroke:none;stroke-width:0.26458332px;stroke-linecap:butt;stroke-linejoin:miter;stroke-opacity:1;fill-opacity:1"
       d="M 56.407232,3.0078923 C 56.407232,3.0078923 56.500775,5.8142221 57.90394,6.5625768 59.307105,7.3109316 62.39407,11.801059 61.177992,14.046123 59.961917,16.291187 74.74192,12.736503 75.677365,11.426882 76.612807,10.117261 76.706351,5.5335892 74.648377,3.8497912 72.5904,2.1659933 65.481032,0.10801804 64.171411,0.10801804 62.86179,0.10801804 58.278119,-0.07907062 56.407232,3.0078923 Z"
       id="path832"
       inkscape:connector-curvature="0" />
    <path
       style="fill:#000000;stroke:none;stroke-width:0.26458332px;stroke-linecap:butt;stroke-linejoin:miter;stroke-opacity:1;fill-opacity:1"
       d="M 42.188492,30.042204 C 42.188492,33.035623 44.901278,35.093597 46.210899,35.280687 47.520521,35.467776 59.961917,28.919672 60.803816,28.826129 61.645715,28.732583 56.781408,24.523089 55.845966,24.803721 54.910521,25.084354 45.462544,30.322837 44.527102,30.322837 43.591659,30.322837 42.188492,30.042204 42.188492,30.042204 Z"
       id="path834"
       inkscape:connector-curvature="0" />
    <path
       style="fill:#000000;stroke:none;stroke-width:0.26458332px;stroke-linecap:butt;stroke-linejoin:miter;stroke-opacity:1;fill-opacity:1"
       d="M 46.865709,31.726002 C 48.435126,29.755957 54.48919,28.040257 54.162168,29.761571 53.813988,31.594253 47.999714,59.287424 48.081787,62.221453 48.167827,65.297277 45.275457,61.379554 45.930266,56.608794 46.585076,51.838034 46.651823,43.362873 46.865709,31.726002 Z"
       id="path836"
       inkscape:connector-curvature="0"
       sodipodi:nodetypes="csssc" />
    <path
       style="fill:#000000;stroke:none;stroke-width:0.26458332px;stroke-linecap:butt;stroke-linejoin:miter;stroke-opacity:1;fill-opacity:1"
       d="M 36.388746,51.650944 C 36.388746,51.650944 52.94609,41.080435 55.658876,45.009297 58.371663,48.938158 59.026472,50.154236 57.062041,50.996135 55.097611,51.838034 36.388746,51.650944 36.388746,51.650944 Z"
       id="path838"
       inkscape:connector-curvature="0" />
    <path
       style="fill:#000000;stroke:none;stroke-width:0.26458332px;stroke-linecap:butt;stroke-linejoin:miter;stroke-opacity:1;fill-opacity:1"
       d="M 35.733934,60.257022 C 36.04252,61.64566 46.581346,64.449725 46.959255,65.682595 47.584411,67.72207 51.542926,64.27943 50.98166,61.098921 50.420394,57.918415 48.455963,55.860439 47.801154,56.047528 47.146342,56.234618 42.704166,59.206373 39.849885,59.97639 38.522182,60.334573 35.733934,60.257022 35.733934,60.257022 Z"
       id="path840"
       inkscape:connector-curvature="0"
       sodipodi:nodetypes="csssac" />
    <path
       style="fill:#000000;stroke:none;stroke-width:0.26458332px;stroke-linecap:butt;stroke-linejoin:miter;stroke-opacity:1;fill-opacity:1"
       d="M 39.819791,67.733335 C 39.819791,67.733335 37.570833,71.834377 38.232291,73.157293 38.89375,74.48021 45.772916,78.581252 46.831249,78.052085 47.889583,77.522918 74.347913,45.772919 75.406246,39.290627 76.46458,32.808336 67.73333,50.006252 56.356247,59.266669 44.979166,68.527085 39.819791,67.733335 39.819791,67.733335 Z"
       id="path842"
       inkscape:connector-curvature="0" />
    <path
       style="fill:#000000;stroke:none;stroke-width:0.26458332px;stroke-linecap:butt;stroke-linejoin:miter;stroke-opacity:1;fill-opacity:1"
       d="M 82.285413,17.065628 C 82.285413,17.065628 91.016663,21.695836 90.222913,24.738544 89.429163,27.781252 75.141663,33.205211 75.141663,33.205211 75.141663,33.205211 82.153121,21.695836 82.285413,17.065628 Z"
       id="path844"
       inkscape:connector-curvature="0" />
    <path
       style="fill:#000000;stroke:none;stroke-width:0.26458332px;stroke-linecap:butt;stroke-linejoin:miter;stroke-opacity:1;fill-opacity:1"
       d="M 90.090621,27.913544 C 90.090621,27.913544 96.308329,32.543752 98.160413,32.014586 100.0125,31.485419 113.24166,24.341669 113.37395,23.812503 113.50625,23.283336 113.10937,20.505211 111.125,20.505211 109.14062,20.505211 95.117704,25.532294 93.662496,26.061461 92.207288,26.590627 90.090621,27.913544 90.090621,27.913544 Z"
       id="path846"
       inkscape:connector-curvature="0" />
    <path
       style="fill:#000000;stroke:none;stroke-width:0.26458332px;stroke-linecap:butt;stroke-linejoin:miter;stroke-opacity:1;fill-opacity:1"
       d="M 79.507288,34.263544 C 79.507288,34.263544 80.301038,37.306252 82.81458,38.364585 85.328121,39.422919 86.78333,39.687502 86.915621,41.539585 87.047913,43.391669 88.37083,54.63646 87.180205,55.562502 85.98958,56.488544 83.343746,55.959377 83.343746,55.959377 83.343746,55.959377 85.724996,63.632294 87.444788,63.764585 89.16458,63.896877 91.148955,62.970835 91.678121,61.251044 92.207288,59.531252 93.530205,42.73021 93.265621,40.216669 93.001038,37.703127 91.942705,34.131252 79.507288,34.263544 Z"
       id="path848"
       inkscape:connector-curvature="0" />
    <path
       style="fill:#000000;stroke:none;stroke-width:0.26458332px;stroke-linecap:butt;stroke-linejoin:miter;stroke-opacity:1;fill-opacity:1"
       d="M 76.332288,42.73021 C 76.332288,42.73021 72.628121,53.84271 73.421871,55.827085 74.215621,57.81146 78.713538,59.266669 79.63958,58.340627 80.565621,57.414585 81.094788,46.302085 81.094788,46.302085 81.094788,46.302085 77.655205,48.815627 77.655205,47.49271 77.655205,46.169794 76.332288,42.73021 76.332288,42.73021 Z"
       id="path850"
       inkscape:connector-curvature="0" />
    <path
       style="fill:#000000;stroke:none;stroke-width:0.26458332px;stroke-linecap:butt;stroke-linejoin:miter;stroke-opacity:1;fill-opacity:1"
       d="M 103.58437,41.804169 C 103.58437,41.804169 106.89166,47.360419 106.62708,48.683335 106.3625,50.006252 102.92291,50.403127 102.92291,50.403127 102.92291,50.403127 110.72812,53.445835 111.91875,55.165627 113.10937,56.885419 118.9302,47.49271 103.58437,41.804169 Z"
       id="path852"
       inkscape:connector-curvature="0" />
    <path
       style="fill:#000000;stroke:none;stroke-width:0.26458332px;stroke-linecap:butt;stroke-linejoin:miter;stroke-opacity:1;fill-opacity:1"
       d="M 54.504163,74.347918 C 54.504163,74.347918 56.091663,85.592707 55.694788,87.973957 55.297913,90.355207 53.842705,98.821874 53.842705,98.821874 53.842705,98.821874 56.091663,103.45208 57.149997,104.51042 58.20833,105.56875 59.266663,100.67396 60.192705,94.323957 61.118747,87.973957 63.499997,75.406252 54.504163,74.347918 Z"
       id="path854"
       inkscape:connector-curvature="0" />
    <path
       style="fill:#000000;stroke:none;stroke-width:0.26458332px;stroke-linecap:butt;stroke-linejoin:miter;stroke-opacity:1;fill-opacity:1"
       d="M 63.103122,77.65521 C 63.103122,77.65521 67.73333,82.946877 70.90833,82.285418 74.08333,81.62396 81.491663,76.464585 80.697913,74.877085 79.904163,73.289585 81.359371,71.702085 63.103122,77.65521 Z"
       id="path856"
       inkscape:connector-curvature="0" />
    <path
       style="fill:#000000;stroke:none;stroke-width:0.26458332px;stroke-linecap:butt;stroke-linejoin:miter;stroke-opacity:1;fill-opacity:1"
       d="M 63.367705,92.339582 C 63.76458,93.00104 68.923955,96.837499 70.643746,96.705207 72.363538,96.572915 78.84583,90.222916 78.978121,89.296874 79.110413,88.370832 75.406246,86.915624 74.08333,86.915624 72.760413,86.915624 63.367705,92.339582 63.367705,92.339582 Z"
       id="path858"
       inkscape:connector-curvature="0" />
    <path
       style="fill:#000000;stroke:none;stroke-width:0.26458332px;stroke-linecap:butt;stroke-linejoin:miter;stroke-opacity:1;fill-opacity:1"
       d="M 58.340622,68.262502 C 58.340622,68.262502 64.161455,70.908335 67.468747,69.850002 70.776038,68.791668 82.285413,65.087502 82.81458,65.087502 83.343746,65.087502 86.254163,65.74896 86.386455,66.54271 86.518746,67.33646 88.106246,95.38229 87.312496,96.17604 86.518746,96.96979 83.079163,95.646874 83.079163,95.646874 83.079163,95.646874 86.121871,109.00833 88.37083,108.87604 90.619788,108.74375 92.471871,102.79062 92.074996,100.93854 91.678121,99.086457 91.54583,69.453127 91.678121,68.92396 91.810413,68.394793 93.794788,66.013543 93.794788,65.352085 93.794788,64.690627 88.106246,60.19271 86.78333,60.060419 85.460413,59.928127 64.955205,66.013543 62.706247,66.675002 60.457288,67.33646 58.340622,68.262502 58.340622,68.262502 Z"
       id="path860"
       inkscape:connector-curvature="0" />
    <path
       style="fill:#000000;stroke:none;stroke-width:0.26458332px;stroke-linecap:butt;stroke-linejoin:miter;stroke-opacity:1;fill-opacity:1"
       d="M 44.185416,107.42083 C 44.317708,108.08229 45.640624,110.72812 48.021874,111.65417 50.403122,112.58021 53.44583,113.77083 53.44583,113.77083 53.44583,113.77083 54.901038,111.91875 55.694788,111.125 56.488538,110.33125 77.787496,102.92292 79.374996,102.79062 80.962496,102.65833 87.973955,103.05521 87.973955,103.05521 87.973955,103.05521 86.254163,96.96979 79.63958,97.631249 73.024996,98.292707 57.282288,105.83333 53.048955,106.75937 48.815624,107.68542 44.185416,107.42083 44.185416,107.42083 Z"
       id="path862"
       inkscape:connector-curvature="0" />
    <path
       style="fill:#000000;stroke:none;stroke-width:0.26458332px;stroke-linecap:butt;stroke-linejoin:miter;stroke-opacity:1;fill-opacity:1"
       d="M 26.722916,113.90312 C 26.722916,113.90312 24.473957,123.69271 23.812499,125.4125 23.151041,127.13229 26.590625,135.06979 29.633333,135.06979 32.676041,135.06979 35.851041,127.39687 35.586458,125.14792 35.321875,122.89896 33.205208,124.88333 32.146875,123.56042 31.088541,122.2375 26.722916,113.90312 26.722916,113.90312 Z"
       id="path864"
       inkscape:connector-curvature="0" />
    <path
       style="fill:#000000;stroke:none;stroke-width:0.26458332px;stroke-linecap:butt;stroke-linejoin:miter;stroke-opacity:1;fill-opacity:1"
       d="M 106.62708,108.74375 C 106.62708,108.74375 116.68125,119.0625 116.41666,119.72396 116.15208,120.38542 113.63854,120.78229 113.63854,120.78229 113.63854,120.78229 119.85625,125.67708 121.44375,127.26458 123.03125,128.85208 127.52916,128.5875 126.60312,124.22187 125.67708,119.85625 125.2802,114.43229 106.62708,108.74375 Z"
       id="path866"
       inkscape:connector-curvature="0" />
  </g>
</svg>
