<?xml version="1.0" encoding="UTF-8" standalone="no"?>
<!-- Created with Inkscape (http://www.inkscape.org/) -->

<svg
   xmlns:dc="http://purl.org/dc/elements/1.1/"
   xmlns:cc="http://creativecommons.org/ns#"
   xmlns:rdf="http://www.w3.org/1999/02/22-rdf-syntax-ns#"
   xmlns:svg="http://www.w3.org/2000/svg"
   xmlns="http://www.w3.org/2000/svg"
   xmlns:sodipodi="http://sodipodi.sourceforge.net/DTD/sodipodi-0.dtd"
   xmlns:inkscape="http://www.inkscape.org/namespaces/inkscape"
   width="512"
   height="512"
   viewBox="0 0 614.4 614.4"
   version="1.1"
   id="svg8"
   inkscape:version="0.92.4 (5da689c313, 2019-01-14)"
   sodipodi:docname="寸U+5BF6.svg">
  <defs
     id="defs2" />
  <sodipodi:namedview
     id="base"
     pagecolor="#ffffff"
     bordercolor="#666666"
     borderopacity="1.0"
     inkscape:pageopacity="0.0"
     inkscape:pageshadow="2"
     inkscape:zoom="1.4"
     inkscape:cx="76.339281"
     inkscape:cy="250.71269"
     inkscape:document-units="px"
     inkscape:current-layer="g4581"
     showgrid="false"
     units="px"
     scale-x="1.2"
     inkscape:window-width="1920"
     inkscape:window-height="1017"
     inkscape:window-x="-8"
     inkscape:window-y="-8"
     inkscape:window-maximized="1">
    <inkscape:grid
       type="xygrid"
       id="grid3735" />
  </sodipodi:namedview>
  <metadata
     id="metadata5">
    <rdf:RDF>
      <cc:Work
         rdf:about="">
        <dc:format>image/svg+xml</dc:format>
        <dc:type
           rdf:resource="http://purl.org/dc/dcmitype/StillImage" />
        <dc:title></dc:title>
      </cc:Work>
    </rdf:RDF>
  </metadata>
  <g
     inkscape:label="圖層 1"
     inkscape:groupmode="layer"
     id="layer1"
     transform="translate(0,-161.53331)" />
  <g
     id="g4581"
     transform="translate(-2.1428566,-0.51429847)">
    <g
       transform="translate(0,-161.53331)"
       id="layer1-6"
       inkscape:label="圖層 1" />
    <path
       sodipodi:nodetypes="cccccaccaccccaccccccccc"
       inkscape:connector-curvature="0"
       id="path3737"
       d="M 39.428572,271.54285 63,306.68572 83.571428,336.68572 95.571428,339.25715 123,319.97143 C 123,319.97143 158.58866,300.55508 177,292.11428 209.62701,277.15622 276.85715,251.82857 276.85715,251.82857 L 345.42857,228.68572 C 345.42857,228.68572 386.98415,216.01141 408.42857,213.25715 436.2037,209.68979 492.42857,211.97143 492.42857,211.97143 L 518.14285,218.82857 555.85715,217.97143 565.71428,205.97143 C 565.71428,205.97143 549.16342,189.93336 539.14285,184.54285 524.22245,176.51651 490.71428,169.11428 490.71428,169.11428 L 461.14285,181.54285 377.14285,200.4 298.71428,215.4 189,245.82857 122.14285,265.54285 78.000001,282.25714 53.142857,270.25715 Z"
       style="fill:#000000;stroke:none;stroke-width:1.20000005px;stroke-linecap:butt;stroke-linejoin:miter;stroke-opacity:1" />
    <path
       sodipodi:nodetypes="aaaaacaaccacsccaccccccasaa"
       inkscape:connector-curvature="0"
       id="path3743"
       d="M 314.57143,20.82857 C 307.44518,20.341795 299.94229,22.865041 294,26.82857 288.50603,30.493066 283.13095,35.839966 281.57143,42.257142 279.88431,49.199365 281.99189,57.248763 285.85715,63.257142 289.01091,68.159527 294.36347,72.056551 300,73.542857 306.11707,75.155878 303.80038,71.017903 318.85715,71.399999 332.54392,76.542856 331.79068,80.256224 335.57143,86.82857 339.51187,93.678526 339.49692,102.16329 340.71428,109.97143 345.57577,141.15291 346.42857,172.82858 349.28572,204.25715 L 353.57143,365.82857 C 353.57143,365.82857 354.31178,411.88556 356.14286,434.82858 357.3566,450.03653 361.71428,480.25715 361.71428,480.25715 L 327.42857,467.82857 C 319.12226,464.81753 333.85715,493.54285 333.85715,493.54285 L 360.42857,547.97143 C 360.42857,547.97143 366.11522,555.80865 370.28572,555.68572 373.52311,555.5903 377.57143,549.25715 377.57143,549.25715 L 393,511.54285 395.57143,495.68572 381.42857,425.4 375,295.54285 371.57143,182.4 C 371.57143,182.4 372.56061,150.01974 374.57143,133.97143 376.66842,117.23547 390.74112,95.186704 384.00001,84.257141 353.155,34.247181 368.4972,50.559824 354.85714,38.82857 343.70604,29.237972 329.24528,21.830901 314.57143,20.82857 Z"
       style="fill:#000000;stroke:none;stroke-width:1.20000005px;stroke-linecap:butt;stroke-linejoin:miter;stroke-opacity:1" />
    <path
       sodipodi:nodetypes="caaaaac"
       inkscape:connector-curvature="0"
       id="path3745"
       d="M 246.85715,314.4 C 246.85715,314.4 262.61315,341.24341 273.85715,351.68572 279.63818,357.05457 286.40063,366.23427 294,364.11428 300.03103,362.43181 302.17005,353.64844 302.57143,347.4 303.05808,339.824 300.04547,331.51345 294.85715,325.97143 288.99838,319.71326 279.62862,317.65693 271.28571,315.68571 263.35008,313.81073 246.85715,314.4 246.85715,314.4 Z"
       style="fill:#000000;fill-opacity:1;stroke:none;stroke-width:1.20000005px;stroke-linecap:butt;stroke-linejoin:miter;stroke-opacity:1" />
  </g>
</svg>
