<?xml version="1.0" encoding="UTF-8" standalone="no"?>
<!-- Created with Inkscape (http://www.inkscape.org/) -->

<svg
   xmlns:dc="http://purl.org/dc/elements/1.1/"
   xmlns:cc="http://creativecommons.org/ns#"
   xmlns:rdf="http://www.w3.org/1999/02/22-rdf-syntax-ns#"
   xmlns:svg="http://www.w3.org/2000/svg"
   xmlns="http://www.w3.org/2000/svg"
   xmlns:sodipodi="http://sodipodi.sourceforge.net/DTD/sodipodi-0.dtd"
   xmlns:inkscape="http://www.inkscape.org/namespaces/inkscape"
   width="512"
   height="512"
   viewBox="0 0 614.4 614.4"
   version="1.1"
   id="svg8"
   inkscape:version="0.92.4 (5da689c313, 2019-01-14)"
   sodipodi:docname="尺U+5C3A.svg">
  <defs
     id="defs2" />
  <sodipodi:namedview
     id="base"
     pagecolor="#ffffff"
     bordercolor="#666666"
     borderopacity="1.0"
     inkscape:pageopacity="0.0"
     inkscape:pageshadow="2"
     inkscape:zoom="1.4"
     inkscape:cx="234.69648"
     inkscape:cy="183.02857"
     inkscape:document-units="px"
     inkscape:current-layer="g4581"
     showgrid="false"
     units="px"
     scale-x="1.2"
     inkscape:window-width="1920"
     inkscape:window-height="1017"
     inkscape:window-x="-8"
     inkscape:window-y="-8"
     inkscape:window-maximized="1">
    <inkscape:grid
       type="xygrid"
       id="grid3735" />
  </sodipodi:namedview>
  <metadata
     id="metadata5">
    <rdf:RDF>
      <cc:Work
         rdf:about="">
        <dc:format>image/svg+xml</dc:format>
        <dc:type
           rdf:resource="http://purl.org/dc/dcmitype/StillImage" />
        <dc:title></dc:title>
      </cc:Work>
    </rdf:RDF>
  </metadata>
  <g
     inkscape:label="圖層 1"
     inkscape:groupmode="layer"
     id="layer1"
     transform="translate(0,-161.53331)" />
  <g
     id="g4581"
     transform="translate(-2.1428566,-0.51429847)">
    <g
       transform="translate(0,-161.53331)"
       id="layer1-6"
       inkscape:label="圖層 1" />
    <path
       style="fill:#000000;stroke:none;stroke-width:1.20000005px;stroke-linecap:butt;stroke-linejoin:miter;stroke-opacity:1;fill-opacity:1"
       d="M 209.12311,144.28422 C 203.83348,142.26913 195.183,153.98169 195.183,153.98169 L 189.72819,172.16443 190.94037,181.55885 202.15306,192.46851 222.76017,205.49947 230.33632,206.40861 C 230.33632,206.40861 290.90978,174.38109 325.79573,162.77002 327.68611,162.14085 328.82619,167.9218 328.82619,167.9218 328.82619,167.9218 325.52197,187.07545 324.2805,196.71114 322.85351,207.78669 320.947,230.04618 320.947,230.04618 L 226.69977,270.35127 H 215.48708 L 209.7292,285.80659 218.82058,297.01929 C 218.82058,297.01929 233.25183,308.89105 239.42769,304.89849 248.61726,298.95763 270.03531,284.29137 270.03531,284.29137 L 326.09878,261.56293 370.34346,247.31979 388.82925,247.62283 C 388.82925,247.62283 396.65435,245.36947 398.52672,242.16801 400.20962,239.2905 400.45898,234.88385 398.52671,232.16749 394.06395,225.8938 376.70742,224.59135 376.70742,224.59135 L 352.7668,226.40963 C 352.7668,226.40963 365.95128,174.85526 379.73788,151.25428 385.99856,140.53676 403.26459,140.69554 410.9516,130.95022 420.96384,118.25705 401.55717,99.433454 401.55717,99.433454 401.55717,99.433454 395.17808,81.893013 387.92011,77.008067 382.14748,73.122824 374.18522,72.583264 367.313,73.674564 359.68308,74.886185 346.70589,84.281166 346.70589,84.281166 L 332.15969,118.82838 234.882,152.76951 221.85104,149.13295 Z"
       id="path4594"
       inkscape:connector-curvature="0"
       sodipodi:nodetypes="sccccccscacccccsccccaaccsscaaccccs" />
    <path
       style="fill:#000000;stroke:none;stroke-width:1.20000005px;stroke-linecap:butt;stroke-linejoin:miter;stroke-opacity:1;fill-opacity:1"
       d="M 217.0023,192.16546 C 217.52734,210.39026 216.14452,216.88647 214.57793,229.13704 212.80375,243.01094 206.69874,270.35127 206.69874,270.35127 L 197.00128,313.38376 185.18249,356.71931 C 185.18249,356.71931 175.44382,390.08073 168.21194,405.81273 161.27236,420.90886 143.05913,448.84522 143.05913,448.84522 143.05913,448.84522 128.5069,471.84984 119.11852,481.57416 113.67246,487.21509 100.63273,496.12036 100.63273,496.12036 97.033168,498.9528 90.329174,487.02899 90.329174,487.02899 L 81.540847,465.20969 73.358611,445.81476 C 73.358611,445.81476 65.607141,456.28761 64.570284,462.48228 63.152838,470.95077 67.799783,479.38124 68.509879,487.93812 69.203318,496.29428 68.812925,513.09093 68.812925,513.09093 68.812925,513.09093 69.709257,525.80728 74.267749,529.15235 77.852062,531.78256 87.601763,529.4554 87.601763,529.4554 87.601763,529.4554 105.60494,517.50675 113.6637,510.36351 125.05523,500.26611 144.87741,477.02848 144.87741,477.02848 144.87741,477.02848 167.19637,445.5812 176.09112,428.54116 182.35847,416.53453 191.54646,390.96348 191.54646,390.96348 L 211.24443,331.56651 C 211.24443,331.56651 216.30682,312.42507 218.51752,302.77716 221.65028,289.10527 224.79563,275.4144 227.00282,261.56293 229.25853,247.40697 230.69362,233.1212 231.85155,218.83349 232.52146,210.56749 235.79114,200.95379 233.06373,193.98373 231.10035,188.96619 216.84714,186.77968 217.0023,192.16546 Z"
       id="path4596"
       inkscape:connector-curvature="0"
       sodipodi:nodetypes="sacccacascccaacacacaccaaass" />
    <path
       style="fill:#000000;stroke:none;stroke-width:1.20000005px;stroke-linecap:butt;stroke-linejoin:miter;stroke-opacity:1;fill-opacity:1"
       d="M 293.67288,353.99189 C 254.41524,321.74364 430.34652,410.05536 430.34652,410.05536 L 513.98715,458.84573 C 513.98715,458.84573 537.98428,476.81366 547.01914,488.54422 552.28447,495.38055 558.4018,502.95775 558.83793,511.5757 558.96403,514.0674 558.18227,517.15568 556.11051,518.54574 550.8252,522.09196 537.01863,518.24269 537.01863,518.24269 L 502.47141,497.63559 465.49983,471.8767 428.8313,444.60258 393.0719,420.35892 361.25209,398.84267 C 361.25209,398.84267 328.89233,382.92296 293.67288,353.99189 Z"
       id="path4598"
       inkscape:connector-curvature="0"
       sodipodi:nodetypes="sccaaaccccccs" />
  </g>
</svg>
