<?xml version="1.0" encoding="UTF-8" standalone="no"?>
<!-- Created with Inkscape (http://www.inkscape.org/) -->

<svg
   xmlns:dc="http://purl.org/dc/elements/1.1/"
   xmlns:cc="http://creativecommons.org/ns#"
   xmlns:rdf="http://www.w3.org/1999/02/22-rdf-syntax-ns#"
   xmlns:svg="http://www.w3.org/2000/svg"
   xmlns="http://www.w3.org/2000/svg"
   xmlns:sodipodi="http://sodipodi.sourceforge.net/DTD/sodipodi-0.dtd"
   xmlns:inkscape="http://www.inkscape.org/namespaces/inkscape"
   width="210mm"
   height="297mm"
   viewBox="0 0 210 297"
   version="1.1"
   id="svg8"
   inkscape:version="0.92.4 (5da689c313, 2019-01-14)"
   sodipodi:docname="U+5C3A.svg">
  <defs
     id="defs2" />
  <sodipodi:namedview
     id="base"
     pagecolor="#ffffff"
     bordercolor="#666666"
     borderopacity="1.0"
     inkscape:pageopacity="0.0"
     inkscape:pageshadow="2"
     inkscape:zoom="1.0824912"
     inkscape:cx="244.10675"
     inkscape:cy="560"
     inkscape:document-units="mm"
     inkscape:current-layer="layer2"
     showgrid="false"
     inkscape:window-width="1920"
     inkscape:window-height="1017"
     inkscape:window-x="-8"
     inkscape:window-y="-8"
     inkscape:window-maximized="1" />
  <metadata
     id="metadata5">
    <rdf:RDF>
      <cc:Work
         rdf:about="">
        <dc:format>image/svg+xml</dc:format>
        <dc:type
           rdf:resource="http://purl.org/dc/dcmitype/StillImage" />
        <dc:title></dc:title>
      </cc:Work>
    </rdf:RDF>
  </metadata>
  <g
     inkscape:groupmode="layer"
     id="layer2"
     inkscape:label="圖層 2">
    <path
       style="fill:#000000;stroke:none;stroke-width:0.26458332px;stroke-linecap:butt;stroke-linejoin:miter;stroke-opacity:1;fill-opacity:1"
       d="m 80.414433,115.15094 c 0.733261,-1.2221 3.421891,-4.88841 4.643993,-4.64399 1.222105,0.24442 2.199788,3.42189 4.643996,2.68863 2.444207,-0.73326 20.286928,-6.35494 20.286928,-6.35494 0,0 2.93305,-1.2221 2.93305,-2.68863 0,-1.46652 1.95536,-6.354939 3.17746,-7.088203 1.22211,-0.73326 5.37726,-1.710943 6.84379,-0.977683 1.46652,0.733264 2.93305,2.93305 3.91073,5.621676 0.97768,2.68863 3.66631,5.8661 2.93305,6.59936 -0.73326,0.73327 -5.8661,1.46653 -6.59936,3.66632 -0.73326,2.19978 -2.44421,3.91073 -3.91074,9.04356 -1.46652,5.13284 -2.19978,7.33263 -3.66631,10.26568 -1.46652,2.93305 -3.91073,4.15515 -4.39957,2.4442 -0.48884,-1.71094 -2.19979,-3.42189 -1.46653,-9.28799 0.73327,-5.86609 1.46653,-8.06588 1.46653,-8.79914 0,-0.73327 0.24442,-0.48885 -2.19979,0.73326 -2.4442,1.2221 -15.642925,6.35494 -15.642925,6.35494 0,0 -5.621679,4.64399 -10.265675,-0.97768 -4.643993,-5.62168 -2.933049,-5.8661 -2.688627,-6.59937 z"
       id="path827"
       inkscape:connector-curvature="0" />
    <path
       style="fill:#000000;stroke:none;stroke-width:0.26458332px;stroke-linecap:butt;stroke-linejoin:miter;stroke-opacity:1;fill-opacity:1"
       d="m 85.302848,142.28165 c 0,0 -0.488841,-2.19979 3.177469,-3.66631 3.666312,-1.46653 20.286923,-8.79915 23.464393,-9.04357 3.17747,-0.24442 9.28799,-1.46653 11.97662,0 2.68863,1.46652 3.91073,3.66631 2.44421,3.91073 -1.46653,0.24442 -8.31031,0.73327 -12.46546,2.68863 -4.15516,1.95537 -8.79915,2.44421 -13.44314,5.13284 -4.643998,2.68863 -6.354944,4.39957 -6.354944,4.39957 0,0 -0.488842,1.71095 -1.955367,1.46652 -1.466524,-0.24442 -8.310305,-1.46652 -6.843781,-4.88841 z"
       id="path829"
       inkscape:connector-curvature="0" />
    <path
       style="fill:#000000;stroke:none;stroke-width:0.26458332px;stroke-linecap:butt;stroke-linejoin:miter;stroke-opacity:1;fill-opacity:1"
       d="m 88.969158,118.32841 c 0,0 0.488844,11.97662 0,15.39851 -0.488841,3.42189 -0.244419,6.35494 -3.66631,18.08714 -3.42189,11.7322 -8.310305,23.21997 -10.265672,26.15302 -1.955366,2.93305 -10.265671,14.90967 -13.19872,16.37619 -2.933052,1.46653 -5.37726,4.644 -6.843784,0.97769 -1.466525,-3.66632 -1.710944,-17.10946 -1.710944,-17.10946 l 0.488841,-2.19978 3.910732,9.77683 c 0,0 1.222103,5.62168 4.399574,2.19978 3.177471,-3.42189 14.420826,-16.13177 19.064819,-35.19659 4.643996,-19.06482 5.621679,-32.50796 5.621679,-32.50796 0,0 -2.199788,-6.35494 2.199785,-1.95537 z"
       id="path831"
       inkscape:connector-curvature="0" />
    <path
       style="fill:#000000;stroke:none;stroke-width:0.26458332px;stroke-linecap:butt;stroke-linejoin:miter;stroke-opacity:1;fill-opacity:1"
       d="m 102.16788,155.72479 c 0,0 21.50903,9.04357 26.64187,11.48778 5.13283,2.44421 25.41975,14.90967 27.61954,16.86503 2.19979,1.95537 6.59936,9.04357 4.39958,9.53241 -2.19979,0.48884 -2.44421,2.19979 -9.04357,-2.19978 -6.59936,-4.39958 -21.02019,-14.90967 -21.02019,-14.90967 0,0 -23.70881,-18.33156 -28.59723,-20.77577 z"
       id="path833"
       inkscape:connector-curvature="0" />
  </g>
</svg>
