<?xml version="1.0" encoding="UTF-8" standalone="no"?>
<!-- Created with Inkscape (http://www.inkscape.org/) -->

<svg
   xmlns:dc="http://purl.org/dc/elements/1.1/"
   xmlns:cc="http://creativecommons.org/ns#"
   xmlns:rdf="http://www.w3.org/1999/02/22-rdf-syntax-ns#"
   xmlns:svg="http://www.w3.org/2000/svg"
   xmlns="http://www.w3.org/2000/svg"
   xmlns:sodipodi="http://sodipodi.sourceforge.net/DTD/sodipodi-0.dtd"
   xmlns:inkscape="http://www.inkscape.org/namespaces/inkscape"
   width="512"
   height="512"
   viewBox="0 0 135.46666 135.46667"
   version="1.1"
   id="svg8"
   inkscape:version="0.92.4 (5da689c313, 2019-01-14)"
   sodipodi:docname="U+60E1.svg">
  <defs
     id="defs2" />
  <sodipodi:namedview
     id="base"
     pagecolor="#ffffff"
     bordercolor="#666666"
     borderopacity="1.0"
     inkscape:pageopacity="0.0"
     inkscape:pageshadow="2"
     inkscape:zoom="1.4142136"
     inkscape:cx="29.095761"
     inkscape:cy="186.73245"
     inkscape:document-units="px"
     inkscape:current-layer="layer9"
     showgrid="false"
     units="px"
     inkscape:window-width="1920"
     inkscape:window-height="1017"
     inkscape:window-x="-8"
     inkscape:window-y="-8"
     inkscape:window-maximized="1" />
  <metadata
     id="metadata5">
    <rdf:RDF>
      <cc:Work
         rdf:about="">
        <dc:format>image/svg+xml</dc:format>
        <dc:type
           rdf:resource="http://purl.org/dc/dcmitype/StillImage" />
        <dc:title></dc:title>
      </cc:Work>
    </rdf:RDF>
  </metadata>
  <g
     inkscape:groupmode="layer"
     id="layer9"
     inkscape:label="Layer 2">
    <path
       style="fill:#000000;stroke:none;stroke-width:0.26458332px;stroke-linecap:butt;stroke-linejoin:miter;stroke-opacity:1;fill-opacity:1"
       d="M 12.160763,103.10033 C 12.160763,103.10033 5.6126599,120.49957 8.9802559,122.37046 12.347852,124.24134 14.68646,124.33489 15.715448,122.93173 16.744436,121.52856 16.276714,113.48375 15.808992,112.17413 15.341271,110.86451 13.844561,113.95147 13.189751,111.7064 12.534941,109.46134 12.160763,103.10033 12.160763,103.10033 Z"
       id="path4833"
       inkscape:connector-curvature="0" />
    <path
       style="fill:#000000;stroke:none;stroke-width:0.26458332px;stroke-linecap:butt;stroke-linejoin:miter;stroke-opacity:1;fill-opacity:1"
       d="M 22.263551,95.61678 C 22.263551,95.61678 32.927604,110.67742 42.282038,116.29008 51.636472,121.90274 66.229388,130.78945 84.564076,128.91856 102.89877,127.04767 103.83421,127.04767 104.0213,126.57995 104.20839,126.11223 105.42446,119.75122 101.86978,118.72223 98.315093,117.69324 95.041041,119.37704 92.983067,118.06742 90.925091,116.7578 86.247876,111.61286 84.470533,111.51932 82.693191,111.42577 86.34142,118.06742 85.967241,119.47058 85.593064,120.87375 78.670784,122.83818 65.106856,120.59312 51.542928,118.34805 22.263551,95.61678 22.263551,95.61678 Z"
       id="path4835"
       inkscape:connector-curvature="0" />
    <path
       style="fill:#000000;stroke:none;stroke-width:0.26458332px;stroke-linecap:butt;stroke-linejoin:miter;stroke-opacity:1;fill-opacity:1"
       d="M 55.694791,88.370832 C 55.694791,88.370832 58.076041,91.942707 57.546874,92.868749 57.017708,93.79479 55.562499,96.572915 56.488541,97.895832 57.414583,99.218749 59.398958,101.99687 59.398958,102.65833 59.398958,103.31979 63.764583,105.96563 65.087499,105.70104 66.410416,105.43646 69.012519,104.93179 68.923957,103.45209 68.735671,100.3062 71.518896,99.289483 72.495832,95.38229 72.362804,93.927817 70.77604,94.456248 70.379165,91.545832 69.98229,88.635415 69.585416,94.853124 66.278124,92.604166 62.970833,90.355207 55.694791,88.370832 55.694791,88.370832 Z"
       id="path4837"
       inkscape:connector-curvature="0"
       sodipodi:nodetypes="cssscscssc" />
    <path
       style="fill:#000000;stroke:none;stroke-width:0.26458332px;stroke-linecap:butt;stroke-linejoin:miter;stroke-opacity:1;fill-opacity:1"
       d="M 86.386457,90.222916 C 86.386457,90.222916 98.954165,94.58854 103.84896,98.55729 108.74375,102.52604 113.50625,101.07083 113.63854,100.54167 113.77083,100.0125 107.02396,84.931249 86.386457,90.222916 Z"
       id="path4839"
       inkscape:connector-curvature="0" />
    <path
       style="fill:#000000;stroke:none;stroke-width:0.26458332px;stroke-linecap:butt;stroke-linejoin:miter;stroke-opacity:1;fill-opacity:1"
       d="M 18.708867,27.516505 20.579753,33.129164 24.508615,35.374228 C 24.508615,35.374228 50.51394,27.516505 51.449382,27.516505 52.384827,27.516505 74.648377,24.148909 75.957998,24.148909 77.267619,24.148909 85.312431,27.703594 85.312431,27.703594 L 89.241293,28.451947 C 89.241293,28.451947 90.738004,22.839288 89.428382,21.903845 88.118761,20.968401 83.628634,17.039539 81.944836,16.665362 80.261038,16.291185 76.145087,16.104096 76.145087,16.104096 76.145087,16.104096 72.777492,18.910426 69.971162,20.032958 67.16483,21.15549 24.444416,28.803428 22.760618,28.429251 Z"
       id="path4817"
       inkscape:connector-curvature="0"
       sodipodi:nodetypes="cccssccsscscc" />
    <path
       style="fill:#000000;stroke:none;stroke-width:0.26458332px;stroke-linecap:butt;stroke-linejoin:miter;stroke-opacity:1;fill-opacity:1"
       d="M 34.237226,36.870939 C 34.237226,36.870939 36.856468,34.064609 37.979,34.064609 39.101532,34.064609 44.152925,36.309673 44.340015,37.432204 44.527102,38.554736 45.462547,41.548155 45.462547,41.548155 L 43.030393,52.960563 33.48887,57.076514 26.56659,55.205627 37.417734,49.218791 38.727353,47.347904 38.166087,38.554736 Z"
       id="path4819"
       inkscape:connector-curvature="0" />
    <path
       style="fill:#000000;stroke:none;stroke-width:0.26458332px;stroke-linecap:butt;stroke-linejoin:miter;stroke-opacity:1;fill-opacity:1"
       d="M 18.895955,50.902589 C 18.895955,50.902589 22.45064,58.199046 22.45064,59.695754 22.45064,61.192465 23.573172,69.424367 24.134438,69.985632 24.695704,70.546898 26.005325,72.043607 26.005325,72.043607 26.005325,72.043607 27.502035,70.359809 27.502035,69.237277 27.502035,68.114745 28.178125,56.620833 24.341666,53.511978 20.505208,50.403124 18.895955,50.902589 18.895955,50.902589 Z"
       id="path4821"
       inkscape:connector-curvature="0" />
    <path
       style="fill:#000000;stroke:none;stroke-width:0.26458332px;stroke-linecap:butt;stroke-linejoin:miter;stroke-opacity:1;fill-opacity:1"
       d="M 15.213541,72.297395 C 15.213541,72.297395 15.213541,74.744791 16.66875,75.935416 18.123958,77.126041 20.703646,78.911978 21.497396,78.647395 22.291146,78.382812 34.528125,70.180728 36.843229,70.445312 39.158333,70.709895 39.952083,71.768228 39.952083,71.768228 L 39.6875,82.020832 C 39.6875,82.020832 38.761458,84.798957 40.547395,83.674478 42.333333,82.549999 43.656249,81.028645 43.986979,79.441145 44.317708,77.853645 44.383854,71.569791 45.442187,70.643749 46.50052,69.717707 46.897395,69.320832 46.831249,68.328645 46.765104,67.336457 45.442187,62.177083 42.002604,61.449478 38.56302,60.721874 39.092187,65.153645 36.97552,66.211978 34.858854,67.270312 19.182291,72.826562 17.859375,72.69427 16.536458,72.561978 15.213541,72.297395 15.213541,72.297395 Z"
       id="path4823"
       inkscape:connector-curvature="0" />
    <path
       style="fill:#000000;stroke:none;stroke-width:0.26458332px;stroke-linecap:butt;stroke-linejoin:miter;stroke-opacity:1;fill-opacity:1"
       d="M 55.827083,32.146875 C 55.827083,32.146875 59.531249,39.6875 59.266666,44.317708 59.002083,48.947916 57.414583,48.683333 57.546874,49.609374 57.679166,50.535416 61.780208,54.636458 63.499999,54.107291 65.219791,53.578124 65.616666,53.445833 67.071874,51.990624 68.527082,50.535416 74.744791,48.683333 75.406249,48.815624 76.067707,48.947916 76.729166,52.519791 75.406249,56.753124 74.083332,60.986458 75.406249,61.118749 75.406249,61.118749 75.406249,61.118749 78.713541,60.457291 79.507291,57.943749 80.301041,55.430208 80.697916,50.932291 84.269791,47.360416 87.841666,43.788541 80.301041,37.967708 78.978124,38.364583 77.655207,38.761458 77.655207,41.539583 75.406249,43.127083 73.157291,44.714583 67.865624,47.095833 66.542707,46.434374 65.219791,45.772916 66.013541,38.232291 66.542707,37.438541 67.071874,36.644791 61.515624,30.691666 55.827083,32.146875 Z"
       id="path4825"
       inkscape:connector-curvature="0" />
    <path
       style="fill:#000000;stroke:none;stroke-width:0.26458332px;stroke-linecap:butt;stroke-linejoin:miter;stroke-opacity:1;fill-opacity:1"
       d="M 59.398958,65.352083 C 60.060416,65.748958 62.706249,68.527082 64.426041,67.865624 66.145832,67.204166 80.168749,61.251041 81.094791,61.515624 82.020832,61.780208 83.476041,61.647916 83.476041,61.647916 83.476041,61.647916 83.740624,57.546874 82.020832,57.282291 80.301041,57.017708 72.892707,56.620833 66.542707,61.118749 60.192708,65.616666 59.398958,65.352083 59.398958,65.352083 Z"
       id="path4827"
       inkscape:connector-curvature="0" />
    <path
       style="fill:#000000;stroke:none;stroke-width:0.26458332px;stroke-linecap:butt;stroke-linejoin:miter;stroke-opacity:1;fill-opacity:1"
       d="M 54.239583,61.780208 C 54.239583,61.780208 57.745312,65.153645 57.745312,65.881249 57.745312,66.608853 56.521614,78.548176 56.389322,78.812759 56.257031,79.077343 53.313541,83.145311 57.149999,81.359374 60.986458,79.573436 62.243228,79.639582 63.235416,75.935416 64.227603,72.231249 66.145832,63.566145 65.815103,62.970833 65.484374,62.37552 60.523437,58.142187 58.40677,58.671353 56.290103,59.20052 54.636458,60.523437 54.239583,61.780208 Z"
       id="path4829"
       inkscape:connector-curvature="0" />
    <path
       style="fill:#000000;stroke:none;stroke-width:0.26458332px;stroke-linecap:butt;stroke-linejoin:miter;stroke-opacity:1;fill-opacity:1"
       d="M 7.5770911,88.6945 C 6.827709,91.830122 12.254308,96.178046 14.780005,95.149058 17.305702,94.120069 28.9052,87.104245 35.546847,86.262346 42.188495,85.420448 63.984324,79.714242 70.345339,80.930318 76.706353,82.146396 82.506102,83.456017 84.657622,84.297916 86.809142,85.139815 89.428382,85.794624 89.896105,84.485003 90.363825,83.175384 88.424157,79.477173 86.622053,77.749812 84.363813,75.585233 78.764327,73.446771 78.015975,74.008037 77.267619,74.569303 74.92901,76.159557 69.877616,76.720823 64.826223,77.282089 41.490098,80.403337 27.502035,83.362471 20.77555,84.785439 13.691997,90.023647 7.5770911,88.6945 Z"
       id="path4831"
       inkscape:connector-curvature="0"
       sodipodi:nodetypes="csssscacsac" />
  </g>
</svg>
