<?xml version="1.0" encoding="UTF-8" standalone="no"?>
<!-- Created with Inkscape (http://www.inkscape.org/) -->

<svg
   xmlns:dc="http://purl.org/dc/elements/1.1/"
   xmlns:cc="http://creativecommons.org/ns#"
   xmlns:rdf="http://www.w3.org/1999/02/22-rdf-syntax-ns#"
   xmlns:svg="http://www.w3.org/2000/svg"
   xmlns="http://www.w3.org/2000/svg"
   xmlns:sodipodi="http://sodipodi.sourceforge.net/DTD/sodipodi-0.dtd"
   xmlns:inkscape="http://www.inkscape.org/namespaces/inkscape"
   width="512"
   height="512"
   viewBox="0 0 135.46666 135.46666"
   version="1.1"
   id="svg8"
   sodipodi:docname="U+6176.svg"
   inkscape:version="0.92.4 (5da689c313, 2019-01-14)">
  <defs
     id="defs2" />
  <sodipodi:namedview
     id="base"
     pagecolor="#ffffff"
     bordercolor="#666666"
     borderopacity="1.0"
     inkscape:pageopacity="0.0"
     inkscape:pageshadow="2"
     inkscape:zoom="1.8552695"
     inkscape:cx="406.18389"
     inkscape:cy="276.95397"
     inkscape:document-units="px"
     inkscape:current-layer="layer3"
     showgrid="false"
     units="px"
     inkscape:window-width="1920"
     inkscape:window-height="1017"
     inkscape:window-x="-8"
     inkscape:window-y="-8"
     inkscape:window-maximized="1" />
  <metadata
     id="metadata5">
    <rdf:RDF>
      <cc:Work
         rdf:about="">
        <dc:format>image/svg+xml</dc:format>
        <dc:type
           rdf:resource="http://purl.org/dc/dcmitype/StillImage" />
        <dc:title></dc:title>
      </cc:Work>
    </rdf:RDF>
  </metadata>
  <g
     inkscape:groupmode="layer"
     id="layer3"
     inkscape:label="Layer 1">
    <path
       style="fill:#000000;stroke:none;stroke-width:0.26458332px;stroke-linecap:butt;stroke-linejoin:miter;stroke-opacity:1;fill-opacity:1"
       d="M 53.849504,6.3891975 C 51.015581,4.4302932 64.135365,5.3807796 64.135365,5.3807796 L 68.774084,6.7925645 73.614491,10.826235 75.026275,15.464956 76.639744,16.070007 95.194628,11.027919 98.018198,8.8093998 101.04345,9.0110832 107.69901,11.834653 110.92594,14.658222 110.11921,16.271691 99.026615,15.464956 83.698666,17.481792 57.278124,23.532298 44.975428,28.17102 40.135025,30.389537 37.513136,29.38112 35.294618,24.137348 37.311455,20.103678 38.924921,19.901994 40.53839,22.322197 42.756911,23.330614 53.04277,21.515462 63.933681,19.296944 68.572403,18.49021 C 68.572403,18.49021 68.301953,16.202941 67.563983,15.464956 65.697254,13.598186 62.960159,12.774665 61.311794,10.624551 59.951363,8.8500161 57.310357,8.7814568 53.849504,6.3891975 Z"
       id="path1761"
       inkscape:connector-curvature="0"
       sodipodi:nodetypes="scccccccccccccccccccccccccsss" />
    <path
       style="fill:#000000;stroke:none;stroke-width:0.26458332px;stroke-linecap:butt;stroke-linejoin:miter;stroke-opacity:1;fill-opacity:1"
       d="M 46.185529,32.406374 47.798998,31.196273 51.630985,33.414791 53.244454,36.440045 V 39.465298 L 48.202366,54.188196 30.655896,96.340055 C 30.655896,96.340055 24.125025,107.54274 19.764987,112.27305 16.363582,115.96332 12.566762,119.52893 8.0673415,121.75218 6.2692701,122.64064 2.2185189,123.16396 2.2185189,123.16396 2.2185189,123.16396 9.1614358,118.59955 12.101012,115.70167 17.013802,110.85856 21.11103,105.19029 24.807075,99.365308 27.432707,95.227298 31.462632,86.255877 31.462632,86.255877 L 43.563644,57.213449 49.009099,39.06193 48.202366,35.02826 Z"
       id="path1763"
       inkscape:connector-curvature="0"
       sodipodi:nodetypes="cccccccaacaaccccc" />
    <path
       style="fill:#000000;fill-opacity:1;stroke:none;stroke-width:0.26458332px;stroke-linecap:butt;stroke-linejoin:miter;stroke-opacity:1"
       d="M 50.824252,59.0286 48.202366,61.24712 49.210783,62.860586 53.04277,65.684156 C 53.04277,65.684156 55.491146,67.377915 56.874756,67.297625 58.647912,67.19473 61.513479,64.675739 61.513479,64.675739 61.513479,64.675739 63.938005,62.34749 65.345465,61.448803 68.159245,59.652158 74.421224,57.213449 74.421224,57.213449 L 84.102034,53.986512 100.03503,50.356209 110.32089,49.34779 113.74951,50.961258 113.9512,53.986512 113.34615,58.42355 V 58.42355 C 114.18417,59.517163 114.81631,60.71372 116.3714,61.448801 L 119.59834,59.0286 C 119.59834,59.0286 121.67977,56.525904 122.01854,54.994929 122.29604,53.740878 121.61517,51.162942 121.61517,51.162942 L 116.16972,47.936005 113.9512,45.314119 111.12763,43.297285 107.90069,44.104018 105.48049,46.322539 93.984528,48.74274 76.034692,52.978095 60.303378,58.221866 54.656238,60.2387 Z"
       id="path1767"
       inkscape:connector-curvature="0"
       sodipodi:nodetypes="ccccacaccccccccccaccccccccccc" />
    <path
       style="fill:#000000;stroke:none;stroke-width:0.26458332px;stroke-linecap:butt;stroke-linejoin:miter;stroke-opacity:1;fill-opacity:1"
       d="M 79.36252,20.708958 76.034559,20.910496 75.984434,22.271653 76.942514,24.339227 77.497001,30.490272 76.624188,32.70254 72.63115,33.558303 70.491745,33.273048 68.923366,30.848907 65.928199,28.852131 C 65.928199,28.852131 61.358855,26.948452 61.614252,28.372573 61.846543,29.667854 63.090598,31.476745 62.622976,31.196172 L 65.042982,35.230033 V 36.036703 L 62.622976,36.641834 59.799375,35.63311 H 58.387574 L 57.983981,38.658766 61.614252,42.692111 H 63.631181 C 63.631181,42.692111 64.466439,41.729139 65.042982,41.683903 65.792309,41.62511 67.059914,42.692111 67.059914,42.692111 L 66.85786,45.112636 63.227589,46.725972 60.000913,47.936235 56.975776,46.927511 54.353713,49.95265 54.757306,52.776249 57.983981,55.196774 60.000913,54.591643 62.219383,54.390104 C 62.219383,54.390104 63.367868,52.559989 64.236313,51.96958 69.035994,48.706527 80.77432,46.524434 80.77432,46.524434 L 93.076929,43.700835 94.48873,43.902373 95.698989,41.885442 97.312328,37.246965 100.13593,34.019774 C 100.13593,34.019774 101.71194,32.862968 101.74927,32.002842 101.81232,30.549851 99.32926,28.372573 99.32926,28.372573 L 95.900528,25.952565 91.866667,25.145896 90.253327,27.565904 85.614851,29.582836 H 84.102284 L 84.908953,27.515779 85.664979,25.700384 83.396384,22.624603 Z M 90.5453,31.411146 C 90.961763,31.406876 91.804545,31.448058 91.883719,31.84678 92.166672,33.271707 90.940331,36.048744 90.885332,35.982445 L 89.602206,37.979221 87.177546,38.692355 83.18451,40.403878 82.043495,39.690744 82.756629,34.271437 90.314825,31.418898 C 90.314825,31.418898 90.406479,31.41257 90.5453,31.411146 Z M 76.909441,36.695579 77.90783,38.407102 77.479949,41.259123 76.196307,42.685393 71.490134,44.111661 V 42.257512 L 70.777,39.83337 Z"
       id="path1769"
       inkscape:connector-curvature="0"
       sodipodi:nodetypes="ccccccccccscccccccccscccccccccccccccccccccccccccccccccccccccccccccc" />
    <path
       style="fill:#000000;stroke:none;stroke-width:0.26458332px;stroke-linecap:butt;stroke-linejoin:miter;stroke-opacity:1;fill-opacity:1"
       d="M 53.622035,71.006128 52.195918,75.141869 51.768081,81.559401 54.335095,83.555965 H 57.615166 L 59.326507,82.129848 60.467401,77.851493 H 58.75606 L 56.046436,76.7106 V 73.145305 Z"
       id="path1777"
       inkscape:connector-curvature="0" />
    <path
       style="fill:#000000;stroke:none;stroke-width:0.26458332px;stroke-linecap:butt;stroke-linejoin:miter;stroke-opacity:1;fill-opacity:1"
       d="M 72.874628,62.021585 71.876345,65.444269 72.518097,66.513857 74.72858,67.084304 76.368618,69.437397 77.01037,70.934822 C 77.01037,70.934822 78.749008,72.013553 79.719994,72.004411 80.646929,71.995683 82.287005,70.934822 82.287005,70.934822 L 83.713123,67.012999 C 83.713123,67.012999 84.783958,65.443248 84.426183,64.731209 84.200057,64.281177 83.000065,64.232067 83.000065,64.232067 L 81.288725,65.444269 78.5791,64.873822 76.582533,63.447702 Z"
       id="path1781"
       inkscape:connector-curvature="0"
       sodipodi:nodetypes="ccccccaccaccccc" />
    <path
       style="fill:#000000;stroke:none;stroke-width:0.26458332px;stroke-linecap:butt;stroke-linejoin:miter;stroke-opacity:1;fill-opacity:1"
       d="M 94.123786,58.884126 C 94.123786,58.884126 99.140361,57.566082 101.68221,57.743233 103.51273,57.870809 105.33066,58.46574 106.95885,59.31196 108.25001,59.983017 110.38153,62.021585 110.38153,62.021585 110.38153,62.021585 111.16253,63.970274 110.66675,64.731209 109.90352,65.90262 106.67362,66.014716 106.67362,66.014716 106.67362,66.014716 103.62919,65.523003 102.25266,64.873822 100.49824,64.046429 97.546467,61.451138 97.546467,61.451138 Z"
       id="path1785"
       inkscape:connector-curvature="0"
       sodipodi:nodetypes="caacacacc" />
    <path
       style="fill:#000000;fill-opacity:1;stroke:none;stroke-width:0.26458332px;stroke-linecap:butt;stroke-linejoin:miter;stroke-opacity:1"
       d="M 65.849674,71.432139 69.782504,74.45739 72.40439,76.171702 77.043109,77.785168 78.757421,78.087695 80.370888,76.373383 83.093617,72.843923 86.925603,67.095941 88.639913,68.306042 90.354225,71.230455 92.471902,71.936347 93.480319,73.85234 91.967691,74.659073 87.93402,75.465809 86.623079,77.280959 87.127287,77.886011 90.152541,77.079275 96.102205,74.961598 99.429983,73.045605 102.25355,74.558233 103.96786,77.280959 102.95945,79.196953 100.03503,81.012105 93.076951,82.020522 H 85.614662 82.387724 L 80.169206,83.230623 77.446477,87.869346 76.43806,89.28113 76.538901,90.491231 C 76.538901,90.491231 77.756733,90.829139 78.253213,91.197124 79.788462,92.335031 81.883516,95.634162 81.883516,95.634162 L 85.00961,97.650996 86.824763,95.936687 88.841597,91.802176 92.371059,85.953352 93.58116,87.465978 93.782844,90.894599 91.665166,96.541739 C 91.665166,96.541739 87.988665,100.83374 89.648332,101.38214 92.472251,102.31524 94.968396,102.95017 97.211465,104.10487 99.281405,105.17044 101.64731,105.5204 103.86702,106.22255 109.20879,107.91227 119.90086,111.26464 119.90086,111.26464 119.90086,111.26464 129.81682,113.38617 134.32123,115.60083 136.36644,116.60638 128.87578,117.41598 128.87578,117.41598 128.87578,117.41598 123.66628,118.70453 120.60676,119.73535 113.45094,122.1463 116.26992,123.50522 110.92594,120.94544 106.25778,118.70938 104.69444,118.24961 100.13588,115.90336 95.773429,113.65804 91.81927,110.6949 87.631496,108.13854 86.962318,107.73005 86.305126,106.55706 85.614662,106.92844 81.815859,108.97169 76.337217,114.08821 76.337217,114.08821 L 70.69008,117.92019 C 70.69008,117.92019 67.049296,118.56023 65.244623,118.32356 63.621417,118.11069 60.605902,116.71009 60.605902,116.71009 L 66.75725,114.28989 75.530484,108.44107 81.480148,103.7015 81.07678,101.48298 77.143953,95.835846 74.622908,92.407225 71.597654,93.314801 66.353882,99.869517 61.210953,106.22255 56.975599,111.26464 51.126776,116.10504 45.983846,118.72693 C 45.983846,118.72693 43.75126,119.56791 43.765327,118.82777 43.829675,115.44203 46.169209,111.88601 45.983846,112.07137 L 47.193947,109.04612 49.61415,109.55033 C 49.61415,109.55033 50.819005,109.35473 51.32846,109.04612 53.605725,107.66662 56.874757,103.29814 56.874757,103.29814 L 60.202535,100.57541 63.832839,96.239212 69.782503,89.785339 69.883345,87.768504 65.446307,85.146618 70.286712,85.348301 72.101864,85.953352 75.227959,82.726415 76.034693,80.507897 73.513649,79.196954 68.673244,75.970017 66.253041,72.642239 Z"
       id="path1787"
       inkscape:connector-curvature="0"
       sodipodi:nodetypes="ccccccccccccccccccccccccccccccaccccccccssacscsssasccacccccccccccccscccacccccccccccccc" />
  </g>
</svg>
