<?xml version="1.0" encoding="UTF-8" standalone="no"?>
<!-- Created with Inkscape (http://www.inkscape.org/) -->

<svg
   xmlns:dc="http://purl.org/dc/elements/1.1/"
   xmlns:cc="http://creativecommons.org/ns#"
   xmlns:rdf="http://www.w3.org/1999/02/22-rdf-syntax-ns#"
   xmlns:svg="http://www.w3.org/2000/svg"
   xmlns="http://www.w3.org/2000/svg"
   xmlns:sodipodi="http://sodipodi.sourceforge.net/DTD/sodipodi-0.dtd"
   xmlns:inkscape="http://www.inkscape.org/namespaces/inkscape"
   width="512"
   height="512"
   viewBox="0 0 135.46666 135.46667"
   version="1.1"
   id="svg8"
   inkscape:version="0.92.4 (5da689c313, 2019-01-14)"
   sodipodi:docname="U+6176.svg">
  <defs
     id="defs2" />
  <sodipodi:namedview
     id="base"
     pagecolor="#ffffff"
     bordercolor="#666666"
     borderopacity="1.0"
     inkscape:pageopacity="0.0"
     inkscape:pageshadow="2"
     inkscape:zoom="1.4142136"
     inkscape:cx="129.09349"
     inkscape:cy="260.27845"
     inkscape:document-units="px"
     inkscape:current-layer="layer9"
     showgrid="false"
     units="px"
     inkscape:window-width="1920"
     inkscape:window-height="1017"
     inkscape:window-x="-8"
     inkscape:window-y="-8"
     inkscape:window-maximized="1" />
  <metadata
     id="metadata5">
    <rdf:RDF>
      <cc:Work
         rdf:about="">
        <dc:format>image/svg+xml</dc:format>
        <dc:type
           rdf:resource="http://purl.org/dc/dcmitype/StillImage" />
        <dc:title></dc:title>
      </cc:Work>
    </rdf:RDF>
  </metadata>
  <g
     inkscape:groupmode="layer"
     id="layer9"
     inkscape:label="Layer 2"
     style="display:inline">
    <path
       style="fill:#000000;stroke:none;stroke-width:0.26458332px;stroke-linecap:butt;stroke-linejoin:miter;stroke-opacity:1;fill-opacity:1"
       d="M 55.191157,6.3754854 C 55.191157,6.3754854 65.73848,3.3989392 73.151668,10.865613 78.45253,30.925625 55.191157,6.3754854 55.191157,6.3754854 Z"
       id="path4915"
       inkscape:connector-curvature="0"
       sodipodi:nodetypes="ccc" />
    <path
       style="fill:#000000;stroke:none;stroke-width:0.26458332px;stroke-linecap:butt;stroke-linejoin:miter;stroke-opacity:1;fill-opacity:1"
       d="M 57.546874,34.925 C 57.546874,34.925 58.340624,42.068749 62.573958,42.465624 66.807291,42.862499 89.958332,31.353125 89.958332,31.353125 L 91.281249,32.411458 89.429166,38.1 C 89.429166,38.1 89.296874,42.994791 92.471874,41.407291 95.646874,39.819791 99.615624,34.263541 100.40937,33.734375 101.20312,33.205208 102.52604,30.030208 97.234374,27.119791 91.942707,24.209375 91.413541,25.4 91.413541,25.4 91.413541,25.4 86.121874,30.294791 73.024999,33.469791 59.928124,36.644791 57.546874,34.925 57.546874,34.925 Z"
       id="path4921"
       inkscape:connector-curvature="0" />
    <path
       style="fill:#000000;stroke:none;stroke-width:0.26458332px;stroke-linecap:butt;stroke-linejoin:miter;stroke-opacity:1;fill-opacity:1"
       d="M 55.033333,47.360416 C 55.033333,47.360416 53.181249,50.403124 53.578124,51.064583 53.974999,51.726041 57.679166,55.562499 59.134374,54.901041 60.589583,54.239583 66.278124,49.741666 69.717707,48.815624 73.157291,47.889583 89.296874,43.656249 91.281249,43.391666 93.265624,43.127083 95.514582,42.597916 95.514582,40.348958 95.514582,38.1 89.429166,38.1 82.417708,40.348958 73.832308,43.102765 60.854166,47.492708 59.398958,47.757291 57.943749,48.021874 55.033333,47.360416 55.033333,47.360416 Z"
       id="path4923"
       inkscape:connector-curvature="0"
       sodipodi:nodetypes="csssssssc" />
    <path
       style="fill:#000000;stroke:none;stroke-width:0.26458332px;stroke-linecap:butt;stroke-linejoin:miter;stroke-opacity:1;fill-opacity:1"
       d="M 61.251041,28.310416 C 64.116051,30.784743 66.621911,45.074991 66.939582,48.021875 66.939582,48.021875 69.39378,49.258061 71.172916,41.142708 73.726518,29.494703 61.704736,27.040071 61.251041,28.310416 Z"
       id="path4925"
       inkscape:connector-curvature="0"
       sodipodi:nodetypes="cssc" />
    <path
       style="fill:#000000;stroke:none;stroke-width:0.26458332px;stroke-linecap:butt;stroke-linejoin:miter;stroke-opacity:1;fill-opacity:1"
       d="M 75.670832,21.43125 C 76.208789,21.610569 78.253225,42.748094 76.795312,44.91302 75.144463,47.364446 81.049006,44.307908 81.293228,42.664062 81.386519,42.036126 83.893967,26.613172 84.997395,26.061458 84.997395,26.061458 84.071353,19.380729 75.670832,21.43125 Z"
       id="path4927"
       inkscape:connector-curvature="0"
       sodipodi:nodetypes="csscc" />
    <path
       style="fill:#000000;stroke:none;stroke-width:0.26458332px;stroke-linecap:butt;stroke-linejoin:miter;stroke-opacity:1;fill-opacity:1"
       d="M 105.61155,46.038283 C 67.594362,52.798558 59.234442,60.708955 53.881535,59.7893 M 105.61155,46.038283 C 109.4109,43.998719 112.2532,43.699676 112.44029,44.260941 112.62738,44.822207 116.36915,48.189803 119.73675,50.06069 123.10434,51.931575 122.07535,55.579806 118.98839,58.760312 115.90143,61.94082 113.56282,60.537653 112.06611,60.163477 110.5694,59.7893 112.34674,58.760312 112.81447,58.199046 113.28219,57.63778 113.37573,51.744488 113.0951,50.715499 112.81447,49.686511 108.60497,49.031702 107.66953,49.031702 106.73408,49.031702 82.412559,54.457271 75.583822,56.608791 68.755085,58.760312 57.62331,67.36639 56.874954,67.834112 56.126599,68.301835 53.320269,67.55348 53.320269,66.711581 53.320269,65.869682 48.736599,62.876263 48.268876,61.847274 47.801154,60.818288 50.701027,59.040945 50.701027,59.040945 L 53.881535,59.7893"
       id="path4929"
       inkscape:connector-curvature="0"
       sodipodi:nodetypes="csscssscsssscccc" />
    <path
       style="fill:#000000;stroke:none;stroke-width:0.26458332px;stroke-linecap:butt;stroke-linejoin:miter;stroke-opacity:1;fill-opacity:1"
       d="M 54.162168,70.921075 51.355839,77.656268 C 51.355839,77.656268 51.497862,81.685287 52.85255,82.894751 53.842949,83.778978 55.580996,84.11679 56.781411,83.54956 58.70119,82.642411 59.184008,80.222974 59.961917,78.030445 L 56.968498,77.749812 C 54.518277,77.520104 54.657293,72.683616 54.162168,70.921075 Z"
       id="path4933"
       inkscape:connector-curvature="0"
       sodipodi:nodetypes="ccaacsc" />
    <path
       style="fill:#000000;stroke:none;stroke-width:0.26458332px;stroke-linecap:butt;stroke-linejoin:miter;stroke-opacity:1;fill-opacity:1"
       d="M 71.000148,65.401959 C 71.000148,65.401959 72.496859,62.40854 73.619391,62.40854 74.741923,62.40854 78.577241,65.589049 79.512683,65.589049 80.448125,65.589049 82.506102,64.279427 82.973824,64.372971 83.441544,64.466517 83.441544,69.050188 81.477114,70.921075 79.512683,72.791962 77.174076,72.791962 75.677365,69.985632 74.180657,67.179303 71.000148,65.401959 71.000148,65.401959 Z"
       id="path4935"
       inkscape:connector-curvature="0" />
    <path
       style="fill:#000000;stroke:none;stroke-width:0.26458332px;stroke-linecap:butt;stroke-linejoin:miter;stroke-opacity:1;fill-opacity:1"
       d="M 93.544333,58.947401 C 93.544333,58.947401 104.39548,67.36639 108.69852,65.21487 113.00155,63.063352 108.8856,56.234615 93.544333,58.947401 Z"
       id="path4937"
       inkscape:connector-curvature="0" />
    <path
       style="fill:#000000;stroke:none;stroke-width:0.26458332px;stroke-linecap:butt;stroke-linejoin:miter;stroke-opacity:1;fill-opacity:1"
       d="M 86.528509,67.36639 C 86.528509,67.36639 88.96066,70.827531 89.989648,71.295251 91.018637,71.762974 93.2637,72.32424 93.076611,73.072595 92.889524,73.82095 91.766989,74.569303 91.766989,74.569303 91.766989,74.569303 88.212307,74.756393 86.434963,76.066014 84.657622,77.375635 71.748504,93.558803 70.906605,94.120069 70.064706,94.681335 55.47179,111.79995 53.413815,114.13856 51.355839,116.47716 43.778749,120.49957 43.685203,119.37704 43.591659,118.25451 45.930266,109.74197 46.772165,109.18071 47.614067,108.61944 48.081787,111.0516 49.204318,110.30324 50.32685,109.55488 70.064706,89.723485 72.403313,86.449433 74.741923,83.175384 86.528509,67.36639 86.528509,67.36639 Z"
       id="path4939"
       inkscape:connector-curvature="0" />
    <path
       style="fill:#000000;stroke:none;stroke-width:0.26458332px;stroke-linecap:butt;stroke-linejoin:miter;stroke-opacity:1;fill-opacity:1"
       d="M 65.574579,71.575887 C 65.574579,71.575887 69.877616,80.369052 78.203062,81.865763 86.528509,83.362471 102.15041,80.462598 102.43104,79.714242 102.71168,78.965887 103.64713,74.662847 99.718255,73.353228 99.384754,75.228066 78.318652,82.863494 65.574579,71.575887 Z"
       id="path4941"
       inkscape:connector-curvature="0"
       sodipodi:nodetypes="csccc" />
    <path
       style="fill:#000000;stroke:none;stroke-width:0.26458332px;stroke-linecap:butt;stroke-linejoin:miter;stroke-opacity:1;fill-opacity:1"
       d="M 65.481032,85.513991 C 65.481032,85.513991 72.164043,90.659102 75.116099,93.652347 79.394214,97.990153 82.096767,103.80448 86.715596,107.77754 90.871038,111.352 100.84079,116.19653 100.84079,116.19653 100.84079,116.19653 108.75274,121.57069 114.59181,122.27691 120.39747,119.93705 134.01146,115.35833 134.47448,115.49062 134.9375,115.62292 103.12704,108.98907 89.164582,101.6 86.7663,100.33081 84.825219,98.328842 82.814582,96.50677 79.683604,93.669427 77.638073,89.508605 73.951041,87.444791 71.4242,86.030393 65.481032,85.513991 65.481032,85.513991 Z"
       id="path4943"
       inkscape:connector-curvature="0"
       sodipodi:nodetypes="caacccaaac" />
    <path
       style="fill:#000000;stroke:none;stroke-width:0.26458332px;stroke-linecap:butt;stroke-linejoin:miter;stroke-opacity:1;fill-opacity:1"
       d="M 91.810416,86.055728 C 91.810416,86.055728 84.402082,101.73229 76.398437,107.42083 68.394791,113.10937 60.192708,116.54896 60.192708,116.54896 60.192708,116.54896 65.616666,119.45937 69.916145,117.80573 74.215624,116.15208 82.572478,109.97171 86.98177,104.17969 90.206724,99.943407 93.530207,92.339582 93.265624,89.495311 93.00104,86.651041 91.810416,86.055728 91.810416,86.055728 Z"
       id="path4945"
       inkscape:connector-curvature="0"
       sodipodi:nodetypes="csccasc" />
    <path
       style="display:inline;fill:#000000;stroke:none;stroke-width:0.26458332px;stroke-linecap:butt;stroke-linejoin:miter;stroke-opacity:1;fill-opacity:1"
       d="M 37.417734,20.032958 C 37.417734,20.032958 31.992162,26.955239 39.288619,30.322834 38.253989,32.933058 77.352393,12.965311 109.82105,15.917007 111.71109,17.996054 106.88305,7.9575589 98.969905,8.807638 94.988648,12.235083 43.141384,24.134122 41.346596,22.839288 39.849885,22.090933 37.417734,20.032958 37.417734,20.032958 Z"
       id="path4913"
       inkscape:connector-curvature="0"
       sodipodi:nodetypes="cccccc" />
    <path
       style="display:inline;fill:#000000;stroke:none;stroke-width:0.26458332px;stroke-linecap:butt;stroke-linejoin:miter;stroke-opacity:1;fill-opacity:1"
       d="M 45.275457,31.258277 C 45.275457,31.258277 48.643053,31.07119 50.139763,32.754988 51.636472,34.438785 52.571914,36.870939 52.571914,36.870939 52.571914,36.870939 42.363791,72.782964 34.330769,89.536396 26.253287,108.18555 3.1175427,127.03362 1.4733232,122.8148 7.3230288,120.97438 27.522205,98.165978 33.67596,81.210951 40.221819,66.6608 44.97711,54.993641 48.643053,37.619291 48.455914,35.227453 45.275457,31.258277 45.275457,31.258277 Z"
       id="path4919"
       inkscape:connector-curvature="0"
       sodipodi:nodetypes="cscccccc" />
  </g>
</svg>
