<?xml version="1.0" encoding="UTF-8" standalone="no"?>
<!-- Created with Inkscape (http://www.inkscape.org/) -->

<svg
   xmlns:dc="http://purl.org/dc/elements/1.1/"
   xmlns:cc="http://creativecommons.org/ns#"
   xmlns:rdf="http://www.w3.org/1999/02/22-rdf-syntax-ns#"
   xmlns:svg="http://www.w3.org/2000/svg"
   xmlns="http://www.w3.org/2000/svg"
   xmlns:sodipodi="http://sodipodi.sourceforge.net/DTD/sodipodi-0.dtd"
   xmlns:inkscape="http://www.inkscape.org/namespaces/inkscape"
   width="512"
   height="512"
   viewBox="0 0 135.46666 135.46667"
   version="1.1"
   id="svg8"
   inkscape:version="0.92.4 (5da689c313, 2019-01-14)"
   sodipodi:docname="U+74A7.svg">
  <defs
     id="defs2" />
  <sodipodi:namedview
     id="base"
     pagecolor="#ffffff"
     bordercolor="#666666"
     borderopacity="1.0"
     inkscape:pageopacity="0.0"
     inkscape:pageshadow="2"
     inkscape:zoom="1.4"
     inkscape:cx="243.22793"
     inkscape:cy="279.94033"
     inkscape:document-units="px"
     inkscape:current-layer="layer3"
     showgrid="false"
     units="px"
     inkscape:window-width="1920"
     inkscape:window-height="1017"
     inkscape:window-x="-8"
     inkscape:window-y="-8"
     inkscape:window-maximized="1" />
  <metadata
     id="metadata5">
    <rdf:RDF>
      <cc:Work
         rdf:about="">
        <dc:format>image/svg+xml</dc:format>
        <dc:type
           rdf:resource="http://purl.org/dc/dcmitype/StillImage" />
        <dc:title></dc:title>
      </cc:Work>
    </rdf:RDF>
  </metadata>
  <g
     inkscape:groupmode="layer"
     id="layer3"
     inkscape:label="Layer 2">
    <path
       style="display:inline;fill:#000000;stroke:none;stroke-width:0.26458332px;stroke-linecap:butt;stroke-linejoin:miter;stroke-opacity:1;fill-opacity:1"
       d="M 37.952272,6.3754846 C 37.952272,6.3754846 36.749561,8.380006 36.883194,9.9836233 37.01683,11.58724 41.025873,16.531727 41.025873,16.531727 L 43.698567,17.066266 C 43.698567,17.066266 46.772168,14.39357 50.246671,13.057223 53.721174,11.720875 65.080128,11.319971 65.080128,11.319971 L 67.084651,11.052701 C 67.084651,11.052701 70.158249,9.4490843 70.425521,8.9145453 70.69279,8.380006 71.360963,6.7763889 71.360963,6.7763889 L 67.752824,2.6337113 63.610148,0.09465085 59.333836,1.2973637 49.043957,6.6427542 41.694047,7.9791019 Z"
       id="path4551"
       inkscape:connector-curvature="0" />
    <path
       style="display:inline;fill:#000000;stroke:none;stroke-width:0.26458332px;stroke-linecap:butt;stroke-linejoin:miter;stroke-opacity:1;fill-opacity:1"
       d="M 55.792512,8.4468233 54.255714,15.462649 53.053,19.672143 C 53.053,19.672143 58.66566,19.204422 58.999746,18.937152 59.333836,18.669883 61.338356,16.598544 61.338356,16.598544 L 63.610148,12.990405 C 63.610148,12.990405 66.416477,8.4468233 66.416477,8.1127366 66.416477,7.7786496 60.670183,5.6404935 60.670183,5.6404935 Z"
       id="path4553"
       inkscape:connector-curvature="0" />
    <path
       style="display:inline;fill:#000000;stroke:none;stroke-width:0.26458332px;stroke-linecap:butt;stroke-linejoin:miter;stroke-opacity:1;fill-opacity:1"
       d="M 28.253719,14.986755 C 28.253719,14.986755 26.363839,15.837202 27.78125,17.727083 29.19866,19.616964 32.316965,22.073809 32.316965,22.073809 L 34.017857,25.475595 33.545385,30.861756 31.466517,44.185416 24.095982,70.265773 13.229167,89.448065 3.7797618,100.97634 C 3.7797618,100.97634 16.158482,93.227825 16.914434,92.188391 17.670387,91.148957 24.662946,79.52619 24.662946,79.52619 24.662946,79.52619 26.363839,76.029909 28.820684,70.265773 31.277531,64.501635 34.490326,49.382589 34.490326,49.382589 L 36.758184,37.381844 38.085908,28.826124 38.353177,21.409395 34.344133,17.46717 29.266012,15.395831 Z"
       id="path4555"
       inkscape:connector-curvature="0" />
    <path
       style="display:inline;fill:#000000;stroke:none;stroke-width:0.26458332px;stroke-linecap:butt;stroke-linejoin:miter;stroke-opacity:1;fill-opacity:1"
       d="M 35.68048,25.151169 36.615925,23.013012 43.36448,21.142126 51.04848,18.068526 58.732477,16.598544 63.342876,17.934892 63.676963,19.00397 62.741521,20.340317 49.845766,28.291586 44.099472,32.233811 39.55589,31.49882 36.081385,29.093395 Z"
       id="path4557"
       inkscape:connector-curvature="0" />
    <path
       style="display:inline;fill:#000000;stroke:none;stroke-width:0.26458332px;stroke-linecap:butt;stroke-linejoin:miter;stroke-opacity:1;fill-opacity:1"
       d="M 34.277315,41.387791 33.943229,44.795479 36.215021,45.931375 38.887717,48.737705 39.622708,53.414921 39.689524,55.352624 44.433558,58.82713 46.838983,59.896208 47.70761,59.562121 49.043957,56.221251 48.308966,51.209947 47.974879,46.198644 44.700827,42.99141 38.820899,41.521427 Z"
       id="path4559"
       inkscape:connector-curvature="0" />
    <path
       style="display:inline;fill:#000000;stroke:none;stroke-width:0.26458332px;stroke-linecap:butt;stroke-linejoin:miter;stroke-opacity:1;fill-opacity:1"
       d="M 45.970359,36.109219 45.369001,38.982366 46.772168,41.588245 49.244411,43.191861 51.382567,43.058228 55.191157,40.853254 58.932931,38.915549 61.405174,38.514644 61.672443,39.984627 60.603365,43.926852 60.336096,45.998193 61.405174,49.33906 64.679226,45.864557 65.614668,42.456869 67.017833,38.715098 68.487816,37.311933 70.024616,36.109219 70.225067,33.570158 66.951015,30.830647 61.672443,28.625673 59.868373,31.298369 56.727957,33.703794 50.914844,35.708314 Z"
       id="path4561"
       inkscape:connector-curvature="0" />
    <path
       style="display:inline;fill:#000000;stroke:none;stroke-width:0.26458332px;stroke-linecap:butt;stroke-linejoin:miter;stroke-opacity:1;fill-opacity:1"
       d="M 43.36448,53.68219 45.769905,51.343583 51.182113,49.673147 58.064304,46.599548 62.273798,45.664104 66.149209,46.733182 67.35192,48.136349 66.951015,49.806783 62.941972,50.942679 56.193417,53.481739 51.449385,54.818086 46.70535,56.087615 43.832203,54.550817 Z"
       id="path4563"
       inkscape:connector-curvature="0" />
    <path
       style="display:inline;fill:#000000;stroke:none;stroke-width:0.26458332px;stroke-linecap:butt;stroke-linejoin:miter;stroke-opacity:1;fill-opacity:1"
       d="M 36.002232,66.674999 38.837052,69.698808 43.278274,71.58869 C 43.278274,71.58869 44.884673,71.777677 45.735118,71.399701 46.585565,71.021725 55.562499,66.48601 55.562499,66.48601 L 62.555058,64.123659 68.130207,63.084225 71.059523,61.761308 70.870534,60.532885 67.374256,59.304464 62.838541,59.115475 53.9561,62.139284 45.735118,64.879613 40.065475,66.769492 Z"
       id="path4565"
       inkscape:connector-curvature="0" />
    <path
       style="display:inline;fill:#000000;stroke:none;stroke-width:0.26458332px;stroke-linecap:butt;stroke-linejoin:miter;stroke-opacity:1;fill-opacity:1"
       d="M 36.380208,82.644492 45.262649,85.384821 H 47.719493 L 52.349701,83.778422 60.381697,79.904166 63.594492,77.447322 63.783482,75.651933 60.098214,74.14003 Z"
       id="path4567"
       inkscape:connector-curvature="0" />
    <path
       style="display:inline;fill:#000000;stroke:none;stroke-width:0.26458332px;stroke-linecap:butt;stroke-linejoin:miter;stroke-opacity:1;fill-opacity:1"
       d="M 46.207589,69.415326 47.908482,73.856547 48.853423,80.282141 49.703868,89.353571 50.081843,92.188391 55.468006,88.692113 56.601933,86.991218 57.92485,77.730801 58.113839,72.061159 55.940475,71.210714 51.688243,69.604315 Z"
       id="path4569"
       inkscape:connector-curvature="0" />
    <path
       style="display:inline;fill:#000000;stroke:none;stroke-width:0.26458332px;stroke-linecap:butt;stroke-linejoin:miter;stroke-opacity:1;fill-opacity:1"
       d="M 28.820684,95.495683 30.049107,99.086457 33.450892,101.73229 35.24628,102.58274 C 35.24628,102.58274 39.6875,99.464433 40.159969,99.086457 40.63244,98.708481 46.113094,95.873659 46.869048,95.590176 47.624999,95.306696 54.523065,92.188391 54.523065,92.188391 L 65.011905,91.43244 H 67.090773 L 71.437499,91.148957 70.681547,88.8811 67.27976,87.085714 63.405506,86.802231 43.656249,91.904909 C 43.656249,91.904909 35.52976,94.078273 35.151785,94.26726 34.773809,94.456249 28.820684,95.495683 28.820684,95.495683 Z"
       id="path4571"
       inkscape:connector-curvature="0" />
    <path
       style="display:inline;fill:#000000;stroke:none;stroke-width:0.26458332px;stroke-linecap:butt;stroke-linejoin:miter;stroke-opacity:1;fill-opacity:1"
       d="M 63.688988,83.305951 C 63.688988,83.305951 64.822916,84.628867 65.106398,85.290326 65.389881,85.951784 65.578867,86.707735 66.334822,89.070089 67.090773,91.43244 67.27976,93.889284 67.27976,93.889284 67.27976,93.889284 69.925593,96.34613 70.492558,96.34613 71.059523,96.34613 73.79985,94.739731 73.79985,94.739731 73.79985,94.739731 74.744791,91.621426 74.366815,90.865475 73.988839,90.109523 72.287947,87.274701 71.531992,86.518749 70.776041,85.762797 69.8311,85.479315 68.508183,84.91235 67.185267,84.345385 63.688988,83.305951 63.688988,83.305951 Z"
       id="path4573"
       inkscape:connector-curvature="0" />
    <path
       style="display:inline;fill:#000000;stroke:none;stroke-width:0.26458332px;stroke-linecap:butt;stroke-linejoin:miter;stroke-opacity:1;fill-opacity:1"
       d="M 70.826423,75.197387 77.508163,79.740968 80.047223,79.072795 83.521726,77.602812 93.811602,73.192867 112.38684,69.317456 C 112.38684,69.317456 117.73223,69.317456 117.59859,69.183823 117.46495,69.050188 127.6212,72.391057 127.6212,72.391057 L 130.6948,70.386537 125.88395,66.243858 120.00402,63.303893 114.39136,65.308416 102.49786,68.382014 75.904544,73.727404 Z"
       id="path4575"
       inkscape:connector-curvature="0" />
    <path
       style="fill:#000000;stroke:none;stroke-width:0.26458332px;stroke-linecap:butt;stroke-linejoin:miter;stroke-opacity:1;fill-opacity:1"
       d="M 85.800593,4.4979163 89.391367,2.0410713 95.627975,3.552976 100.91964,9.2226187 99.596725,12.435417 94.116071,13.758333 92.22619,10.734524 89.958332,7.1437496 Z"
       id="path4537"
       inkscape:connector-curvature="0" />
    <path
       style="fill:#000000;stroke:none;stroke-width:0.26458332px;stroke-linecap:butt;stroke-linejoin:miter;stroke-opacity:1;fill-opacity:1"
       d="M 72.38244,16.02619 72.193451,19.616964 75.784225,24.341666 78.997023,25.475595 85.800593,20.372916 108.66815,10.923512 110.93601,11.1125 109.99107,14.325297 120.76339,9.600595 126.62202,11.301488 127.56696,8.8446426 124.16518,4.6869045 117.73958,4.3089284 112.25893,7.521726 78.997023,16.971131 74.272322,16.593154 Z"
       id="path4539"
       inkscape:connector-curvature="0" />
    <path
       style="fill:#000000;stroke:none;stroke-width:0.26458332px;stroke-linecap:butt;stroke-linejoin:miter;stroke-opacity:1;fill-opacity:1"
       d="M 78.619047,30.95625 83.910714,39.082739 88.068451,43.240475 92.415176,41.161607 86.745534,32.279166 Z"
       id="path4541"
       inkscape:connector-curvature="0" />
    <path
       style="fill:#000000;stroke:none;stroke-width:0.26458332px;stroke-linecap:butt;stroke-linejoin:miter;stroke-opacity:1;fill-opacity:1"
       d="M 97.13988,21.884821 100.73065,25.097619 98.273808,38.515774 97.517856,42.106548 102.05357,38.515774 108.66815,25.853571 106.58928,22.640773 103.37649,22.451785 102.80952,20.372916 99.9747,19.238988 Z"
       id="path4543"
       inkscape:connector-curvature="0" />
    <path
       style="fill:#000000;stroke:none;stroke-width:0.26458332px;stroke-linecap:butt;stroke-linejoin:miter;stroke-opacity:1;fill-opacity:1"
       d="M 76.918155,43.051489 77.296131,47.77619 79.563988,50.988989 C 79.563988,50.988989 82.965773,50.799999 84.099701,50.233034 85.233631,49.666072 91.470238,46.453274 91.470238,46.453274 L 111.69196,40.405655 115.8497,39.271725 116.60565,37.570833 114.52678,35.113989 82.965773,44.374405 79.563988,43.80744 Z"
       id="path4545"
       inkscape:connector-curvature="0" />
    <path
       style="fill:#000000;stroke:none;stroke-width:0.26458332px;stroke-linecap:butt;stroke-linejoin:miter;stroke-opacity:1;fill-opacity:1"
       d="M 82.398808,59.304464 82.587797,61.383333 88.068451,64.218155 106.02232,55.71369 108.29018,54.957739 109.42411,52.689881 105.07738,50.799999 85.989582,58.737499 Z"
       id="path4547"
       inkscape:connector-curvature="0" />
    <path
       style="fill:#000000;stroke:none;stroke-width:0.26458332px;stroke-linecap:butt;stroke-linejoin:miter;stroke-opacity:1;fill-opacity:1"
       d="M 92.840401,43.760194 C 93.360117,43.571204 98.604537,43.334969 98.604537,43.334969 L 100.30543,44.988614 100.89425,81.478222 102.43155,128.66309 101.86458,133.57678 99.218749,134.71071 97.328867,132.63184 94.116071,125.63928 96.19494,122.80446 94.747047,65.041144 94.078874,48.470436 Z"
       id="path4549"
       inkscape:connector-curvature="0" />
  </g>
</svg>
