<?xml version="1.0" encoding="UTF-8" standalone="no"?>
<!-- Created with Inkscape (http://www.inkscape.org/) -->

<svg
   xmlns:dc="http://purl.org/dc/elements/1.1/"
   xmlns:cc="http://creativecommons.org/ns#"
   xmlns:rdf="http://www.w3.org/1999/02/22-rdf-syntax-ns#"
   xmlns:svg="http://www.w3.org/2000/svg"
   xmlns="http://www.w3.org/2000/svg"
   xmlns:sodipodi="http://sodipodi.sourceforge.net/DTD/sodipodi-0.dtd"
   xmlns:inkscape="http://www.inkscape.org/namespaces/inkscape"
   width="512"
   height="512"
   viewBox="0 0 135.46666 135.46667"
   version="1.1"
   id="svg8"
   inkscape:version="0.92.4 (5da689c313, 2019-01-14)"
   sodipodi:docname="U+798D.svg">
  <defs
     id="defs2" />
  <sodipodi:namedview
     id="base"
     pagecolor="#ffffff"
     bordercolor="#666666"
     borderopacity="1.0"
     inkscape:pageopacity="0.0"
     inkscape:pageshadow="2"
     inkscape:zoom="1.0834071"
     inkscape:cx="203.105"
     inkscape:cy="412.31775"
     inkscape:document-units="px"
     inkscape:current-layer="layer2"
     showgrid="false"
     inkscape:window-width="1920"
     inkscape:window-height="1017"
     inkscape:window-x="-8"
     inkscape:window-y="-8"
     inkscape:window-maximized="1"
     units="px" />
  <metadata
     id="metadata5">
    <rdf:RDF>
      <cc:Work
         rdf:about="">
        <dc:format>image/svg+xml</dc:format>
        <dc:type
           rdf:resource="http://purl.org/dc/dcmitype/StillImage" />
        <dc:title></dc:title>
      </cc:Work>
    </rdf:RDF>
  </metadata>
  <g
     inkscape:groupmode="layer"
     id="layer2"
     inkscape:label="圖層 2"
     transform="translate(0,-161.53332)">
    <path
       style="fill:#000000;fill-opacity:1;stroke:none;stroke-width:0.26458332px;stroke-linecap:butt;stroke-linejoin:miter;stroke-opacity:1"
       d="M 36.632122,183.44042 C 36.632122,183.44042 42.493262,181.4867 44.446975,181.24249 46.400687,180.99827 52.017611,184.66149 52.50604,186.12677 52.994469,187.59206 53.971326,189.54577 53.238682,190.76684 52.50604,191.98791 49.331257,192.96477 47.865971,191.98791 46.400687,191.01105 45.179616,191.25527 44.691188,189.54577 44.202759,187.83627 42.737475,185.88256 40.783763,185.14992 38.830048,184.41727 36.632122,183.44042 36.632122,183.44042 Z"
       id="path827"
       inkscape:connector-curvature="0" />
    <path
       style="fill:#000000;fill-opacity:1;stroke:none;stroke-width:0.26458332px;stroke-linecap:butt;stroke-linejoin:miter;stroke-opacity:1"
       d="M 2.9305691,223.73575 C 2.9305691,223.73575 3.1747851,220.56097 4.6400691,220.80518 6.1053551,221.04939 8.5474961,222.27046 8.5474961,222.27046 8.5474961,222.27046 10.256995,223.97996 12.699137,223.00311 15.141278,222.02625 39.318477,212.01347 39.318477,212.01347 39.318477,212.01347 41.272189,211.28083 41.760618,210.05976 42.249047,208.83869 42.737475,206.64076 44.691188,207.12919 46.6449,207.61761 53.727111,208.83869 53.727111,208.83869 53.727111,208.83869 56.901896,207.86183 55.43661,211.03661 53.971326,214.2114 53.238682,214.2114 50.796541,214.94404 48.354399,215.67668 49.331257,214.2114 47.377545,217.14197 45.42383,220.07254 39.562692,226.66632 38.097406,228.62003 36.632122,230.57375 30.038341,238.87702 28.328841,240.34231 26.619342,241.80759 18.80449,249.13402 17.339203,250.84352 15.87392,252.55302 12.699137,253.77409 12.94335,252.55302 13.187563,251.33195 20.269773,244.24974 22.223488,242.54024 24.177201,240.83074 38.341622,223.00311 38.341622,222.02625 38.341622,221.04939 41.272189,216.89775 41.272189,215.9209 41.272189,214.94404 39.806905,215.67668 37.853193,216.89775 35.899478,218.11882 19.292918,226.4221 19.292918,226.4221 19.292918,226.4221 12.94335,229.59689 12.454921,230.57375 11.966492,231.5506 11.478066,234.9696 10.501209,234.72538 9.5243511,234.48117 6.1053551,233.2601 5.3727101,232.28324 4.6400691,231.30639 2.1979271,224.95682 2.9305691,223.73575 Z"
       id="path829"
       inkscape:connector-curvature="0" />
    <path
       style="fill:#000000;fill-opacity:1;stroke:none;stroke-width:0.26458332px;stroke-linecap:butt;stroke-linejoin:miter;stroke-opacity:1"
       d="M 38.830048,223.97996 C 39.562692,224.95682 41.760618,224.46839 41.027976,229.10846 40.295334,233.74853 40.051118,239.60967 40.051118,243.27288 40.051118,246.93609 39.562692,267.69429 39.562692,267.69429 39.562692,267.69429 39.074263,268.91537 39.318477,274.04386 39.562692,279.17236 40.783763,282.59136 39.806905,284.78928 38.830048,286.98721 35.166836,282.83557 34.434194,279.905 33.701552,276.97443 32.968911,276.73022 34.678407,273.06701 36.387907,269.40379 36.632122,267.45008 36.632122,262.81001 36.632122,258.16994 37.364764,233.2601 37.364764,233.2601 37.364764,233.2601 37.364764,229.35267 36.143694,228.86425 34.922623,228.37582 37.364764,224.71261 38.830048,223.97996 Z"
       id="path831"
       inkscape:connector-curvature="0" />
    <path
       style="fill:#000000;fill-opacity:1;stroke:none;stroke-width:0.26458332px;stroke-linecap:butt;stroke-linejoin:miter;stroke-opacity:1"
       d="M 39.074263,229.35267 C 39.074263,229.35267 45.179616,229.8411 49.57547,232.28324 53.971326,234.72538 59.344037,237.16753 60.320892,240.09809 61.29775,243.02866 62.030392,244.73816 60.076679,245.47081 58.122967,246.20345 57.146109,248.8898 52.017611,241.31917 46.889116,233.74853 41.027976,229.59689 39.074263,229.35267 Z"
       id="path833"
       inkscape:connector-curvature="0" />
    <path
       style="fill:#000000;fill-opacity:1;stroke:none;stroke-width:0.26458332px;stroke-linecap:butt;stroke-linejoin:miter;stroke-opacity:1"
       d="M 67.891529,200.04698 C 67.891529,200.04698 69.356819,198.33748 69.601029,197.36062 69.845239,196.38376 70.089459,196.13955 72.531599,197.60483 74.973739,199.07012 79.125379,201.51226 79.858029,206.39654 80.590669,211.28083 82.055949,234.48117 82.055949,234.48117 82.055949,234.48117 81.811739,238.14438 80.834879,238.63281 79.858029,239.12124 76.194809,236.43488 76.439029,233.99274 76.683239,231.5506 74.729529,212.74611 74.729529,212.74611 74.729529,212.74611 73.508459,208.59447 72.287389,207.61761 71.066319,206.64076 67.891529,207.12919 67.891529,200.04698 Z"
       id="path835"
       inkscape:connector-curvature="0" />
    <path
       style="fill:#000000;fill-opacity:1;stroke:none;stroke-width:0.26458332px;stroke-linecap:butt;stroke-linejoin:miter;stroke-opacity:1"
       d="M 81.323309,192.47634 C 81.323309,192.47634 79.369599,195.16269 80.102239,196.62798 80.834879,198.09326 83.765449,200.77962 84.742309,202.48912 85.719169,204.19862 84.986519,205.90812 87.917089,203.9544 90.847659,202.00069 94.022449,199.80276 96.953019,199.31433 99.883589,198.8259 101.59308,197.84905 102.81415,199.07012 104.03522,200.29119 103.5468,202.00069 103.5468,203.71019 103.5468,205.41969 102.08151,230.81796 102.08151,230.81796 102.08151,230.81796 102.32573,231.79482 102.81415,232.77167 103.30258,233.74853 107.21001,233.01589 106.96579,230.08532 106.72158,227.15475 108.43108,202.00069 108.43108,202.00069 108.43108,202.00069 109.65215,198.58169 111.85008,197.60483 114.048,196.62798 113.55958,193.69741 113.55958,193.69741 113.55958,193.69741 112.58272,191.01105 110.87322,190.27841 109.16372,189.54577 107.21001,186.37099 106.23315,184.9057 105.2563,183.44042 103.5468,182.46356 102.56994,183.44042 101.59308,184.41727 100.61623,188.08048 100.61623,188.08048 100.61623,188.08048 101.8373,188.08048 99.883589,189.05734 97.929869,190.0342 92.557159,192.72055 91.580309,192.72055 90.603449,192.72055 81.567519,194.18584 81.323309,192.47634 Z"
       id="path837"
       inkscape:connector-curvature="0" />
    <path
       style="fill:#000000;fill-opacity:1;stroke:none;stroke-width:0.26458332px;stroke-linecap:butt;stroke-linejoin:miter;stroke-opacity:1"
       d="M 88.893949,207.3734 C 88.893949,207.3734 94.266659,208.83869 95.976159,211.03661 97.685659,213.23454 99.150939,214.69983 96.708799,216.65354 94.266659,218.60725 80.834879,228.37582 79.125379,228.62003 77.415879,228.86425 77.904309,225.44525 81.079099,223.24732 84.253879,221.04939 87.428659,215.43247 87.917089,214.45561 88.405519,213.47875 88.893949,211.28083 88.405519,210.05976 87.917089,208.83869 86.940239,207.3734 88.893949,207.3734 Z"
       id="path839"
       inkscape:connector-curvature="0" />
    <path
       style="fill:#000000;fill-opacity:1;stroke:none;stroke-width:0.26458332px;stroke-linecap:butt;stroke-linejoin:miter;stroke-opacity:1"
       d="M 90.115019,217.6304 C 90.115019,217.6304 95.976159,219.09568 97.441439,220.07254 98.906729,221.04939 100.86044,222.51468 100.61623,223.97996 100.37201,225.44525 97.441439,227.64318 96.464589,226.17789 95.487729,224.71261 88.161309,219.33989 87.917089,218.60725 87.672879,217.87461 87.672879,217.87461 90.115019,217.6304 Z"
       id="path841"
       inkscape:connector-curvature="0" />
    <path
       style="fill:#000000;fill-opacity:1;stroke:none;stroke-width:0.26458332px;stroke-linecap:butt;stroke-linejoin:miter;stroke-opacity:1"
       d="M 63.251462,241.31917 C 64.960962,242.05181 66.426249,242.05181 68.135749,243.51709 69.845239,244.98238 69.356819,246.20345 69.601029,248.64559 69.845239,251.08773 70.333669,263.05423 71.066319,264.76372 71.798959,266.47322 72.531599,268.18272 71.066319,269.64801 69.601029,271.11329 65.44939,267.93851 65.937819,264.51951 66.426249,261.10051 65.693603,249.13402 64.960962,247.42452 64.22832,245.71502 61.053537,241.31917 63.251462,241.31917 Z"
       id="path843"
       inkscape:connector-curvature="0" />
    <path
       style="fill:#000000;fill-opacity:1;stroke:none;stroke-width:0.26458332px;stroke-linecap:butt;stroke-linejoin:miter;stroke-opacity:1"
       d="M 68.135749,236.6791 C 68.135749,236.6791 67.647319,233.74853 70.333669,233.99274 73.020029,234.23696 92.312949,231.30639 94.510879,230.81796 96.708799,230.32953 111.85008,228.62003 111.85008,228.62003 111.85008,228.62003 115.02486,227.88739 116.24593,227.15475 117.467,226.4221 117.22279,224.46839 120.39757,225.93368 123.57236,227.39896 126.50293,230.81796 127.724,232.52746 128.94507,234.23696 131.38721,234.72538 131.143,235.70224 130.89878,236.6791 121.61864,262.07737 121.86286,263.54265 122.10707,265.00794 121.61864,268.18272 120.886,270.13644 120.15336,272.09015 118.68807,276.24179 118.68807,276.24179 118.68807,276.24179 117.71122,279.17236 115.26908,276.24179 112.82693,273.31122 112.33851,266.47322 110.87322,263.54265 109.40794,260.61208 108.67529,259.39101 108.67529,259.39101 108.67529,259.39101 113.07115,262.5658 114.53643,262.07737 116.00172,261.58894 120.64179,241.07495 120.886,240.09809 121.13021,239.12124 121.37443,233.2601 119.90914,233.2601 118.44386,233.2601 99.639369,234.9696 97.197229,235.70224 94.755089,236.43488 86.207589,238.87702 82.788599,239.85388 79.369599,240.83074 74.729529,242.54024 72.531599,240.58652 70.333669,238.63281 67.158889,238.3886 68.135749,236.6791 Z"
       id="path845"
       inkscape:connector-curvature="0" />
    <path
       style="fill:#000000;fill-opacity:1;stroke:none;stroke-width:0.26458332px;stroke-linecap:butt;stroke-linejoin:miter;stroke-opacity:1"
       d="M 76.683239,250.35509 C 76.683239,250.35509 76.439029,245.71502 77.904309,245.95923 79.369599,246.20345 83.765449,246.20345 84.009669,247.1803 84.253879,248.15716 86.696019,249.37823 86.207589,251.33195 85.719169,253.28566 85.719169,255.7278 86.207589,257.68151 86.696019,259.63523 87.917089,260.61208 87.428659,262.81001 86.940239,265.00794 86.207589,267.20587 84.986519,266.71744 83.765449,266.22901 80.590669,261.34473 80.590669,259.87944 80.590669,258.41416 80.590669,254.75094 80.102239,253.77409 79.613809,252.79723 77.171669,250.11087 76.683239,250.35509 Z"
       id="path849"
       inkscape:connector-curvature="0" />
    <path
       style="fill:#000000;fill-opacity:1;stroke:none;stroke-width:0.26458332px;stroke-linecap:butt;stroke-linejoin:miter;stroke-opacity:1"
       d="M 81.323309,247.66873 C 81.323309,247.66873 81.811739,245.71502 83.765449,246.20345 85.719169,246.69188 88.893949,245.95923 90.847659,244.73816 92.801379,243.51709 94.999299,241.31917 94.999299,241.31917 94.999299,241.31917 95.731949,240.34231 96.708799,240.58652 97.685659,240.83074 100.86044,241.80759 100.86044,241.80759 100.86044,241.80759 101.8373,243.02866 102.56994,244.00552 103.30258,244.98238 105.74472,246.44766 104.52365,249.37823 103.30258,252.3088 99.883589,256.46044 99.395159,257.68151 98.906729,258.90258 96.708799,260.61208 96.464589,258.90258 96.220369,257.19309 95.731949,255.97201 96.220369,253.77409 96.708799,251.57616 95.243519,247.91295 93.778229,248.8898 92.312949,249.86666 87.184449,251.82037 84.986519,252.3088 82.788599,252.79723 80.834879,250.84352 81.323309,247.66873 Z"
       id="path851"
       inkscape:connector-curvature="0" />
    <path
       style="fill:#000000;fill-opacity:1;stroke:none;stroke-width:0.26458332px;stroke-linecap:butt;stroke-linejoin:miter;stroke-opacity:1"
       d="M 83.765449,260.8563 C 83.765449,260.8563 84.253879,259.1468 87.672879,258.16994 91.091879,257.19309 96.220369,256.21623 97.685659,255.7278 99.150939,255.23937 102.56994,256.46044 103.05837,256.70466 103.5468,256.94887 107.21001,258.90258 101.10466,260.8563 94.999299,262.81001 93.289799,261.83315 89.870809,262.5658 86.451809,263.29844 83.521239,263.78687 83.765449,260.8563 Z"
       id="path853"
       inkscape:connector-curvature="0" />
  </g>
</svg>
