<?xml version="1.0" encoding="UTF-8" standalone="no"?>
<!-- Created with Inkscape (http://www.inkscape.org/) -->

<svg
   xmlns:dc="http://purl.org/dc/elements/1.1/"
   xmlns:cc="http://creativecommons.org/ns#"
   xmlns:rdf="http://www.w3.org/1999/02/22-rdf-syntax-ns#"
   xmlns:svg="http://www.w3.org/2000/svg"
   xmlns="http://www.w3.org/2000/svg"
   xmlns:sodipodi="http://sodipodi.sourceforge.net/DTD/sodipodi-0.dtd"
   xmlns:inkscape="http://www.inkscape.org/namespaces/inkscape"
   width="512"
   height="512"
   viewBox="0 0 135.46666 135.46666"
   version="1.1"
   id="svg8"
   inkscape:version="0.92.4 (5da689c313, 2019-01-14)"
   sodipodi:docname="U+798F.svg">
  <defs
     id="defs2" />
  <sodipodi:namedview
     id="base"
     pagecolor="#ffffff"
     bordercolor="#666666"
     borderopacity="1.0"
     inkscape:pageopacity="0.0"
     inkscape:pageshadow="2"
     inkscape:zoom="1.6369738"
     inkscape:cx="360.25254"
     inkscape:cy="222.29375"
     inkscape:document-units="px"
     inkscape:current-layer="layer2"
     showgrid="false"
     inkscape:window-width="1920"
     inkscape:window-height="1017"
     inkscape:window-x="-8"
     inkscape:window-y="-8"
     inkscape:window-maximized="1"
     units="px" />
  <metadata
     id="metadata5">
    <rdf:RDF>
      <cc:Work
         rdf:about="">
        <dc:format>image/svg+xml</dc:format>
        <dc:type
           rdf:resource="http://purl.org/dc/dcmitype/StillImage" />
        <dc:title></dc:title>
      </cc:Work>
    </rdf:RDF>
  </metadata>
  <g
     inkscape:groupmode="layer"
     id="layer2"
     inkscape:label="圖層 2"
     transform="translate(0,-161.53333)">
    <path
       style="fill:#000000;stroke:none;stroke-width:0.26458332px;stroke-linecap:butt;stroke-linejoin:miter;stroke-opacity:1;fill-opacity:1"
       d="M 4.8001523,211.28298 C 4.8001523,211.28298 10.514619,220.19755 13.486142,219.7404 16.457665,219.28324 41.37274,203.73989 41.37274,203.73989 41.37274,203.73989 37.486903,214.02593 34.972539,219.28324 32.458172,224.54055 12.11467,246.02694 12.11467,246.02694 12.11467,246.02694 27.886598,239.16958 38.858376,221.11187 49.830151,203.05415 52.573097,206.48283 52.573097,202.59699 52.573097,198.71116 48.68726,195.73964 46.630051,195.0539 44.572844,194.36816 40.687004,201.22552 39.086955,202.13984 37.486903,203.05415 18.972031,210.82583 14.171878,210.82583 9.3717259,210.82583 4.8001523,211.28298 4.8001523,211.28298 Z"
       id="path838"
       inkscape:connector-curvature="0" />
    <path
       style="fill:#000000;stroke:none;stroke-width:0.26458332px;stroke-linecap:butt;stroke-linejoin:miter;stroke-opacity:1;fill-opacity:1"
       d="M 40.892273,211.98286 C 40.892273,211.98286 38.302789,217.4784 38.46783,221.519 38.632743,225.55646 40.151936,254.9085 34.427091,260.63334 33.253249,264.67826 37.971447,269.73584 40.569013,273.40208 42.667197,273.43363 43.639973,270.816 43.639973,267.90667 43.639973,264.99734 42.993455,222.32715 42.993455,220.54922 42.993455,218.7713 40.892273,211.98286 40.892273,211.98286 Z"
       id="path840"
       inkscape:connector-curvature="0"
       sodipodi:nodetypes="csccssc" />
    <path
       style="fill:#000000;stroke:none;stroke-width:0.26458332px;stroke-linecap:butt;stroke-linejoin:miter;stroke-opacity:1;fill-opacity:1"
       d="M 41.53879,219.57944 C 41.53879,219.57944 52.20634,234.77262 53.984266,232.18655 61.097591,224.89276 43.067637,218.23046 41.53879,219.57944 Z"
       id="path842"
       inkscape:connector-curvature="0"
       sodipodi:nodetypes="ccc" />
    <path
       style="fill:#000000;stroke:none;stroke-width:0.26458332px;stroke-linecap:butt;stroke-linejoin:miter;stroke-opacity:1;fill-opacity:1"
       d="M 71.116996,185.63724 C 71.116996,185.63724 80.653137,191.77916 81.138026,191.29427 81.622914,190.80938 100.53357,179.17206 109.09994,179.65695 117.6663,180.14184 128.65711,182.24302 128.65711,182.24302 128.65711,182.24302 127.5257,174.32317 123.1617,174.64643 118.79771,174.96969 71.116996,185.63724 71.116996,185.63724 Z"
       id="path844"
       inkscape:connector-curvature="0" />
    <path
       style="fill:#000000;stroke:none;stroke-width:0.26458332px;stroke-linecap:butt;stroke-linejoin:miter;stroke-opacity:1;fill-opacity:1"
       d="M 71.925142,198.08271 C 71.925142,198.08271 78.577275,213.48816 80.976397,221.03411 81.534764,222.79034 85.502023,225.07485 85.502023,225.07485 83.363933,201.65954 77.684098,200.92456 71.925142,198.08271 Z"
       id="path846"
       inkscape:connector-curvature="0"
       sodipodi:nodetypes="cscc" />
    <path
       style="fill:#000000;stroke:none;stroke-width:0.26458332px;stroke-linecap:butt;stroke-linejoin:miter;stroke-opacity:1;fill-opacity:1"
       d="M 83.40084,195.17338 C 82.154809,195.51886 83.40084,199.05249 83.40084,199.05249 84.855506,200.66879 86.471801,204.70953 87.441578,205.19441 88.411355,205.6793 99.887053,198.24435 100.85683,198.24435 101.82661,198.24435 101.50335,205.19441 101.34172,208.58863 101.18009,211.98286 103.76616,217.96315 106.35223,211.33634 108.93831,204.70953 112.00927,198.89086 112.97905,197.75946 113.94882,196.62805 108.61505,187.90005 106.51386,187.73842 104.41268,187.57679 101.98824,191.61753 101.98824,191.61753 101.98824,191.61753 89.056285,195.8366 87.764838,195.90072 86.768555,195.95018 85.322717,194.64051 83.40084,195.17338 Z"
       id="path850"
       inkscape:connector-curvature="0"
       sodipodi:nodetypes="sccssccscss" />
    <path
       style="fill:#000000;stroke:none;stroke-width:0.26458332px;stroke-linecap:butt;stroke-linejoin:miter;stroke-opacity:1;fill-opacity:1"
       d="M 81.703729,216.10441 C 81.703729,216.10441 84.693877,218.52885 85.25958,218.52885 85.825283,218.52885 101.42253,214.56893 104.17024,214.56893 106.91794,214.56893 105.86735,208.91189 101.09927,209.23515 96.331202,209.55841 81.703729,216.10441 81.703729,216.10441 Z"
       id="path852"
       inkscape:connector-curvature="0" />
    <path
       style="fill:#000000;stroke:none;stroke-width:0.26458332px;stroke-linecap:butt;stroke-linejoin:miter;stroke-opacity:1;fill-opacity:1"
       d="M 64.813444,233.72203 C 64.813444,233.72203 63.843667,236.95462 65.217518,239.86395 66.59137,242.77328 70.147219,244.30876 70.712922,245.35935 71.278625,246.40994 73.379808,261.19905 73.218179,263.54267 73.056551,265.8863 77.016474,269.84623 77.905437,269.92704 78.7944,270.00786 81.138026,268.63401 81.21884,267.5026 81.299657,266.37119 77.420548,256.83505 77.178102,248.99602 76.935659,241.15699 77.662991,241.8035 76.531585,240.42965 75.40018,239.0558 64.813444,233.72203 64.813444,233.72203 Z"
       id="path854"
       inkscape:connector-curvature="0"
       sodipodi:nodetypes="csssccssc" />
    <path
       style="fill:#000000;stroke:none;stroke-width:0.26458332px;stroke-linecap:butt;stroke-linejoin:miter;stroke-opacity:1;fill-opacity:1"
       d="M 72.733291,227.17603 C 72.733291,227.17603 74.430402,234.28773 78.632768,235.90403 82.835137,237.52032 85.853118,234.07576 89.461947,233.15633 96.413753,231.3852 107.64527,227.82255 110.31216,227.82255 112.97905,227.82255 117.74712,227.25685 117.6663,229.51966 117.58549,231.78247 115.08023,258.93623 113.14067,265.72468 111.20112,272.51312 117.1006,272.59393 117.90875,271.94741 118.71689,271.30089 120.89889,258.69379 121.22215,257.15831 121.54541,255.62283 125.66696,232.91388 126.47511,232.02492 127.28326,231.13595 122.11111,221.27655 116.37327,221.27655 110.63542,221.27655 105.78653,223.45855 105.78653,223.45855 93.70414,225.71396 80.344949,229.18814 72.733291,227.17603 Z"
       id="path856"
       inkscape:connector-curvature="0"
       sodipodi:nodetypes="ccascscscscc" />
    <path
       style="fill:#000000;stroke:none;stroke-width:0.26458332px;stroke-linecap:butt;stroke-linejoin:miter;stroke-opacity:1;fill-opacity:1"
       d="M 79.844991,244.95528 C 79.844991,244.95528 80.653137,249.07683 81.946174,250.12742 83.239212,251.17802 85.986912,253.19839 87.037504,253.19839 88.088098,253.19839 100.29113,245.84424 102.23068,245.68261 104.17024,245.52098 108.93831,239.78314 104.17024,239.70232 99.402165,239.6215 85.421209,245.44017 84.047358,245.6018 82.673506,245.76343 79.844991,244.95528 79.844991,244.95528 Z"
       id="path858"
       inkscape:connector-curvature="0" />
    <path
       style="fill:#000000;stroke:none;stroke-width:0.26458332px;stroke-linecap:butt;stroke-linejoin:miter;stroke-opacity:1;fill-opacity:1"
       d="M 88.007281,231.70166 C 88.007281,231.70166 92.128835,252.47105 90.916613,258.69379 89.704392,264.91653 96.169573,262.5729 97.543425,258.37053 98.917276,254.16816 99.725422,239.37906 98.836462,237.9244 97.947499,236.46973 93.906761,230.81269 88.007281,231.70166 Z"
       id="path860"
       inkscape:connector-curvature="0" />
    <path
       style="fill:#000000;stroke:none;stroke-width:0.26458332px;stroke-linecap:butt;stroke-linejoin:miter;stroke-opacity:1;fill-opacity:1"
       d="M 76.774028,264.51245 C 76.774028,264.51245 78.309511,266.9369 80.168249,267.26016 82.026989,267.58342 101.50335,262.81534 102.55394,262.81534 103.60453,262.81534 110.06971,262.5729 112.57497,263.62349 115.08023,264.67408 115.64593,263.78512 115.88838,263.46186 116.13082,263.1386 115.32267,258.2089 113.94882,257.88564 112.57497,257.56238 109.16704,256.02078 108.29179,255.86527 107.33482,255.69524 76.075701,262.76663 76.774028,264.51245 Z"
       id="path862"
       inkscape:connector-curvature="0"
       sodipodi:nodetypes="cssscssc" />
    <path
       style="fill:#000000;stroke:none;stroke-width:0.26458332px;stroke-linecap:butt;stroke-linejoin:miter;stroke-opacity:1;fill-opacity:1"
       d="M 34.972539,174.25324 C 34.972539,174.25324 45.728193,188.85282 50.504401,184.80707 53.97184,181.86993 52.763248,176.48143 44.801423,172.42461 38.031342,172.37293 40.683601,176.50053 34.972539,174.25324 Z"
       id="path836"
       inkscape:connector-curvature="0"
       sodipodi:nodetypes="cacc" />
  </g>
</svg>
