<?xml version="1.0" encoding="UTF-8" standalone="no"?>
<!-- Created with Inkscape (http://www.inkscape.org/) -->

<svg
   xmlns:dc="http://purl.org/dc/elements/1.1/"
   xmlns:cc="http://creativecommons.org/ns#"
   xmlns:rdf="http://www.w3.org/1999/02/22-rdf-syntax-ns#"
   xmlns:svg="http://www.w3.org/2000/svg"
   xmlns="http://www.w3.org/2000/svg"
   xmlns:sodipodi="http://sodipodi.sourceforge.net/DTD/sodipodi-0.dtd"
   xmlns:inkscape="http://www.inkscape.org/namespaces/inkscape"
   width="512"
   height="512"
   viewBox="0 0 135.46666 135.46666"
   version="1.1"
   id="svg8"
   sodipodi:docname="U+7A4D.svg"
   inkscape:version="0.92.4 (5da689c313, 2019-01-14)">
  <defs
     id="defs2" />
  <sodipodi:namedview
     id="base"
     pagecolor="#ffffff"
     bordercolor="#666666"
     borderopacity="1.0"
     inkscape:pageopacity="0.0"
     inkscape:pageshadow="2"
     inkscape:zoom="1.3118737"
     inkscape:cx="220.53671"
     inkscape:cy="321.01034"
     inkscape:document-units="px"
     inkscape:current-layer="layer3"
     showgrid="false"
     units="px"
     inkscape:window-width="1920"
     inkscape:window-height="1017"
     inkscape:window-x="-8"
     inkscape:window-y="-8"
     inkscape:window-maximized="1" />
  <metadata
     id="metadata5">
    <rdf:RDF>
      <cc:Work
         rdf:about="">
        <dc:format>image/svg+xml</dc:format>
        <dc:type
           rdf:resource="http://purl.org/dc/dcmitype/StillImage" />
        <dc:title></dc:title>
      </cc:Work>
    </rdf:RDF>
  </metadata>
  <g
     inkscape:groupmode="layer"
     id="layer3"
     inkscape:label="Layer 1">
    <path
       style="fill:#000000;stroke:none;stroke-width:0.26458332px;stroke-linecap:butt;stroke-linejoin:miter;stroke-opacity:1;fill-opacity:1"
       d="M 47.193946,13.448121 52.437718,16.675058 54.252871,19.700311 55.462972,23.330614 59.093277,25.750817 V 27.767652 C 49.618372,30.723567 41.206455,33.147988 33.882834,35.02826 33.882834,35.02826 38.956029,30.682039 41.546807,28.574387 43.40383,27.06366 47.193946,24.137348 47.193946,24.137348 L 49.009099,19.901994 46.588897,15.464956 Z"
       id="path1826"
       inkscape:connector-curvature="0"
       sodipodi:nodetypes="cccccccacccc" />
    <path
       style="fill:#000000;stroke:none;stroke-width:0.26458332px;stroke-linecap:butt;stroke-linejoin:miter;stroke-opacity:1;fill-opacity:1"
       d="M 35.294618,37.85183 40.941758,41.078764 42.555227,44.305702 40.941758,46.52422 26.823909,51.969675 16.336366,54.793245 10.487544,54.188196 7.4622908,51.767994 6.2521896,55.599981 7.8656578,59.835335 12.302696,65.079107 14.722898,65.684156 17.949835,64.675739 25.008758,59.230283 39.126605,53.179776 42.958592,51.364626 43.967011,52.574727 31.059266,70.726244 10.487544,91.499648 C 22.537421,83.330037 34.948082,75.881994 43.36196,60.440384 L 44.168695,65.88584 42.353543,102.39056 41.345126,105.81918 H 39.933341 C 40.492369,110.46501 40.918611,115.27682 43.563644,117.31514 L 46.588897,117.92019 47.597314,114.28989 V 104.20571 L 47.193946,65.079107 49.614151,65.88584 54.051187,70.322878 57.07644,70.927927 58.084857,67.700993 55.059606,62.658905 50.622568,60.642068 46.790581,59.633651 46.992262,50.961258 48.807415,48.541056 55.866339,44.910754 C 55.866339,44.910754 58.906421,43.650077 60.505062,43.297283 61.824575,43.006087 64.538732,42.893917 64.538732,42.893917 L 66.75725,40.675399 64.135365,37.650146 61.110111,36.440045 59.093277,38.053513 49.009099,41.482132 47.597314,39.263614 44.773745,37.650146 39.126605,36.036677 Z"
       id="path1828"
       inkscape:connector-curvature="0"
       sodipodi:nodetypes="cccccccccccccccccccccccccccccccccccccccacccccccccc" />
    <path
       style="fill:#000000;stroke:none;stroke-width:1px;stroke-linecap:butt;stroke-linejoin:miter;stroke-opacity:1;fill-opacity:1"
       d="M 302.11328 9.9160156 L 291.0625 10.724609 L 288.13672 16.525391 L 291.56836 21.099609 L 303.76367 31.007812 L 323.58203 59.59375 L 330.82422 82.080078 L 331.58594 92.371094 L 327.77539 96.181641 L 313.29297 97.707031 L 289.28125 104.56836 L 279.75195 101.13672 L 275.94141 109.9043 L 284.70703 123.24219 L 297.66602 128.96094 L 313.67383 123.24219 L 327.01367 112.95312 L 333.11133 114.47656 L 335.39844 120.95703 L 336.54102 130.86523 L 333.11133 135.05859 L 320.15234 139.63086 L 292.33008 146.49219 L 272.89258 148.39844 L 272.89258 152.20898 L 281.6582 161.35742 L 293.47266 164.40625 L 307.19336 160.59375 L 329.30078 153.73438 L 335.39844 152.9707 L 337.68555 162.5 L 335.7793 168.2168 L 288.51953 181.9375 L 255.35938 193.37109 L 227.15625 204.04297 L 208.09961 202.51953 L 209.62305 208.61719 L 230.58594 225.38672 L 240.87695 226.91211 L 261.45898 213.95312 L 278.22852 202.51953 L 282.41992 204.04297 L 285.46875 223.48047 L 289.66211 276.83984 L 287.75586 350.39844 L 290.80469 363.35742 L 275.94141 371.74219 L 261.83984 369.07422 L 254.59766 367.16992 L 258.4082 378.22266 L 264.50781 388.51172 L 272.51172 390.79883 L 282.03906 383.17578 L 312.5293 366.78711 L 341.11523 361.45117 L 363.98242 356.87891 L 379.22852 351.92383 L 387.99414 357.25977 L 392.1875 373.26758 L 393.71094 388.51172 L 402.85938 389.27539 L 409.71875 373.26758 L 407.05078 359.54688 L 403.24023 341.25195 L 403.24023 314.95312 L 401.33398 255.11523 L 403.62109 236.05859 L 407.43164 220.8125 L 402.47852 210.14258 L 376.94141 196.41992 L 362.83984 198.32617 L 356.74219 205.94922 L 338.44727 214.33398 L 309.86133 223.86328 L 308.33789 220.8125 L 302.62109 210.14258 L 287.75586 201.375 L 290.04297 195.27734 L 311.38672 185.36719 L 360.55273 174.69531 L 403.24023 168.2168 L 463.45898 176.2207 L 502.33398 188.03516 L 505.76562 183.08203 L 502.33398 172.02734 L 481.75391 155.25781 L 458.12305 152.20898 L 422.67773 155.25781 L 388.375 160.59375 L 358.64648 163.26172 L 357.50391 157.92578 L 357.50391 145.34961 L 365.98438 140.08594 L 388.08398 137.39062 L 400.21094 134.42773 L 395.89844 123.64648 L 382.1543 117.7168 L 367.60156 122.29883 L 357.0918 124.45508 L 356.01367 107.20703 L 370.29688 101.54688 L 395.35938 98.314453 L 404.79297 89.958984 L 397.51562 77.292969 L 384.31055 76.753906 L 357.63086 86.724609 L 359.24609 75.136719 L 354.12695 45.759766 L 333.375 21.505859 L 302.11328 9.9160156 z M 372.18359 216.35547 L 378.38086 216.625 L 384.84961 230.09961 L 386.19727 250.85156 L 388.35352 278.3418 L 388.35352 300.70898 L 388.62305 305.96484 L 388.35352 316.88086 L 385.52344 321.46094 L 378.65039 315.5332 L 373.26172 312.70312 L 379.59375 327.12109 L 382.82812 340.05664 L 379.86328 344.09961 L 365.58008 342.61719 L 326.63672 351.91602 L 306.69336 357.30469 L 303.99805 350.83789 L 303.99805 323.88672 L 302.92188 280.76758 L 302.38281 260.28516 L 305.07617 238.72461 L 315.04883 238.45508 L 337.95703 229.56055 L 372.18359 216.35547 z "
       transform="scale(0.26458332)"
       id="path1830" />
    <path
       style="fill:#000000;stroke:none;stroke-width:0.26458332px;stroke-linecap:butt;stroke-linejoin:miter;stroke-opacity:1;fill-opacity:1"
       d="M 83.213984,69.009563 85.067935,69.223482 87.349725,68.653035 91.128938,67.226915 93.909867,66.656468 94.694233,68.01128 94.409009,69.865234 91.556772,71.433964 87.848867,73.002695 84.854019,73.430528 81.930477,71.933106 82.643537,70.007847 Z"
       id="path1835"
       inkscape:connector-curvature="0" />
    <path
       style="fill:#000000;stroke:none;stroke-width:0.26458332px;stroke-linecap:butt;stroke-linejoin:miter;stroke-opacity:1;fill-opacity:1"
       d="M 89.203679,78.208025 V 80.204589 L 87.563643,81.131565 84.782711,82.272461 84.497488,84.269025 87.135807,85.766448 C 87.135807,85.766448 87.492336,86.622121 88.775842,85.766448 90.059349,84.910778 94.337704,83.128132 94.337704,83.128132 L 95.97774,81.488096 V 79.705447 L 93.767254,79.348919 90.772407,79.206306 Z"
       id="path1837"
       inkscape:connector-curvature="0" />
    <path
       style="fill:#000000;stroke:none;stroke-width:0.26458332px;stroke-linecap:butt;stroke-linejoin:miter;stroke-opacity:1;fill-opacity:1"
       d="M 78.555738,102.28972 V 104.81076 C 78.555738,104.81076 77.77401,108.34236 76.841426,109.85285 75.030808,112.78547 69.580821,117.2143 69.580821,117.2143 L 78.253213,113.584 C 78.253213,113.584 80.891608,112.16441 81.681832,110.96211 82.519178,109.68812 82.791092,106.52507 82.791092,106.52507 L 81.177623,103.7015 Z"
       id="path1839"
       inkscape:connector-curvature="0"
       sodipodi:nodetypes="ccaccaccc" />
    <path
       style="fill:#000000;stroke:none;stroke-width:0.26458332px;stroke-linecap:butt;stroke-linejoin:miter;stroke-opacity:1;fill-opacity:1"
       d="M 98.522407,107.02928 103.96786,112.57558 108.50574,118.52524 C 108.50574,118.52524 112.33773,124.37407 112.64026,124.97912 112.94278,125.58417 115.46382,127.19763 115.46382,127.19763 115.46382,127.19763 118.29608,127.0703 119.09413,126.08837 119.56246,125.51213 119.29581,123.86986 119.29581,123.86986 L 117.27897,118.72693 113.34615,112.8781 108.60658,108.94527 C 108.60658,108.94527 103.69199,105.5682 100.84177,105.11329 99.902907,104.96344 98.018198,105.51666 98.018198,105.51666 Z"
       id="path1841"
       inkscape:connector-curvature="0"
       sodipodi:nodetypes="cccccaccccacc" />
  </g>
</svg>
