<?xml version="1.0" encoding="UTF-8" standalone="no"?>
<!-- Created with Inkscape (http://www.inkscape.org/) -->

<svg
   xmlns:dc="http://purl.org/dc/elements/1.1/"
   xmlns:cc="http://creativecommons.org/ns#"
   xmlns:rdf="http://www.w3.org/1999/02/22-rdf-syntax-ns#"
   xmlns:svg="http://www.w3.org/2000/svg"
   xmlns="http://www.w3.org/2000/svg"
   xmlns:sodipodi="http://sodipodi.sourceforge.net/DTD/sodipodi-0.dtd"
   xmlns:inkscape="http://www.inkscape.org/namespaces/inkscape"
   width="512"
   height="512"
   viewBox="0 0 135.46666 135.46667"
   version="1.1"
   id="svg8"
   inkscape:version="0.92.4 (5da689c313, 2019-01-14)"
   sodipodi:docname="U+7A4D.svg">
  <defs
     id="defs2" />
  <sodipodi:namedview
     id="base"
     pagecolor="#ffffff"
     bordercolor="#666666"
     borderopacity="1.0"
     inkscape:pageopacity="0.0"
     inkscape:pageshadow="2"
     inkscape:zoom="1.4142136"
     inkscape:cx="270.21363"
     inkscape:cy="212.13322"
     inkscape:document-units="px"
     inkscape:current-layer="layer16"
     showgrid="false"
     units="px"
     inkscape:window-width="1920"
     inkscape:window-height="1017"
     inkscape:window-x="-8"
     inkscape:window-y="-8"
     inkscape:window-maximized="1" />
  <metadata
     id="metadata5">
    <rdf:RDF>
      <cc:Work
         rdf:about="">
        <dc:format>image/svg+xml</dc:format>
        <dc:type
           rdf:resource="http://purl.org/dc/dcmitype/StillImage" />
        <dc:title></dc:title>
      </cc:Work>
    </rdf:RDF>
  </metadata>
  <g
     inkscape:groupmode="layer"
     id="layer16"
     inkscape:label="Layer 2">
    <path
       style="fill:#000000;stroke:none;stroke-width:0.26458332px;stroke-linecap:butt;stroke-linejoin:miter;stroke-opacity:1;fill-opacity:1"
       d="M 47.520521,14.046121 C 47.520521,14.046121 46.772165,17.039539 48.268876,20.968401 49.765584,24.897263 33.67596,34.625875 33.67596,34.625875 33.67596,34.625875 58.184576,29.574479 58.558752,28.26486 58.932931,26.955239 59.120018,25.458529 56.126599,22.465111 53.133182,19.471692 51.075206,14.981564 47.520521,14.046121 Z"
       id="path5048"
       inkscape:connector-curvature="0" />
    <path
       style="fill:#000000;stroke:none;stroke-width:0.26458332px;stroke-linecap:butt;stroke-linejoin:miter;stroke-opacity:1;fill-opacity:1"
       d="M 6.735192,51.089676 C 5.9167807,50.516788 4.6547232,61.256847 13.470384,65.682592 29.418552,57.747997 60.226616,42.160795 60.24255,42.670687 60.24255,42.670687 63.610145,42.483598 64.54559,42.296508 65.481032,42.109421 67.726096,40.425623 65.106856,38.367647 62.487613,36.309673 61.365082,36.496759 58.184576,37.99347 55.004067,39.490179 31.805073,50.154233 29.185833,51.089676 26.56659,52.025121 18.334689,55.205627 15.902537,55.205627 13.470384,55.205627 6.735192,51.089676 6.735192,51.089676 Z"
       id="path5050"
       inkscape:connector-curvature="0"
       sodipodi:nodetypes="cccccsssc" />
    <path
       style="fill:#000000;stroke:none;stroke-width:0.26458332px;stroke-linecap:butt;stroke-linejoin:miter;stroke-opacity:1;fill-opacity:1"
       d="M 36.482289,37.432204 C 36.482289,37.432204 45.836723,34.812962 47.8947,40.051444 49.952674,45.289927 47.70761,114.69982 47.70761,114.69982 46.640373,121.90367 40.936398,117.50493 38.353177,106.46792 38.06019,105.2161 41.860913,105.47397 42.094949,105.53248 42.094949,105.53248 43.739028,61.188355 43.40457,51.838031 42.868485,36.850873 38.826675,42.021632 36.482289,37.432204 Z"
       id="path5052"
       inkscape:connector-curvature="0"
       sodipodi:nodetypes="cscscsc" />
    <path
       style="fill:#000000;stroke:none;stroke-width:0.26458332px;stroke-linecap:butt;stroke-linejoin:miter;stroke-opacity:1;fill-opacity:1"
       d="M 44.582291,51.593749 C 44.582291,51.593749 38.614598,62.64129 34.660416,67.468749 29.817592,73.381105 23.643432,78.066903 17.991666,83.211457 15.519076,85.462147 10.451041,89.826041 10.451041,89.826041 10.451041,89.826041 18.153752,86.717898 21.563541,84.402082 27.141175,80.613938 32.034043,75.816226 36.5125,70.776041 39.934461,66.924866 45.508333,58.208333 45.508333,58.208333 45.508333,58.208333 47.360416,53.313541 44.582291,51.593749 Z"
       id="path5054"
       inkscape:connector-curvature="0"
       sodipodi:nodetypes="caacaacc" />
    <path
       style="fill:#000000;stroke:none;stroke-width:0.26458332px;stroke-linecap:butt;stroke-linejoin:miter;stroke-opacity:1;fill-opacity:1"
       d="M 45.509317,59.648984 C 45.509317,59.648984 60.476412,62.548857 57.295904,70.453352 54.115398,78.357851 47.006028,61.894047 45.509317,59.648984 Z"
       id="path5056"
       inkscape:connector-curvature="0" />
    <path
       style="fill:#000000;stroke:none;stroke-width:0.26458332px;stroke-linecap:butt;stroke-linejoin:miter;stroke-opacity:1;fill-opacity:1"
       d="M 74.2742,26.768149 C 74.2742,26.768149 72.029137,28.639037 72.964579,29.948658 73.900024,31.258277 79.699772,34.812962 80.448125,34.251696 81.196481,33.69043 95.976486,26.393973 99.531171,25.645618 103.08585,24.897263 104.95674,26.019795 105.51801,25.084352 106.07927,24.148909 107.01472,19.284603 103.46003,20.032958 99.905348,20.781313 81.009394,27.142329 79.512683,27.329415 78.015975,27.516505 74.2742,26.768149 74.2742,26.768149 Z"
       id="path5058"
       inkscape:connector-curvature="0" />
    <path
       style="fill:#000000;stroke:none;stroke-width:0.26458332px;stroke-linecap:butt;stroke-linejoin:miter;stroke-opacity:1;fill-opacity:1"
       d="M 71.842047,39.864358 C 71.842047,39.864358 76.519264,44.541574 77.454709,44.167395 78.390151,43.793219 99.718258,34.812962 102.71168,35.561317 105.7051,36.309673 108.48164,30.343734 101.96332,31.07119 97.575022,31.560931 74.653161,40.988803 71.842047,39.864358 Z"
       id="path5060"
       inkscape:connector-curvature="0"
       sodipodi:nodetypes="ccssc" />
    <path
       style="fill:#000000;stroke:none;stroke-width:0.26458332px;stroke-linecap:butt;stroke-linejoin:miter;stroke-opacity:1;fill-opacity:1"
       d="M 76.706353,3.0078894 C 76.706353,3.0078894 90.738004,3.9433328 93.357244,11.239791 95.976486,18.536249 94.786978,44.317708 94.58854,44.516145 94.390103,44.714583 89.693749,47.426562 89.693749,44.979166 89.693749,42.53177 88.635416,20.108334 86.254166,15.610417 83.872916,11.1125 76.706353,3.0078894 76.706353,3.0078894 Z"
       id="path5062"
       inkscape:connector-curvature="0" />
    <path
       style="fill:#000000;stroke:none;stroke-width:0.26458332px;stroke-linecap:butt;stroke-linejoin:miter;stroke-opacity:1;fill-opacity:1"
       d="M 55.562499,54.107291 C 55.562499,54.107291 60.192708,60.589583 62.441666,59.928124 64.690624,59.266666 82.984424,48.810138 92.074999,47.360416 102.72784,45.661551 111.65417,43.920833 120.65,46.963541 129.64583,50.006249 131.23333,49.344791 132.55625,49.344791 133.87916,49.344791 135.20208,47.757291 132.82083,45.111458 130.43958,42.465624 124.83556,40.876714 118.26875,40.745833 111.58788,40.612678 83.587685,44.458408 68.923957,50.667708 54.436065,56.802551 55.562499,54.107291 55.562499,54.107291 Z"
       id="path5064"
       inkscape:connector-curvature="0"
       sodipodi:nodetypes="csssssssc" />
    <path
       style="fill:#000000;stroke:none;stroke-width:0.26458332px;stroke-linecap:butt;stroke-linejoin:miter;stroke-opacity:1;fill-opacity:1"
       d="M 74.215624,51.990624 C 74.215624,51.990624 75.935416,55.033333 75.935416,56.091666 75.935416,57.149999 76.993749,95.117707 76.993749,96.308332 76.993749,97.498957 80.433332,97.631249 80.565624,95.514582 80.697916,93.397915 79.771874,68.659374 80.168749,67.204166 80.565624,65.748958 82.417707,60.192708 82.153124,59.266666 81.888541,58.340624 79.110416,51.990624 74.215624,51.990624 Z"
       id="path5066"
       inkscape:connector-curvature="0" />
    <path
       style="fill:#000000;stroke:none;stroke-width:0.26458332px;stroke-linecap:butt;stroke-linejoin:miter;stroke-opacity:1;fill-opacity:1"
       d="M 78.052082,60.854166 C 78.052082,60.854166 81.491666,64.161458 82.814582,63.235416 84.137499,62.309374 96.17604,56.753124 98.160415,56.753124 100.14479,56.753124 101.73229,59.928124 101.73229,59.928124 101.73229,59.928124 103.31979,83.608332 103.05521,84.666666 102.79062,85.724999 99.35104,82.682291 99.35104,82.682291 99.35104,82.682291 101.99687,90.487499 101.99687,91.413541 101.99687,92.339582 104.775,103.98125 105.43646,104.24583 106.09792,104.51042 109.27292,101.46771 108.87604,97.895832 108.47917,94.323957 106.09792,76.464582 106.89167,70.908332 107.68542,65.352083 108.47917,58.076041 108.47917,57.414583 108.47917,56.753124 103.1875,52.784374 101.33542,52.519791 99.483332,52.255208 96.043749,52.784374 93.265624,54.371874 90.487499,55.959374 78.052082,60.854166 78.052082,60.854166 Z"
       id="path5068"
       inkscape:connector-curvature="0" />
    <path
       style="fill:#000000;stroke:none;stroke-width:0.26458332px;stroke-linecap:butt;stroke-linejoin:miter;stroke-opacity:1;fill-opacity:1"
       d="M 81.623957,70.776041 C 81.623957,70.776041 83.211457,73.421874 85.063541,73.289582 86.915624,73.157291 93.79479,70.643749 94.191665,69.849999 94.58854,69.056249 95.38229,67.865624 95.249999,67.336457 95.117707,66.807291 93.530207,66.013541 92.074999,66.542707 90.619791,67.071874 85.989582,69.585416 85.063541,69.849999 84.137499,70.114582 81.623957,70.776041 81.623957,70.776041 Z"
       id="path5070"
       inkscape:connector-curvature="0" />
    <path
       style="fill:#000000;stroke:none;stroke-width:0.26458332px;stroke-linecap:butt;stroke-linejoin:miter;stroke-opacity:1;fill-opacity:1"
       d="M 83.740624,82.946874 C 83.740624,82.946874 86.518749,85.724999 87.577082,85.724999 88.635416,85.724999 95.514582,82.020832 95.514582,82.020832 95.514582,82.020832 96.705207,80.433332 96.572915,79.374999 96.440624,78.316666 91.148957,78.316666 90.487499,78.978124 89.826041,79.639582 83.740624,82.946874 83.740624,82.946874 Z"
       id="path5072"
       inkscape:connector-curvature="0" />
    <path
       style="fill:#000000;stroke:none;stroke-width:0.26458332px;stroke-linecap:butt;stroke-linejoin:miter;stroke-opacity:1;fill-opacity:1"
       d="M 67.368557,98.124422 69.849999,102.92292 C 69.849999,102.92292 70.908332,104.37812 71.834374,104.11354 72.760416,103.84896 79.728192,98.485407 84.192296,96.721257 88.665148,94.953649 96.96979,93.79479 98.292707,93.662499 99.615624,93.530207 97.631249,91.016666 96.96979,91.016666 96.308332,91.016666 82.347123,94.73833 73.289582,98.55729 69.668991,100.08385 67.372995,98.121537 67.368557,98.124422 Z"
       id="path5074"
       inkscape:connector-curvature="0"
       sodipodi:nodetypes="ccsasssc" />
    <path
       style="fill:#000000;stroke:none;stroke-width:0.26458332px;stroke-linecap:butt;stroke-linejoin:miter;stroke-opacity:1;fill-opacity:1"
       d="M 78.109518,102.25843 C 78.109518,102.25843 77.641796,111.33223 70.625972,116.85134 63.610145,122.37046 82.225469,112.5483 82.693191,109.36779 83.160911,106.18729 78.109518,102.25843 78.109518,102.25843 Z"
       id="path5076"
       inkscape:connector-curvature="0" />
    <path
       style="fill:#000000;stroke:none;stroke-width:0.26458332px;stroke-linecap:butt;stroke-linejoin:miter;stroke-opacity:1;fill-opacity:1"
       d="M 97.847374,104.87767 C 97.847374,104.87767 113.65637,128.54438 115.99497,126.76704 118.33358,124.9897 122.73017,113.29666 97.847374,104.87767 Z"
       id="path5078"
       inkscape:connector-curvature="0" />
  </g>
</svg>
