<?xml version="1.0" encoding="UTF-8" standalone="no"?>
<!-- Created with Inkscape (http://www.inkscape.org/) -->

<svg
   xmlns:dc="http://purl.org/dc/elements/1.1/"
   xmlns:cc="http://creativecommons.org/ns#"
   xmlns:rdf="http://www.w3.org/1999/02/22-rdf-syntax-ns#"
   xmlns:svg="http://www.w3.org/2000/svg"
   xmlns="http://www.w3.org/2000/svg"
   xmlns:sodipodi="http://sodipodi.sourceforge.net/DTD/sodipodi-0.dtd"
   xmlns:inkscape="http://www.inkscape.org/namespaces/inkscape"
   width="512"
   height="512"
   viewBox="0 0 135.46666 135.46667"
   version="1.1"
   id="svg8"
   inkscape:version="0.92.4 (5da689c313, 2019-01-14)"
   sodipodi:docname="U+7DE3.svg">
  <defs
     id="defs2" />
  <sodipodi:namedview
     id="base"
     pagecolor="#ffffff"
     bordercolor="#666666"
     borderopacity="1.0"
     inkscape:pageopacity="0.0"
     inkscape:pageshadow="2"
     inkscape:zoom="1.4142136"
     inkscape:cx="156.39736"
     inkscape:cy="228.95578"
     inkscape:document-units="px"
     inkscape:current-layer="layer14"
     showgrid="false"
     units="px"
     inkscape:window-width="1920"
     inkscape:window-height="1017"
     inkscape:window-x="-8"
     inkscape:window-y="-8"
     inkscape:window-maximized="1" />
  <metadata
     id="metadata5">
    <rdf:RDF>
      <cc:Work
         rdf:about="">
        <dc:format>image/svg+xml</dc:format>
        <dc:type
           rdf:resource="http://purl.org/dc/dcmitype/StillImage" />
        <dc:title></dc:title>
      </cc:Work>
    </rdf:RDF>
  </metadata>
  <g
     inkscape:groupmode="layer"
     id="layer14"
     inkscape:label="Layer 2">
    <path
       style="fill:#000000;stroke:none;stroke-width:0.26458332px;stroke-linecap:butt;stroke-linejoin:miter;stroke-opacity:1;fill-opacity:1"
       d="M 29.560009,37.619291 29.185833,39.677268 30.308364,42.857774 C 30.308364,42.857774 28.174332,49.35046 25.466756,51.683041 23.942598,53.777569 21.410399,55.045587 15.434815,55.860439 L 13.470384,61.660187 15.528359,65.21487 C 15.528359,65.21487 18.450872,67.329856 19.64431,66.524491 25.751194,62.403396 31.645588,57.931551 38.072544,56.98297 L 39.943431,55.299173 C 39.943431,55.299173 39.849885,52.86702 38.540266,52.86702 37.230645,52.86702 21.187792,56.702335 21.187792,56.702335 18.521778,57.263601 26.660136,53.334739 29.185833,51.183222 31.711529,49.031702 36.950012,44.915751 37.043555,44.448028 37.137101,43.980308 36.669379,37.806381 29.560009,37.619291 Z"
       id="path4992"
       inkscape:connector-curvature="0"
       sodipodi:nodetypes="cccccccsccscscc" />
    <path
       style="fill:#000000;stroke:none;stroke-width:0.26458332px;stroke-linecap:butt;stroke-linejoin:miter;stroke-opacity:1;fill-opacity:1"
       d="M 43.391666,33.602083 C 43.391666,33.602083 40.613541,34.528125 41.010416,36.247916 41.407291,37.967708 42.661698,38.003512 42.994791,39.290625 43.697148,42.004623 32.791454,61.443397 32.676041,61.251041 L 22.489583,73.024999 14.948958,77.522916 15.478125,81.623957 C 15.478125,81.623957 18.308364,84.286631 19.711458,83.608332 22.807847,82.111441 37.930485,71.758922 40.613541,71.966666 41.407291,71.702082 52.916666,61.251041 42.597916,66.013541 32.279166,70.776041 30.823958,71.172916 30.823958,71.172916 L 44.846874,51.196874 C 44.846874,51.196874 50.006249,44.582291 51.329166,43.656249 52.652083,42.730208 54.371874,38.232291 53.181249,37.967708 51.990624,37.703125 48.154166,36.380208 46.831249,35.586458 45.508333,34.792708 43.391666,33.602083 43.391666,33.602083 Z"
       id="path4994"
       inkscape:connector-curvature="0"
       sodipodi:nodetypes="cssccccscsccsssc" />
    <path
       style="fill:#000000;stroke:none;stroke-width:0.26458332px;stroke-linecap:butt;stroke-linejoin:miter;stroke-opacity:1;fill-opacity:1"
       d="M 47.360416,57.282291 C 45.456354,57.248197 43.127083,61.118749 43.127083,61.118749 43.127083,61.118749 41.936939,66.478484 40.745833,68.923957 38.471847,73.592703 31.816145,81.690103 31.816145,81.690103 L 22.886458,91.215103 C 22.886458,91.215103 31.254368,85.477994 35.189583,82.285416 40.753842,77.77122 51.130729,67.865624 51.130729,67.865624 51.130729,67.865624 55.430208,65.748958 52.387499,62.177083 49.344791,58.605208 49.698857,57.324163 47.360416,57.282291 Z"
       id="path4996"
       inkscape:connector-curvature="0"
       sodipodi:nodetypes="acaccacsa" />
    <path
       style="fill:#000000;stroke:none;stroke-width:0.26458332px;stroke-linecap:butt;stroke-linejoin:miter;stroke-opacity:1;fill-opacity:1"
       d="M 8.5125342,97.113488 C 8.5125342,97.113488 6.735192,100.01336 6.9222807,101.1359 7.1093694,102.25843 10.859186,107.27965 14.03165,107.49691 20.255354,104.27869 34.353661,94.791095 43.311026,87.759055 45.780894,85.820068 48.643053,81.865763 48.36242,79.807786 48.081787,77.749812 42.843304,85.326902 35.546847,88.788043 28.250388,92.249182 12.160763,98.984376 11.318864,98.984376 10.476965,98.984376 8.5125342,97.113488 8.5125342,97.113488 Z"
       id="path4998"
       inkscape:connector-curvature="0"
       sodipodi:nodetypes="cccssssc" />
    <path
       style="fill:#000000;stroke:none;stroke-width:0.26458332px;stroke-linecap:butt;stroke-linejoin:miter;stroke-opacity:1;fill-opacity:1"
       d="M 66.510021,34.812962 C 66.510021,34.812962 65.293946,36.309673 65.481032,37.151571 65.668122,37.99347 69.222807,45.196384 71.561414,44.541574 73.900024,43.886762 85.659842,36.1862 93.637879,33.877519 95.005478,33.660696 97.192562,34.719418 97.753828,34.438785 98.315093,34.158152 99.898877,31.451055 98.502183,29.855112 97.121419,28.277372 91.70228,26.369943 89.989648,25.645618 88.354957,24.954257 84.751166,30.229291 81.290027,32.006632 77.828885,33.783976 70.345339,36.122583 69.690529,35.935494 69.035717,35.748407 66.510021,34.812962 66.510021,34.812962 Z"
       id="path5000"
       inkscape:connector-curvature="0"
       sodipodi:nodetypes="ccscsssscc" />
    <path
       style="fill:#000000;stroke:none;stroke-width:0.26458332px;stroke-linecap:butt;stroke-linejoin:miter;stroke-opacity:1;fill-opacity:1"
       d="M 80.167492,37.712837 C 80.167492,37.712837 81.944836,40.519167 82.131926,42.95132 82.319012,45.383473 81.290027,58.105502 80.635215,60.444109 79.980405,62.782719 79.886859,66.243858 83.348001,62.314997 86.809142,58.386135 90.644458,47.067271 89.802559,44.541574 88.96066,42.015875 82.319012,36.964482 80.167492,37.712837 Z"
       id="path5002"
       inkscape:connector-curvature="0" />
    <path
       style="fill:#000000;stroke:none;stroke-width:0.26458332px;stroke-linecap:butt;stroke-linejoin:miter;stroke-opacity:1;fill-opacity:1"
       d="M 62.955336,55.01854 C 62.955336,55.01854 65.2004,59.040945 66.69711,58.853855 68.193819,58.666768 79.325593,52.399297 80.261038,52.67993 81.196481,52.960563 85.87112,49.941894 80.822304,48.563979 76.607828,47.413771 63.643368,56.256998 62.955336,55.01854 Z"
       id="path5004"
       inkscape:connector-curvature="0"
       sodipodi:nodetypes="ccssc" />
    <path
       style="fill:#000000;stroke:none;stroke-width:0.26458332px;stroke-linecap:butt;stroke-linejoin:miter;stroke-opacity:1;fill-opacity:1"
       d="M 56.594321,69.237277 C 56.594321,69.237277 54.910524,74.382216 55.378246,75.037026 55.845966,75.691835 57.997486,76.533734 58.745842,76.253101 59.494197,75.972468 73.058125,68.488922 73.525845,68.488922 73.993567,68.488922 64.919767,78.7788 60.336096,81.772217 55.752423,84.765636 37.230645,99.265009 37.230645,99.265009 37.230645,99.265009 50.614038,92.200614 56.781411,87.852598 65.842858,81.464251 80.915848,67.647023 82.225469,66.430947 83.53509,65.21487 90.270281,61.286008 91.486356,60.818288 92.702434,60.350566 94.573322,57.918413 93.637877,57.544236 92.702434,54.23217 63.235969,69.076649 61.739261,69.892086 60.304675,70.673678 56.594321,69.237277 56.594321,69.237277 Z"
       id="path5006"
       inkscape:connector-curvature="0"
       sodipodi:nodetypes="ccssscasscsc" />
    <path
       style="fill:#000000;stroke:none;stroke-width:0.26458332px;stroke-linecap:butt;stroke-linejoin:miter;stroke-opacity:1;fill-opacity:1"
       d="M 68.692447,77.291405 C 68.692447,77.291405 75.604687,79.374999 74.414062,81.789322 73.223437,84.203645 61.451998,96.645197 53.181249,101.73229 51.862327,102.54352 50.3549,103.15163 48.815624,103.31979 47.457876,103.46812 44.75333,102.78398 44.75333,102.78398 44.75333,102.78398 47.757291,101.46771 49.741666,100.27708 51.726041,99.086457 67.865624,84.666666 68.923957,82.682291 69.982291,80.697916 68.692447,77.291405 68.692447,77.291405 Z"
       id="path5008"
       inkscape:connector-curvature="0"
       sodipodi:nodetypes="csaaccsc" />
    <path
       style="fill:#000000;stroke:none;stroke-width:0.26458332px;stroke-linecap:butt;stroke-linejoin:miter;stroke-opacity:1;fill-opacity:1"
       d="M 75.583822,82.05285 C 75.583822,82.05285 75.770911,83.175384 75.583822,84.485003 75.396732,85.794624 55.378246,112.17413 47.8947,117.13198 40.411151,122.08983 39.569252,122.74464 39.007986,122.83818 38.44672,122.93173 37.137101,121.15438 36.669379,121.06084 36.201656,120.96729 33.48887,124.61552 34.143682,126.11223 34.798492,127.60894 36.189762,128.26549 37.230645,127.79603 38.296615,127.31526 56.763941,115.46937 64.54559,106.8421 70.528153,100.20942 80.822304,86.542979 82.038379,86.542979 83.254457,86.542979 82.506102,81.865763 75.583822,82.05285 Z"
       id="path5010"
       inkscape:connector-curvature="0"
       sodipodi:nodetypes="csscccsssc" />
    <path
       style="fill:#000000;stroke:none;stroke-width:0.26458332px;stroke-linecap:butt;stroke-linejoin:miter;stroke-opacity:1;fill-opacity:1"
       d="M 105.23737,61.566641 C 105.89219,61.660187 110.38231,67.647023 109.82104,68.676012 109.25978,69.704997 83.763756,94.223363 77.735342,95.990957 78.656015,95.247032 103.63343,67.632441 105.23737,61.566641 Z"
       id="path5012"
       inkscape:connector-curvature="0"
       sodipodi:nodetypes="cccc" />
    <path
       style="fill:#000000;stroke:none;stroke-width:0.26458332px;stroke-linecap:butt;stroke-linejoin:miter;stroke-opacity:1;fill-opacity:1"
       d="M 60.710272,89.255766 C 60.71551,89.166048 93.966115,104.8309 113.18864,117.31906 118.86009,121.00359 132.0846,124.70907 132.0846,124.70907 132.0846,124.70907 126.43709,115.90855 122.07535,113.3902 103.05437,102.40802 60.616413,89.405941 60.710272,89.255766 Z"
       id="path5016"
       inkscape:connector-curvature="0"
       sodipodi:nodetypes="cscsc" />
    <path
       style="fill:#000000;stroke:none;stroke-width:0.26458332px;stroke-linecap:butt;stroke-linejoin:miter;stroke-opacity:1;fill-opacity:1"
       d="M 83.441544,86.262346 C 83.441544,86.262346 86.15433,90.097664 85.125342,94.400702 84.096356,98.703743 74.2742,117.50615 70.438882,117.88033 66.603564,118.25451 59.307107,116.00944 58.839385,116.47716 58.371663,116.94489 64.826223,129.01211 64.73268,131.81844 64.639134,134.62477 69.035717,133.59578 69.877616,132.94097 70.719515,132.28616 81.944836,117.69324 84.657622,108.71299 87.370408,99.732731 89.709015,94.868425 88.399394,91.12665 87.089775,87.384878 83.441544,86.262346 83.441544,86.262346 Z"
       id="path5014"
       inkscape:connector-curvature="0" />
  </g>
</svg>
