<?xml version="1.0" encoding="UTF-8" standalone="no"?>
<!-- Created with Inkscape (http://www.inkscape.org/) -->

<svg
   xmlns:dc="http://purl.org/dc/elements/1.1/"
   xmlns:cc="http://creativecommons.org/ns#"
   xmlns:rdf="http://www.w3.org/1999/02/22-rdf-syntax-ns#"
   xmlns:svg="http://www.w3.org/2000/svg"
   xmlns="http://www.w3.org/2000/svg"
   xmlns:sodipodi="http://sodipodi.sourceforge.net/DTD/sodipodi-0.dtd"
   xmlns:inkscape="http://www.inkscape.org/namespaces/inkscape"
   width="512"
   height="512"
   viewBox="0 0 135.46666 135.46666"
   version="1.1"
   id="svg8"
   sodipodi:docname="U+7FD2.svg"
   inkscape:version="0.92.4 (5da689c313, 2019-01-14)">
  <defs
     id="defs2" />
  <sodipodi:namedview
     id="base"
     pagecolor="#ffffff"
     bordercolor="#666666"
     borderopacity="1.0"
     inkscape:pageopacity="0.0"
     inkscape:pageshadow="2"
     inkscape:zoom="1.979899"
     inkscape:cx="177.71259"
     inkscape:cy="333.62037"
     inkscape:document-units="px"
     inkscape:current-layer="g839"
     showgrid="false"
     units="px"
     inkscape:window-width="1920"
     inkscape:window-height="1017"
     inkscape:window-x="-8"
     inkscape:window-y="-8"
     inkscape:window-maximized="1" />
  <metadata
     id="metadata5">
    <rdf:RDF>
      <cc:Work
         rdf:about="">
        <dc:format>image/svg+xml</dc:format>
        <dc:type
           rdf:resource="http://purl.org/dc/dcmitype/StillImage" />
        <dc:title></dc:title>
      </cc:Work>
    </rdf:RDF>
  </metadata>
  <g
     inkscape:label="圖層 1"
     inkscape:groupmode="layer"
     id="layer1"
     transform="translate(-0.26726951,-162.06787)">
    <g
       id="g839"
       transform="translate(0.38914996,161.68338)">
      <g
         transform="translate(0,-161.53333)"
         id="layer1-1"
         inkscape:label="圖層 1" />
      <path
         style="fill:#000000;stroke:none;stroke-width:0.26458332px;stroke-linecap:butt;stroke-linejoin:miter;stroke-opacity:1;fill-opacity:1"
         d="M 24.734184,22.92978 31.683191,30.279691 C 31.683191,30.279691 32.669655,31.169516 33.286809,31.215135 34.722184,31.321235 37.295852,29.611517 37.295852,29.611517 L 49.456615,23.998858 51.594771,24.533397 50.525693,45.914959 49.322979,48.454019 46.383014,47.785846 40.235815,50.45854 22.729663,57.407548 20.324237,56.605739 19.255159,60.347513 24.33328,64.623825 C 24.33328,64.623825 27.490761,66.724041 28.475957,65.692903 31.089216,62.957781 34.222252,59.751224 34.222252,59.946609 L 41.438529,55.80393 47.184823,54.333947 C 47.184823,54.333947 49.412071,54.779397 49.85752,55.670297 50.080244,56.115746 49.39332,56.68284 49.590248,57.140279 50.073905,58.263756 52.663849,59.144799 52.663849,59.144799 L 54.935638,55.00212 56.806525,30.279691 58.811048,25.73611 61.617378,24.266128 60.281031,20.39072 51.995676,15.312599 48.922075,18.386198 39.166737,21.593433 Z"
         id="path903"
         inkscape:connector-curvature="0"
         sodipodi:nodetypes="ccacccccccccccscccaacccccccccc" />
      <path
         style="fill:#000000;stroke:none;stroke-width:0.26458332px;stroke-linecap:butt;stroke-linejoin:miter;stroke-opacity:1;fill-opacity:1"
         d="M 27.005974,39.76776 30.747749,43.108629 C 30.747749,43.108629 33.44482,44.569526 34.890425,44.444976 36.342603,44.319859 36.456035,43.857368 38.765835,42.30682 40.520163,41.129155 44.779399,40.302297 44.779399,40.302297 L 46.650286,38.832317 44.645763,35.758716 Z"
         id="path905"
         inkscape:connector-curvature="0"
         sodipodi:nodetypes="ccsscccc" />
      <path
         style="fill:#000000;stroke:none;stroke-width:0.26458332px;stroke-linecap:butt;stroke-linejoin:miter;stroke-opacity:1;fill-opacity:1"
         d="M 67.89821,35.224179 71.639985,39.500491 75.248123,39.76776 82.598033,37.228699 82.998938,35.224179 78.455357,31.482404 70.971811,34.556005 Z"
         id="path907"
         inkscape:connector-curvature="0" />
      <path
         style="fill:#000000;stroke:none;stroke-width:0.26458332px;stroke-linecap:butt;stroke-linejoin:miter;stroke-opacity:1;fill-opacity:1"
         d="M 72.441794,14.644425 70.437271,18.787103 72.308158,21.727067 77.11901,25.602475 C 77.14629,25.684315 85.569916,24.172725 89.012501,22.796145 90.344423,22.263552 92.887912,24.667032 92.887912,24.667032 L 91.551562,39.76776 90.08158,46.850401 88.210695,48.186748 69.635462,48.320384 63.488265,47.384941 62.018282,51.794886 66.561863,56.873008 69.769097,57.407548 75.114487,53.665774 89.947946,52.062158 105.98412,58.743895 C 105.98412,58.743895 106.65164,57.059455 106.51866,56.204834 106.22727,54.332244 105.41676,52.088831 103.71232,51.260349 101.3016,50.088563 94.892432,48.992015 94.892432,48.988557 L 100.37146,27.072457 104.11323,23.998858 100.63873,13.575347 97.565128,11.838095 93.021545,12.506269 92.487007,15.579868 78.58899,17.58439 74.713583,16.648947 Z"
         id="path909"
         inkscape:connector-curvature="0"
         sodipodi:nodetypes="ccccsccccccccccccascccccccccc" />
      <path
         style="fill:#000000;stroke:none;stroke-width:0.26458332px;stroke-linecap:butt;stroke-linejoin:miter;stroke-opacity:1;fill-opacity:1"
         d="M 37.162217,63.822016 35.692234,68.632866 39.567642,73.978258 41.572165,95.226183 39.033104,100.43794 43.17578,106.71877 C 43.17578,106.71877 44.767434,106.79448 45.313936,106.31787 46.163233,105.57718 45.287278,103.37387 46.383014,103.11063 53.555142,101.38762 61.899985,100.91359 68.299115,99.636131 70.153456,99.265948 73.778141,101.10611 73.778141,101.10611 L 74.446314,99.502495 70.570907,94.691645 46.51665,99.368862 45.447572,98.166148 V 73.176449 L 38.899468,63.554747 Z"
         id="path911"
         inkscape:connector-curvature="0"
         sodipodi:nodetypes="ccccccasscccccccc" />
      <path
         style="fill:#000000;stroke:none;stroke-width:0.26458332px;stroke-linecap:butt;stroke-linejoin:miter;stroke-opacity:1;fill-opacity:1"
         d="M 49.055711,62.752938 C 48.140093,62.608634 46.783919,64.356554 46.783919,64.356554 L 46.51665,66.895614 52.797482,71.171926 56.004716,71.572831 74.713583,65.826536 78.58899,67.430155 77.920817,92.553489 77.11901,103.77881 74.045409,103.91244 77.920817,113.93505 C 77.920817,113.93505 79.938291,115.65327 81.128051,115.53867 82.582503,115.39858 84.855108,114.30517 84.602556,112.86597 84.187604,110.50132 82.673764,103.5347 82.731669,103.51154 L 84.736189,73.443718 C 84.557074,72.995931 86.584446,68.84796 86.874345,68.231964 88.521513,64.731955 80.192609,58.743895 80.192609,58.743895 L 76.049932,58.075721 72.040889,60.882051 54.401101,64.222921 C 54.401101,64.222921 51.503974,64.954426 50.258422,64.356554 49.65605,64.067412 49.715737,62.85696 49.055711,62.752938 Z"
         id="path913"
         inkscape:connector-curvature="0"
         sodipodi:nodetypes="accccccccccasccsccccaa" />
      <path
         style="fill:#000000;stroke:none;stroke-width:0.26458332px;stroke-linecap:butt;stroke-linejoin:miter;stroke-opacity:1;fill-opacity:1"
         d="M 47.852997,82.931787 50.926598,87.475368 H 52.530213 C 52.600707,87.522364 60.839048,83.407398 64.156438,81.862709 65.165984,81.39263 67.497306,81.862709 67.497306,81.862709 L 68.833655,78.789108 C 68.833655,78.789108 65.282326,76.826446 63.354629,76.918221 61.841161,76.990275 59.211953,78.789108 59.211953,78.789108 Z"
         id="path915"
         inkscape:connector-curvature="0"
         sodipodi:nodetypes="cccsccacc" />
    </g>
  </g>
</svg>
