<?xml version="1.0" encoding="UTF-8" standalone="no"?>
<!-- Created with Inkscape (http://www.inkscape.org/) -->

<svg
   xmlns:dc="http://purl.org/dc/elements/1.1/"
   xmlns:cc="http://creativecommons.org/ns#"
   xmlns:rdf="http://www.w3.org/1999/02/22-rdf-syntax-ns#"
   xmlns:svg="http://www.w3.org/2000/svg"
   xmlns="http://www.w3.org/2000/svg"
   xmlns:sodipodi="http://sodipodi.sourceforge.net/DTD/sodipodi-0.dtd"
   xmlns:inkscape="http://www.inkscape.org/namespaces/inkscape"
   width="512"
   height="512"
   viewBox="0 0 135.46666 135.46666"
   version="1.1"
   id="svg8"
   inkscape:version="0.92.4 (5da689c313, 2019-01-14)"
   sodipodi:docname="U+7FD2.svg">
  <defs
     id="defs2" />
  <sodipodi:namedview
     id="base"
     pagecolor="#ffffff"
     bordercolor="#666666"
     borderopacity="1.0"
     inkscape:pageopacity="0.0"
     inkscape:pageshadow="2"
     inkscape:zoom="1.1575153"
     inkscape:cx="119.22618"
     inkscape:cy="352.65933"
     inkscape:document-units="px"
     inkscape:current-layer="layer2"
     showgrid="false"
     inkscape:window-width="1920"
     inkscape:window-height="1017"
     inkscape:window-x="-8"
     inkscape:window-y="-8"
     inkscape:window-maximized="1"
     units="px" />
  <metadata
     id="metadata5">
    <rdf:RDF>
      <cc:Work
         rdf:about="">
        <dc:format>image/svg+xml</dc:format>
        <dc:type
           rdf:resource="http://purl.org/dc/dcmitype/StillImage" />
        <dc:title></dc:title>
      </cc:Work>
    </rdf:RDF>
  </metadata>
  <g
     inkscape:groupmode="layer"
     id="layer2"
     inkscape:label="圖層 2"
     transform="translate(0,-161.53333)">
    <path
       style="fill:#000000;fill-opacity:1;stroke:none;stroke-width:0.26458332px;stroke-linecap:butt;stroke-linejoin:miter;stroke-opacity:1"
       d="M 24.45792,183.62497 C 24.45792,183.62497 36.115433,182.93923 39.772691,182.2535 43.42995,181.56776 48.68726,180.88203 49.830152,179.51056 50.973046,178.13908 49.601573,175.62472 52.11594,176.53903 54.630305,177.45335 58.287563,179.96771 58.973303,181.11061 59.659033,182.2535 61.030513,183.62497 60.801933,184.99644 60.573353,186.36792 58.973303,185.91076 58.516143,187.28223 58.058983,188.6537 56.458935,189.7966 56.001778,194.82533 55.54462,199.85406 54.630305,215.16883 54.630305,215.16883 54.630305,215.16883 54.401726,218.36893 53.487411,219.96898 52.573098,221.56903 48.68726,217.6832 48.68726,215.62599 48.68726,213.56878 50.973046,199.85406 50.973046,197.33969 50.973046,194.82533 51.658783,186.82507 51.658783,186.82507 51.658783,186.82507 51.887361,183.85355 50.515888,184.31071 49.144418,184.76787 35.201117,191.62523 34.058223,192.31096 32.915332,192.9967 32.686753,192.53954 30.858122,190.71091 29.029492,188.88228 24.000763,186.13934 24.45792,183.62497 Z"
       id="path3725"
       inkscape:connector-curvature="0" />
    <path
       style="fill:#000000;fill-opacity:1;stroke:none;stroke-width:0.26458332px;stroke-linecap:butt;stroke-linejoin:miter;stroke-opacity:1"
       d="M 25.829391,200.99695 C 25.829391,200.99695 37.486903,198.02543 39.315534,197.56827 41.144162,197.11111 43.201371,195.96822 44.572844,197.11111 45.944315,198.25401 47.087209,199.62548 45.944315,200.53979 44.801423,201.45411 40.229849,202.82558 38.17264,204.19705 36.115433,205.56853 34.286802,206.48284 32.686753,205.7971 31.086701,205.11137 24.915075,202.36842 25.829391,200.99695 Z"
       id="path3727"
       inkscape:connector-curvature="0" />
    <path
       style="fill:#000000;fill-opacity:1;stroke:none;stroke-width:0.26458332px;stroke-linecap:butt;stroke-linejoin:miter;stroke-opacity:1"
       d="M 18.286295,221.34045 C 18.286295,221.34045 18.514873,217.22604 19.429189,217.45462 20.343504,217.6832 21.257817,218.82609 22.857869,218.14035 24.45792,217.45462 37.715482,212.42589 37.715482,212.42589 37.715482,212.42589 40.458428,210.82583 42.287056,210.1401 44.115687,209.45436 45.715736,208.54005 47.772945,209.22578 49.830152,209.91152 52.801677,209.91152 52.573098,211.51157 52.344519,213.11162 52.11594,215.62599 50.515888,215.85457 48.915839,216.08314 44.115687,215.62599 42.515635,216.31172 40.915586,216.99746 35.201117,220.8833 35.201117,220.8833 35.201117,220.8833 30.858122,223.39766 29.715228,224.99771 28.572337,226.59777 28.572337,228.19781 26.743706,227.51208 24.915075,226.82634 18.743452,222.48335 18.286295,221.34045 Z"
       id="path3729"
       inkscape:connector-curvature="0" />
    <path
       style="fill:#000000;fill-opacity:1;stroke:none;stroke-width:0.26458332px;stroke-linecap:butt;stroke-linejoin:miter;stroke-opacity:1"
       d="M 70.173653,179.73913 C 70.173653,179.73913 70.173653,175.8533 72.002283,175.62472 73.830913,175.39614 74.059493,177.91051 76.345283,177.91051 78.631063,177.91051 87.317053,177.22477 89.374263,176.76761 91.431473,176.31045 92.574363,176.08188 93.031523,174.7104 93.488683,173.33893 94.174413,173.33893 95.545893,173.11035 96.917363,172.88177 98.060253,170.59599 99.660303,173.56751 101.26035,176.53903 103.31756,181.79634 103.54614,182.93923 103.77472,184.08213 103.77472,185.91076 102.17467,187.05365 100.57462,188.19655 99.431723,191.16807 98.517413,193.91101 97.603103,196.65396 96.003043,208.54005 94.860153,210.59726 93.717263,212.65446 90.517153,216.08314 90.288583,212.19731 90.060003,208.31147 91.431473,195.51106 91.888633,193.91101 92.345783,192.31096 93.945833,185.22502 92.345783,184.76787 90.745733,184.31071 87.088473,184.53929 85.031273,185.4536 82.974063,186.36792 79.088223,187.05365 79.088223,187.05365 79.088223,187.05365 77.945333,188.19655 76.116703,186.13934 74.288073,184.08213 69.716493,181.11061 70.173653,179.73913 Z"
       id="path3731"
       inkscape:connector-curvature="0" />
    <path
       style="fill:#000000;fill-opacity:1;stroke:none;stroke-width:0.26458332px;stroke-linecap:butt;stroke-linejoin:miter;stroke-opacity:1"
       d="M 67.202133,196.88254 C 67.202133,196.88254 67.887873,195.51106 69.030763,195.51106 70.173653,195.51106 74.745233,193.91101 76.345283,193.45386 77.945333,192.9967 78.173913,193.22528 79.773963,194.13959 81.374013,195.05391 83.202643,195.96822 82.059743,197.33969 80.916853,198.71116 77.488173,200.99695 76.345283,200.99695 75.202383,200.99695 71.545123,200.99695 69.945073,199.85406 68.345023,198.71116 66.516393,198.25401 67.202133,196.88254 Z"
       id="path3733"
       inkscape:connector-curvature="0" />
    <path
       style="fill:#000000;fill-opacity:1;stroke:none;stroke-width:0.26458332px;stroke-linecap:butt;stroke-linejoin:miter;stroke-opacity:1"
       d="M 62.173403,211.51157 C 62.173403,211.51157 61.030513,208.54005 63.087713,208.76863 65.144923,208.99721 71.545123,209.91152 73.373763,209.45436 75.202383,208.99721 85.488433,208.76863 88.459953,208.99721 91.431473,209.22578 97.374523,210.36868 100.11746,211.96873 102.8604,213.56878 103.08898,214.02594 105.14619,216.5403 107.2034,219.05467 107.66056,220.42614 106.74624,219.96898 105.83193,219.51182 97.374523,215.62599 95.545893,215.16883 93.717263,214.71167 88.459953,213.56878 86.631323,213.3402 84.802693,213.11162 77.488173,214.25452 77.488173,214.25452 77.488173,214.25452 74.288073,214.02594 72.916603,215.39741 71.545123,216.76888 69.716493,218.82609 67.887873,218.14035 66.059243,217.45462 61.944823,214.4831 62.173403,211.51157 Z"
       id="path3735"
       inkscape:connector-curvature="0" />
    <path
       style="fill:#000000;fill-opacity:1;stroke:none;stroke-width:0.26458332px;stroke-linecap:butt;stroke-linejoin:miter;stroke-opacity:1"
       d="M 35.201117,230.02644 C 35.201117,228.42639 36.57259,223.16908 38.401218,225.45487 40.229849,227.74066 42.972792,230.71218 44.115687,232.08365 45.258578,233.45512 45.487157,232.99797 45.258578,236.19807 45.030002,239.39817 45.487157,261.5703 45.487157,261.5703 45.487157,261.5703 46.401472,262.94178 45.715736,265.22756 45.030002,267.51335 44.115687,268.42766 42.744214,267.05619 41.372741,265.68472 36.57259,263.39893 38.629797,260.19883 40.687007,256.99873 41.372741,256.31299 40.915586,250.82711 40.458428,245.34122 40.00127,236.65523 38.858376,234.59802 37.715482,232.54081 36.115433,232.31223 35.201117,230.02644 Z"
       id="path3737"
       inkscape:connector-curvature="0" />
    <path
       style="fill:#000000;fill-opacity:1;stroke:none;stroke-width:0.26458332px;stroke-linecap:butt;stroke-linejoin:miter;stroke-opacity:1"
       d="M 45.715736,226.14061 C 45.715736,226.14061 47.087209,223.39766 48.458682,223.85482 49.830152,224.31198 52.344519,226.14061 53.715989,225.45487 55.087462,224.76913 68.345023,222.25477 69.259343,222.25477 70.173653,222.25477 74.288073,220.65472 74.288073,220.65472 74.288073,220.65472 74.059493,218.59751 76.573863,219.05467 79.088223,219.51182 80.688273,220.19756 83.202643,222.9405 85.717003,225.68345 87.545633,226.36919 86.859903,228.65497 86.174163,230.94076 83.888373,236.42665 83.888373,238.48386 83.888373,240.54106 82.745483,260.65599 82.745483,260.65599 82.745483,260.65599 82.516903,264.54182 82.288323,264.99898 82.059743,265.45614 83.888373,269.79913 84.116953,271.39919 84.345533,272.99924 83.202643,275.5136 81.602593,276.42792 80.002543,277.34223 79.545383,276.65649 77.716753,272.54208 75.888123,268.42766 73.830913,264.08467 73.830913,264.08467 L 76.345283,264.99898 C 76.345283,264.99898 77.488173,264.7704 77.488173,261.79888 77.488173,258.82736 78.631063,235.28375 78.631063,235.28375 L 78.402483,230.25502 C 78.402483,230.25502 78.402483,227.96924 76.802443,227.2835 75.202383,226.59777 67.202133,228.88355 67.202133,228.88355 L 57.373248,231.62649 C 57.373248,231.62649 54.858884,234.14086 53.487411,232.76939 52.11594,231.39792 47.772945,228.42639 47.772945,228.42639 47.772945,228.42639 44.801423,227.51208 45.715736,226.14061 Z"
       id="path3739"
       inkscape:connector-curvature="0" />
    <path
       style="fill:#000000;fill-opacity:1;stroke:none;stroke-width:0.26458332px;stroke-linecap:butt;stroke-linejoin:miter;stroke-opacity:1"
       d="M 47.087209,243.51259 C 47.087209,243.51259 46.401472,244.19832 49.830152,243.51259 53.258834,242.82685 61.259093,238.0267 62.173403,238.25528 63.087713,238.48386 62.859133,237.79812 65.830663,238.71244 68.802183,239.62675 69.945073,239.85533 68.116443,241.91254 66.287813,243.96974 65.144923,243.51259 62.401983,244.88406 59.659033,246.25553 55.087462,246.94127 54.401726,248.08416 53.715989,249.22705 51.658783,249.22705 50.744467,248.08416 49.830152,246.94127 46.401472,244.4269 47.087209,243.51259 Z"
       id="path3741"
       inkscape:connector-curvature="0" />
    <path
       style="fill:#000000;fill-opacity:1;stroke:none;stroke-width:0.26458332px;stroke-linecap:butt;stroke-linejoin:miter;stroke-opacity:1"
       d="M 40.687007,260.42741 C 40.687007,260.42741 49.830152,259.28452 51.430204,258.82736 53.030256,258.3702 62.859133,256.31299 65.144923,256.31299 67.430713,256.31299 69.945073,256.08441 71.316553,257.22731 72.688023,258.3702 78.859643,260.88457 69.259343,261.34172 59.659033,261.79888 56.001778,262.02746 53.258834,262.94178 50.515888,263.85609 42.972792,268.42766 41.829898,265.9133 40.687007,263.39893 39.544113,262.48462 40.687007,260.42741 Z"
       id="path3743"
       inkscape:connector-curvature="0" />
  </g>
</svg>
