<?xml version="1.0" encoding="UTF-8" standalone="no"?>
<!-- Created with Inkscape (http://www.inkscape.org/) -->

<svg
   xmlns:dc="http://purl.org/dc/elements/1.1/"
   xmlns:cc="http://creativecommons.org/ns#"
   xmlns:rdf="http://www.w3.org/1999/02/22-rdf-syntax-ns#"
   xmlns:svg="http://www.w3.org/2000/svg"
   xmlns="http://www.w3.org/2000/svg"
   xmlns:sodipodi="http://sodipodi.sourceforge.net/DTD/sodipodi-0.dtd"
   xmlns:inkscape="http://www.inkscape.org/namespaces/inkscape"
   width="512"
   height="512"
   viewBox="0 0 135.46666 135.46667"
   version="1.1"
   id="svg8"
   inkscape:version="0.92.4 (5da689c313, 2019-01-14)"
   sodipodi:docname="U+9670.svg">
  <defs
     id="defs2" />
  <sodipodi:namedview
     id="base"
     pagecolor="#ffffff"
     bordercolor="#666666"
     borderopacity="1.0"
     inkscape:pageopacity="0.0"
     inkscape:pageshadow="2"
     inkscape:zoom="1.4142136"
     inkscape:cx="217.07403"
     inkscape:cy="270.06486"
     inkscape:document-units="px"
     inkscape:current-layer="layer3"
     showgrid="false"
     units="px"
     inkscape:window-width="1920"
     inkscape:window-height="1017"
     inkscape:window-x="-8"
     inkscape:window-y="-8"
     inkscape:window-maximized="1" />
  <metadata
     id="metadata5">
    <rdf:RDF>
      <cc:Work
         rdf:about="">
        <dc:format>image/svg+xml</dc:format>
        <dc:type
           rdf:resource="http://purl.org/dc/dcmitype/StillImage" />
        <dc:title></dc:title>
      </cc:Work>
    </rdf:RDF>
  </metadata>
  <g
     inkscape:groupmode="layer"
     id="layer3"
     inkscape:label="Layer 2">
    <path
       style="fill:#000000;stroke:none;stroke-width:0.26458332px;stroke-linecap:butt;stroke-linejoin:miter;stroke-opacity:1;fill-opacity:1"
       d="M 5.9531249,28.575 C 5.0270833,35.71875 4.8947916,30.95625 5.8208333,37.570833 6.7468749,44.185416 5.2916666,109.66979 2.38125,113.63854 -0.52916666,117.60729 9.7895832,124.61875 9.7895832,124.61875 9.7895832,124.61875 10.186458,119.19479 9.3927082,111.38958 8.5989582,103.58437 9.9218749,40.745833 11.377083,38.1 12.832292,35.454166 7.5406249,28.839583 5.9531249,28.575 Z"
       id="path4769"
       inkscape:connector-curvature="0" />
    <path
       style="fill:#000000;stroke:none;stroke-width:0.26458332px;stroke-linecap:butt;stroke-linejoin:miter;stroke-opacity:1;fill-opacity:1"
       d="M 18.917708,36.380208 C 18.917708,36.380208 22.384753,43.501393 21.034374,45.376041 18.150742,49.379212 10.307069,52.530505 8.0697916,51.990624 5.5728245,51.388076 24.738541,58.869791 26.061458,57.017708 27.384375,55.165624 30.030208,40.878124 18.917708,36.380208 Z"
       id="path4771"
       inkscape:connector-curvature="0"
       sodipodi:nodetypes="csssc" />
    <path
       style="fill:#000000;stroke:none;stroke-width:0.26458332px;stroke-linecap:butt;stroke-linejoin:miter;stroke-opacity:1;fill-opacity:1"
       d="M 54.107291,0.52916716 C 54.107291,0.52916716 56.356249,9.3927087 57.017708,9.3927087 57.679166,9.3927087 65.009097,12.38478 70.379166,17.4625 75.918704,22.700464 96.903662,52.232776 108.74375,59.398958 118.35063,58.024175 127.80209,57.02843 128.85208,57.149999 129.91158,57.272669 131.23333,56.091666 131.49792,55.430208 131.7625,54.768749 103.78316,41.183802 95.646874,35.189583 87.284874,29.029073 55.731405,-2.7190607 54.107291,0.52916716 Z"
       id="path4775"
       inkscape:connector-curvature="0"
       sodipodi:nodetypes="csscscsc" />
    <path
       style="fill:#000000;stroke:none;stroke-width:0.26458332px;stroke-linecap:butt;stroke-linejoin:miter;stroke-opacity:1;fill-opacity:1"
       d="M 46.103645,36.380208 C 46.103645,36.380208 48.154166,39.290625 48.418749,40.613541 48.683333,41.936458 50.535416,64.492187 50.535416,64.492187 L 53.048958,65.682812 C 53.048958,65.682812 61.58177,59.002083 63.036978,59.795833 64.492187,60.589583 66.013541,62.243228 66.079687,62.904687 66.145832,63.566145 67.005728,65.021353 67.601041,64.624478 68.196353,64.227603 69.849999,62.37552 69.453124,61.846353 69.056249,61.317187 64.690624,57.414583 63.235416,57.414583 61.780208,57.414583 56.686978,60.589583 55.959374,60.457291 55.23177,60.324999 54.636458,47.426562 56.422395,44.053124 58.208333,40.679687 46.103645,36.380208 46.103645,36.380208 Z"
       id="path4779"
       inkscape:connector-curvature="0" />
    <path
       style="fill:#000000;stroke:none;stroke-width:0.26458332px;stroke-linecap:butt;stroke-linejoin:miter;stroke-opacity:1;fill-opacity:1"
       d="M 58.340624,36.247916 C 58.340624,36.247916 60.192708,41.407291 62.177083,41.010416 64.161458,40.613541 72.363541,32.54375 74.744791,33.205208 77.126041,33.866666 81.227082,27.252083 76.993749,28.045833 72.760416,28.839583 58.340624,36.247916 58.340624,36.247916 Z"
       id="path4781"
       inkscape:connector-curvature="0" />
    <path
       style="fill:#000000;stroke:none;stroke-width:0.26458332px;stroke-linecap:butt;stroke-linejoin:miter;stroke-opacity:1;fill-opacity:1"
       d="M 58.869791,52.122916 C 58.869791,52.122916 60.324999,57.017708 62.573958,57.017708 64.822916,57.017708 72.231249,51.858333 72.495832,51.329166 72.760416,50.799999 70.908332,46.566666 68.130207,47.624999 65.352083,48.683333 58.869791,52.122916 58.869791,52.122916 Z"
       id="path4783"
       inkscape:connector-curvature="0" />
    <path
       style="fill:#000000;stroke:none;stroke-width:0.26458332px;stroke-linecap:butt;stroke-linejoin:miter;stroke-opacity:1;fill-opacity:1"
       d="M 16.933333,91.545832 C 16.933333,91.545832 20.697974,97.551961 23.8125,98.028124 32.522866,93.12187 39.069915,89.608556 47.228124,86.651041 59.102894,82.346197 71.467555,79.055596 84.005207,77.522916 88.338573,76.993179 92.810202,76.723885 97.102082,77.522915 100.35466,78.128457 103.03977,80.67914 106.3625,81.094791 108.28834,79.039468 108.08229,77.655207 105.96562,75.406249 103.84896,73.157291 94.456249,69.849999 93.79479,69.982291 93.133332,70.114582 90.222916,71.966666 88.106249,72.495832 85.989582,73.024999 37.703125,84.798957 37.703125,84.798957 Z"
       id="path4785"
       inkscape:connector-curvature="0"
       sodipodi:nodetypes="ccaaacccscc" />
    <path
       style="fill:#000000;fill-opacity:1;stroke:none;stroke-width:0.26458332px;stroke-linecap:butt;stroke-linejoin:miter;stroke-opacity:1"
       d="M 53.842708,82.68229 C 55.290314,83.067601 57.546874,84.666666 57.149999,85.724999 56.753124,86.783332 50.667708,100.93854 50.667708,103.05521 50.667708,105.17187 52.652083,104.775 52.652083,104.775 52.652083,104.775 71.834374,99.218749 72.892707,99.880207 73.951041,100.54167 78.978124,103.58437 77.787499,104.51042 76.596874,105.43646 59.134374,107.81771 55.959374,109.27292 52.784374,110.72812 50.138541,111.78646 49.609374,110.72812 49.080208,109.66979 43.523958,103.1875 43.523958,103.1875 43.523958,103.1875 49.609375,90.61979 49.873958,89.693749 50.138541,88.767707 49.212499,83.608332 50.932291,83.343749 52.652083,83.079166 52.881303,82.426392 53.842708,82.68229 Z"
       id="path4787"
       inkscape:connector-curvature="0"
       sodipodi:nodetypes="assccccccssa" />
    <path
       style="fill:#000000;stroke:none;stroke-width:0.26458332px;stroke-linecap:butt;stroke-linejoin:miter;stroke-opacity:1;fill-opacity:1"
       d="M 71.834374,94.456249 C 71.834374,94.456249 83.211458,100.80625 82.549999,103.98124 81.888541,107.15624 81.623958,110.19895 79.639583,109.14062 77.655208,108.08229 71.834374,94.456249 71.834374,94.456249 Z"
       id="path4789"
       inkscape:connector-curvature="0" />
    <path
       style="fill:#000000;stroke:none;stroke-width:0.26458332px;stroke-linecap:butt;stroke-linejoin:miter;stroke-opacity:1;fill-opacity:1"
       d="M 5.0270832,14.022917 C 5.0270832,14.022917 2.9104166,16.66875 3.1749999,17.594792 3.4395832,18.520834 8.3343748,23.8125 9.789583,23.01875 11.244792,22.225 17.4625,17.727084 18.917708,17.727084 20.372916,17.727084 21.431249,18.388542 21.695833,19.579167 21.960416,20.769792 17.727083,28.575 18.653125,29.236458 19.579166,29.897917 31.749999,16.139584 32.543749,16.404167 33.337499,16.66875 35.321874,12.964584 34.263541,12.567709 33.205208,12.170834 27.516666,8.0697926 26.590624,7.9375006 25.664583,7.8052086 23.018749,11.773959 21.431249,12.832292 19.84375,13.890625 6.8791666,17.859375 5.0270832,14.022917 Z"
       id="path4767"
       inkscape:connector-curvature="0" />
    <path
       style="fill:#000000;stroke:none;stroke-width:0.26458332px;stroke-linecap:butt;stroke-linejoin:miter;stroke-opacity:1;fill-opacity:1"
       d="M 56.753124,6.0854172 C 56.753124,6.0854172 61.251041,6.3500004 61.383333,7.6729171 61.515624,8.9958337 61.383333,10.715625 60.060416,12.7 58.737499,14.684375 28.71502,77.126042 18.520833,77.126041 14.06002,78.184044 11.006542,77.411876 6.6145832,76.596873 19.77614,78.978695 62.078579,14.265034 56.753124,6.0854172 Z"
       id="path4777"
       inkscape:connector-curvature="0"
       sodipodi:nodetypes="cssccc" />
  </g>
</svg>
