<?xml version="1.0" encoding="UTF-8" standalone="no"?>
<!-- Created with Inkscape (http://www.inkscape.org/) -->

<svg
   xmlns:dc="http://purl.org/dc/elements/1.1/"
   xmlns:cc="http://creativecommons.org/ns#"
   xmlns:rdf="http://www.w3.org/1999/02/22-rdf-syntax-ns#"
   xmlns:svg="http://www.w3.org/2000/svg"
   xmlns="http://www.w3.org/2000/svg"
   xmlns:sodipodi="http://sodipodi.sourceforge.net/DTD/sodipodi-0.dtd"
   xmlns:inkscape="http://www.inkscape.org/namespaces/inkscape"
   width="512"
   height="512"
   viewBox="0 0 135.46667 135.46667"
   version="1.1"
   id="svg8"
   inkscape:version="0.92.4 (5da689c313, 2019-01-14)"
   sodipodi:docname="U+975E.svg">
  <defs
     id="defs2" />
  <sodipodi:namedview
     id="base"
     pagecolor="#ffffff"
     bordercolor="#666666"
     borderopacity="1.0"
     inkscape:pageopacity="0.0"
     inkscape:pageshadow="2"
     inkscape:zoom="1.3289991"
     inkscape:cx="199.76021"
     inkscape:cy="272.63854"
     inkscape:document-units="mm"
     inkscape:current-layer="layer2"
     showgrid="false"
     units="px"
     scale-x="1"
     inkscape:window-width="1920"
     inkscape:window-height="1017"
     inkscape:window-x="-8"
     inkscape:window-y="-8"
     inkscape:window-maximized="1" />
  <metadata
     id="metadata5">
    <rdf:RDF>
      <cc:Work
         rdf:about="">
        <dc:format>image/svg+xml</dc:format>
        <dc:type
           rdf:resource="http://purl.org/dc/dcmitype/StillImage" />
        <dc:title></dc:title>
      </cc:Work>
    </rdf:RDF>
  </metadata>
  <g
     inkscape:groupmode="layer"
     id="layer2"
     inkscape:label="圖層 2">
    <path
       style="fill:#000000;stroke:none;stroke-width:0.26458332px;stroke-linecap:butt;stroke-linejoin:miter;stroke-opacity:1;fill-opacity:1"
       d="m 13.537757,32.340812 c 0,0 1.990846,2.98627 3.981693,3.583524 1.990846,0.597255 6.768878,1.791761 9.755149,1.592678 2.98627,-0.199086 7.366132,0 8.759724,0.398169 1.393593,0.398169 3.583525,0 3.583525,0 0,0 -1.194509,1.393592 -3.185356,2.787184 -1.990846,1.393592 -7.764301,4.977117 -8.759724,5.176203 -0.995424,0.199083 -6.569794,1.194506 -9.35698,-0.597255 -2.787185,-1.791761 -5.375285,-3.981693 -6.370708,-8.759724 -0.995424,-4.778034 1.592677,-4.180779 1.592677,-4.180779 z"
       id="path827"
       inkscape:connector-curvature="0" />
    <path
       style="fill:#000000;stroke:none;stroke-width:0.26458332px;stroke-linecap:butt;stroke-linejoin:miter;stroke-opacity:1;fill-opacity:1"
       d="m 7.3661325,63.796187 c -0.1990847,-0.995423 0.5972537,-4.578945 0.5972537,-4.578945 0,0 0.3981693,2.18993 2.3890158,2.18993 1.990847,0 11.54691,-2.588099 11.54691,-2.588099 0,0 2.389016,-1.592678 4.778032,-1.393595 2.389016,0.199086 5.1762,1.194509 5.375286,1.990847 0.199086,0.79634 -1.194509,0.398169 -1.592678,1.990847 -0.398169,1.592677 -3.981693,2.588101 -6.967962,4.180779 -2.98627,1.592677 -9.157895,5.97254 -10.551487,4.379862 C 11.54691,68.375135 6.3707091,65.388865 7.3661325,63.796187 Z"
       id="path829"
       inkscape:connector-curvature="0" />
    <path
       style="fill:#000000;stroke:none;stroke-width:0.26458332px;stroke-linecap:butt;stroke-linejoin:miter;stroke-opacity:1;fill-opacity:1"
       d="m 9.1578942,86.89001 c 0,0 0.1990847,-4.778034 1.9908468,-4.379865 1.791762,0.398171 0.995423,1.592678 2.787185,0.995423 1.791762,-0.597252 8.759725,-5.773454 11.347826,-8.560639 2.588099,-2.787186 12.741418,-13.736841 13.139587,-14.533181 0.398169,-0.796337 0.398169,-0.796337 0.398169,-0.796337 0,0 1.592678,1.194506 -2.18993,7.963386 -3.78261,6.768878 -8.162473,15.130433 -9.954234,17.718535 -1.791762,2.588101 -5.773455,7.167046 -5.773455,7.167046 0,0 -3.185354,2.588101 -5.97254,0.199086 C 12.144164,90.274448 9.7551482,89.079939 9.1578942,86.89001 Z"
       id="path831"
       inkscape:connector-curvature="0" />
    <path
       style="fill:#000000;stroke:none;stroke-width:0.26458332px;stroke-linecap:butt;stroke-linejoin:miter;stroke-opacity:1;fill-opacity:1"
       d="m 31.853544,22.784749 c 0,0 2.787187,-1.791763 1.990847,-2.588101 -0.796338,-0.796339 -0.199083,-0.995423 3.384439,-0.398169 3.583524,0.597254 5.574371,1.194507 8.162472,2.98627 2.588101,1.791762 6.171623,4.778032 5.1762,6.569793 -0.995423,1.791763 -2.18993,1.791763 -2.787184,7.764303 -0.597255,5.972538 -1.791761,15.528602 -1.393592,23.691072 0.398168,8.162472 1.393592,25.482838 1.393592,25.482838 0,0 0.995423,2.787184 0.199085,6.370709 -0.79634,3.583524 -1.194509,3.782608 -3.583524,2.588101 -2.389016,-1.194509 -5.375286,-6.569794 -4.578948,-8.759727 0.79634,-2.18993 1.393592,-4.180776 1.393592,-8.958807 0,-4.778034 -0.597252,-30.659038 -0.597252,-30.659038 L 40.414186,32.539897 c 0,0 -0.398169,-3.384439 -1.393593,-4.778031 -0.995423,-1.393594 -7.565218,-2.787186 -7.167049,-4.977117 z"
       id="path835"
       inkscape:connector-curvature="0" />
    <path
       style="fill:#000000;stroke:none;stroke-width:0.26458332px;stroke-linecap:butt;stroke-linejoin:miter;stroke-opacity:1;fill-opacity:1"
       d="m 80.629285,31.743557 c 0,0 0.199086,-0.398169 3.384442,-2.787184 3.185353,-2.389016 7.167046,-6.171624 4.977114,-7.167048 -2.18993,-0.995423 -1.990847,-1.592677 0,-2.389016 1.990847,-0.796338 3.78261,-1.791762 4.977117,-0.796338 1.194509,0.995423 5.574371,3.782608 6.370712,4.977116 0.79634,1.194508 1.99084,2.588101 0.79634,3.583525 -1.194512,0.995423 -4.379865,1.592675 -6.171629,1.592675 -1.791761,0 -4.180776,1.592678 -6.967963,2.787187 -2.787185,1.194506 -7.167047,2.787184 -7.366133,0.199083 z"
       id="path837"
       inkscape:connector-curvature="0" />
    <path
       style="fill:#000000;stroke:none;stroke-width:0.26458332px;stroke-linecap:butt;stroke-linejoin:miter;stroke-opacity:1;fill-opacity:1"
       d="m 78.24027,48.068499 c 0,0 -2.588099,-2.787184 0.398169,-1.791761 2.98627,0.995424 5.176202,1.791761 7.565218,1.194509 2.389015,-0.597254 3.583524,-1.990846 5.574371,-1.194509 1.990847,0.796338 5.574368,2.588102 3.981693,3.583525 -1.592678,0.995423 -4.778033,4.379862 -4.778033,4.379862 0,0 -3.384439,1.990847 -4.778031,1.194506 -1.393593,-0.796337 -7.963387,-3.384438 -7.963387,-7.366132 z"
       id="path839"
       inkscape:connector-curvature="0" />
    <path
       style="fill:#000000;stroke:none;stroke-width:0.26458332px;stroke-linecap:butt;stroke-linejoin:miter;stroke-opacity:1;fill-opacity:1"
       d="m 76.05034,65.587951 c 0.796338,0 5.574369,1.592677 7.565215,1.592677 1.990847,0 6.967964,-0.199085 9.556065,1.393593 2.588101,1.592675 7.16705,5.773454 7.16705,6.768877 0,0.995424 1.19451,3.981694 -0.796341,4.778031 -1.990847,0.796341 -3.583525,0.597255 -8.560641,-1.990846 -4.977114,-2.588099 -9.356979,-4.379863 -9.356979,-4.379863 0,0 0.597254,0.796341 -1.592676,-1.791761 -2.189932,-2.588101 -5.574371,-5.773454 -3.981693,-6.370708 z"
       id="path841"
       inkscape:connector-curvature="0" />
    <path
       style="fill:#000000;stroke:none;stroke-width:0.26458332px;stroke-linecap:butt;stroke-linejoin:miter;stroke-opacity:1;fill-opacity:1"
       d="m 58.729975,14.025024 c 0,0 2.189929,1.990846 3.782607,1.592677 1.592678,-0.398169 3.981694,-1.592677 5.773454,-0.398169 1.791764,1.194507 6.967964,5.972539 6.171626,7.366132 -0.796337,1.393593 -2.787184,4.578948 -2.787184,6.370709 0,1.791761 -0.398172,30.260869 0,35.636154 0.398169,5.375286 0.597252,13.139587 0.995423,17.718535 0.398169,4.578948 0.796338,9.755147 0.597252,10.551485 -0.199083,0.79634 0.398172,1.194509 -0.398169,2.588101 -0.796337,1.393592 -1.791761,2.189933 -3.185353,0 -1.393595,-2.18993 -2.189932,-2.588101 -3.583524,-11.347825 -1.393592,-8.759725 -2.189933,-10.750571 -2.189933,-10.750571 0,0 0.398172,1.791761 1.393595,1.194509 0.995421,-0.597255 1.791761,-5.97254 1.791761,-9.157896 0,-3.185353 -0.199086,-27.473682 -0.199086,-27.473682 V 26.965526 c 0,0 -1.194506,-3.782608 -2.588098,-3.782608 -1.393595,0 -2.98627,0.199085 -4.977117,-1.990847 -1.990847,-2.189931 -3.185356,-3.384439 -0.597254,-7.167047 z"
       id="path843"
       inkscape:connector-curvature="0" />
  </g>
</svg>
