<?xml version="1.0" standalone="no"?>
<!DOCTYPE svg PUBLIC "-//W3C//DTD SVG 1.1//EN" "http://www.w3.org/Graphics/SVG/1.1/DTD/svg11.dtd" >
<svg xmlns="http://www.w3.org/2000/svg" xmlns:xlink="http://www.w3.org/1999/xlink" version="1.1" viewBox="0 0 256 256">
  <g transform="matrix(1 0 0 -1 0 204)">
   <path fill="currentColor"
d="M90 94q1 -4 -2 -4q-5 -1 -7 -4q-3 -3 -4 -2q-1 0 0 4q2 3 -5 3q-4 2 -2 4q16 3 20 -1zM55 71q-5 -18 -7 -27q-3 -6 2 -6q36 5 53 5q1 6 3 28q0 5 1 10q-22 -4 -52 -10zM158 180q10 -1 14 -5q1 -1 0 -4q-1 -1 -2 -3q-2 -5 -1 -7q-6 -36 -17 -55q12 0 45 13q6 1 6 7
q-1 1 2 4q2 1 4 1q6 -2 10 -5q1 -1 6 -3q2 1 2 -4q0 -2 -6 -3q-15 0 -36 -7q-24 -10 -35 -5q-6 -10 -10 -12q4 -2 14 -6q0 -5 -9 -4q-6 3 -32 -1q-1 -3 -1 -8q-1 -7 -3 -30q14 -1 27 -4q1 -1 1 -3q-1 -1 -2 -1h-5q-2 0 -7 2q-6 1 -15 2q-6 -24 -13 -34q-2 -4 -2 -7
q-2 -4 -6 -1q-9 4 -18 12q-4 3 1 2q10 -5 17 -5q5 -1 8 5q5 8 8 28q-23 1 -52 -6q-2 -1 -3 -2q-4 -1 -7 -3q-3 -4 -6 1q-2 4 1 6l1 1q6 4 12 34q-19 -4 -36 -8q-4 -1 -9 2q-1 0 -1 1l1 2q10 0 36 5q6 1 10 2v13v12q-1 1 0 1h3q3 -2 6 -3q3 -3 0 -5l-1 -1q-2 -3 -1 -6
q-1 -2 -2 -5v-4q24 5 52 10q0 11 -1 14v13q-3 9 -15 8q-9 -1 -20 -7q-5 -3 -14 -5h-2q-3 -1 -3 1q0 1 3 2q7 2 15 7q10 4 25 6q5 3 26 -14q3 -2 3 -3q0 -2 -3 -3q-10 0 -8 -18q3 0 7 1q6 1 9 1q4 0 5 2q1 1 2 1q22 24 25 69q2 15 -3 18q-2 2 0 1zM80 60q5 1 10 0q3 -2 -3 -6
t-20 1q-5 1 0 2q8 1 13 3zM62 188q4 -1 8 -5q4 -5 1 -10q-15 -38 -40 -55q-8 -5 -2 2q25 25 34 53q4 10 -1 13t0 2zM123 165l14 -5q2 -1 1 -3q0 -2 -2 -2q-29 1 -63 -11q-9 -2 -14 -1t0 2q10 2 17 4q20 6 28 8q12 3 11 5q4 5 8 3zM185 97q6 -1 15 -8q1 0 0 -2q-1 -1 -1 -2
h-1q-2 1 -5 -5q-10 -23 -23 -43q6 -11 28 -32q3 -5 24 -5q16 -1 32 -8q2 -1 0 -3q-8 1 -22 2h-17l-1 1q-5 0 -10 4q-22 16 -37 38q-18 -27 -47 -39q-5 -1 -1 1q25 14 44 43q-1 1 -3 4q-1 3 -8 14q-3 5 -10 4q-3 1 0 2q4 4 11 5q1 0 3 -2q1 -4 3 -9q3 -7 8 -14q13 20 17 37
q4 12 0 15q-1 1 1 2z" />
  </g>

</svg>
