<?xml version="1.0" standalone="no"?>
<!DOCTYPE svg PUBLIC "-//W3C//DTD SVG 1.1//EN" "http://www.w3.org/Graphics/SVG/1.1/DTD/svg11.dtd" >
<svg xmlns="http://www.w3.org/2000/svg" xmlns:xlink="http://www.w3.org/1999/xlink" version="1.1" viewBox="0 0 256 256">
  <g transform="matrix(1 0 0 -1 0 204)">
   <path fill="currentColor"
d="M93 191q10 -2 13 -4h2q3 -1 3 -4q1 -4 -5 -3q-7 1 -17 -5q-26 -13 -44 -15q-3 -1 0 2q20 8 38 18q7 4 8 9q0 2 2 2zM78 164q5 -1 10 -4q1 -1 3 -1q2 -2 1 -3v-4q4 0 6 2q-2 1 2 4q1 1 3 1l6 -3q6 -2 11 -3q1 0 2 -1t2 -1q1 -2 -1 -4t-4 0q-12 4 -29 -2q-2 -11 -2 -22
q2 0 8 -2h4q11 -3 19 -3q-4 10 -3 15q0 1 2 1q4 -7 9 -22q10 6 20 10q0 6 -3 12q-2 1 1 2q7 -2 10 -7q1 -2 3 -3q4 0 8 1q1 0 2 1q2 0 4 -1q2 -5 -3 -5q-2 -1 -4 -1q-4 -1 -6 -2q0 -1 -1 -2l-1 -1q-3 0 -2 -4q-1 -2 -2 -6q-2 -11 -1 -13q7 1 11 2q12 4 14 2q7 13 10 38
q1 15 -13 14q-21 -2 -42 -8q-1 -1 -2 -1q-6 -3 -8 -1q-2 0 -2 1t2 2q18 6 44 12q15 2 26 -3q6 -6 11 -9q5 -2 4 -6q0 -3 -3 -3q-5 -2 -6 -10q-8 -30 -19 -37q-10 -7 -22 1q-2 -1 -7 -2q-5 -10 -6 -13t-1 -4q2 -4 7 -8q3 -3 0 -5q-9 -11 -8 -21q2 -25 24 -28q13 -3 34 -1
q23 3 33 8q5 2 4 8q-3 14 -11 28q-2 3 2 2q8 -5 17 -21q4 -10 8 -11q0 -1 1 -1l1 -1q0 -4 -6 -4l-4 -2q-3 -1 -4 -1q-10 -4 -37 -7q-25 -3 -39 -1q-20 3 -26 20q-5 16 1 33q1 4 0 8q-16 -32 -36 -42q2 -3 8 -6q3 -2 4 -2q4 -2 4 -4q-1 -4 -3 -3q-3 -1 -7 1q-3 1 -13 10
q-6 0 -4 3q-3 1 -8 5q-20 -25 -35 -24q-3 0 0 1q17 10 29 26q-13 8 -19 6t-5 5q0 3 2 3q3 -1 6 9q1 3 3 8q-4 -1 -7 -2q-24 -7 -35 -11q-9 -3 -21 0q-3 0 1 1q6 0 23 6l15 3q16 5 26 7q2 9 2 12v7q-1 1 1 1q2 -2 11 -4q1 -1 0 -3q-3 -3 -5 -8q-1 -2 -1 -3q2 0 7 1q3 1 11 4
q3 14 -1 17q-1 1 1 1q3 -1 7 -4h2q2 -1 2 -4q5 -3 24 6q-2 3 -9 8q-2 1 -2 5l1 3l2 2q0 3 -1 7h-4q-8 2 -11 1q-8 -1 -6 2v1q0 1 -2 2q-5 2 -9 4v-26q0 -6 1 -8t0 -4q-3 -3 -3 -1q-4 4 -5 9q-1 0 -2 2t-2 5q-2 2 1 4q3 3 4 27q-20 -25 -47 -45q-3 -1 -3 0q-1 1 1 3
q30 25 48 55q-9 -3 -21 -6q-13 -5 -20 -6q-5 -4 -27 -2q-2 1 0 2h1q9 1 24 5q7 2 13 4q20 5 29 9q0 9 -2 13q-3 2 0 3zM147 114q-4 -2 -8 -3h-3q-2 -3 -9 -1q0 -3 1 -5q1 -5 3 -8q3 -5 5 -9l4 1q3 0 4 1q1 7 2 13q0 6 1 11zM142 82q-6 0 -13 -4l-6 -2q-16 -1 -19 3
q0 -1 -1 -3q-1 -3 0 -4q11 1 10 -2t-4 -2q-2 0 -4 -1t-3 0q-4 -17 -14 -37q7 -4 11 -6q27 16 43 58zM94 66q-3 -1 -8 -3q-7 -2 -11 -3q-3 -6 -5 -11t-2 -6q-2 -3 1 -4q3 -2 2 -1q6 -3 11 -5q8 16 12 33zM168 77q5 -5 6 -7q1 -1 0 -3l-3 -3q-1 -2 -2 -3q-5 -8 -10 -14
q-3 -3 0 -2q7 2 18 4q2 0 9 3q-2 3 -5 6q-2 0 0 2q1 1 2 1q7 -4 14 -5q1 0 2 -2q2 -3 1 -5q-3 -5 -10 0q-9 -3 -18 -5q-4 -2 -3 -1q-12 -4 -17 -7q-1 -1 -2 -1q-1 -1 -3 0q-4 -2 1 9q0 1 2 1q3 0 6 5q8 10 10 26q0 2 2 1zM152 204q10 -8 13 -12q0 -4 -1 -3q-2 -1 -1 -1
q-4 0 -6 -4q-12 -18 -24 -31q-4 -4 -5 -4q-1 1 2 6q14 17 21 33q5 9 0 14q-3 3 1 2z" />
  </g>

</svg>
